# Rhino

g object_1
v 38.633785247802734 0 -41.959320068359375
v 38.633785247802734 5.5669116973876953 -41.959320068359375
v 39.541877746582031 0 -41.959320068359375
v 39.541877746582031 5.5669116973876953 -41.959320068359375
v 39.541877746582031 0 -43.136787414550781
v 39.541877746582031 5.5669116973876953 -43.136787414550781
v 38.633785247802734 0 -43.136787414550781
v 38.633785247802734 5.5669116973876953 -43.136787414550781
f 3 1 7 5
f 8 2 4 6
f 1 3 4 2
f 3 5 6 4
f 5 7 8 6
f 7 1 2 8
g object_2
v 52.087207794189453 0 -41.959320068359375
v 52.087207794189453 5.5669116973876953 -41.959320068359375
v 52.995296478271484 0 -41.959320068359375
v 52.995296478271484 5.5669116973876953 -41.959320068359375
v 52.995296478271484 0 -43.136787414550781
v 52.995296478271484 5.5669116973876953 -43.136787414550781
v 52.087207794189453 0 -43.136787414550781
v 52.087207794189453 5.5669116973876953 -43.136787414550781
f 11 9 15 13
f 16 10 12 14
f 9 11 12 10
f 11 13 14 12
f 13 15 16 14
f 15 9 10 16
g object_3
v 38.633785247802734 0 -47.212406158447266
v 38.633785247802734 5.5669116973876953 -47.212406158447266
v 39.541877746582031 0 -47.212406158447266
v 39.541877746582031 5.5669116973876953 -47.212406158447266
v 39.541877746582031 0 -48.389873504638672
v 39.541877746582031 5.5669116973876953 -48.389873504638672
v 38.633785247802734 0 -48.389873504638672
v 38.633785247802734 5.5669116973876953 -48.389873504638672
f 19 17 23 21
f 24 18 20 22
f 17 19 20 18
f 19 21 22 20
f 21 23 24 22
f 23 17 18 24
g object_4
v 52.087207794189453 0 -47.212406158447266
v 52.087207794189453 5.5669116973876953 -47.212406158447266
v 52.995296478271484 0 -47.212406158447266
v 52.995296478271484 5.5669116973876953 -47.212406158447266
v 52.995296478271484 0 -48.389873504638672
v 52.995296478271484 5.5669116973876953 -48.389873504638672
v 52.087207794189453 0 -48.389873504638672
v 52.087207794189453 5.5669116973876953 -48.389873504638672
f 27 25 31 29
f 32 26 28 30
f 25 27 28 26
f 27 29 30 28
f 29 31 32 30
f 31 25 26 32
