# Rhino

g object_1
v 32.755352020263672 15.199999809265137 -39.740516662597656
v 32.755352020263672 5.5669116973876953 -39.740516662597656
v 32.755352020263672 15.199999809265137 -41.959320068359375
v 32.755352020263672 5.5669116973876953 -41.959320068359375
v 63.169635772705078 15.199999809265137 -41.959320068359375
v 63.169635772705078 5.5669116973876953 -41.959320068359375
v 63.169635772705078 15.199999809265137 -39.740516662597656
v 63.169635772705078 5.5669116973876953 -39.740516662597656
f 1 7 5 3
f 6 8 2 4
f 1 3 4 2
f 3 5 6 4
f 5 7 8 6
f 7 1 2 8
g object_2
v 58.53802490234375 0 -72.148872375488281
v 58.53802490234375 19 -72.148872375488281
v 61.411106109619141 0 -72.148872375488281
v 61.411106109619141 19 -72.148872375488281
v 61.411106109619141 0 -75.862693786621094
v 61.411106109619141 19 -75.862693786621094
v 76.926918029785156 0 -75.862693786621094
v 76.926918029785156 19 -75.862693786621094
v 76.926918029785156 0 -77.429573059082031
v 76.926918029785156 19 -77.429573059082031
v 58.53802490234375 0 -77.429573059082031
v 58.53802490234375 19 -77.429573059082031
f 13 11 9 19 17 15
f 20 10 12 14 16 18
f 10 9 11 12
f 12 11 13 14
f 14 13 15 16
f 16 15 17 18
f 18 17 19 20
f 20 19 9 10
g object_3
v 63.169635772705078 15.199999809265137 -33.870800018310547
v 63.169635772705078 0 -33.870800018310547
v 63.169635772705078 15.199999809265137 -41.959320068359375
v 63.169635772705078 0 -41.959320068359375
v 77.511970520019531 15.199999809265137 -41.959320068359375
v 77.511970520019531 0 -41.959320068359375
v 77.511970520019531 15.199999809265137 -33.870800018310547
v 77.511970520019531 0 -33.870800018310547
f 22 21 23 24
f 24 23 25 26
f 26 25 27 28
f 28 27 21 22
f 25 23 21 27
f 26 28 22 24
g object_4
v 24.364704132080078 0 -34.097831726074219
v 24.364704132080078 18 -34.097831726074219
v 32.755352020263672 0 -34.097831726074219
v 32.755352020263672 18 -34.097831726074219
v 32.755352020263672 0 -39.740516662597656
v 32.755352020263672 18 -39.740516662597656
v 24.364704132080078 0 -39.740516662597656
v 24.364704132080078 18 -39.740516662597656
f 30 29 31 32
f 32 31 33 34
f 34 33 35 36
f 36 35 29 30
f 35 33 31 29
f 36 30 32 34
g object_5
v 21.14453125 0 -19.427404403686523
v 21.14453125 15.199999809265137 -19.427404403686523
v 24.364704132080078 0 -19.427404403686523
v 24.364704132080078 15.199999809265137 -19.427404403686523
v 24.364704132080078 0 -39.740516662597656
v 24.364704132080078 15.199999809265137 -39.740516662597656
v 32.755352020263672 0 -39.740516662597656
v 32.755352020263672 15.199999809265137 -39.740516662597656
v 32.755352020263672 0 -41.43304443359375
v 32.755352020263672 15.199999809265137 -41.43304443359375
v 21.14453125 0 -41.43304443359375
v 21.14453125 15.199999809265137 -41.43304443359375
f 41 39 37 47 45 43
f 48 38 40 42 44 46
f 38 37 39 40
f 40 39 41 42
f 42 41 43 44
f 44 43 45 46
f 46 45 47 48
f 48 47 37 38
