# Rhino

g object_1
v 106.54885864257812 0 -84.687553405761719
v 106.54885864257812 0 -91.947090148925781
v 114.99953460693359 0 -84.687553405761719
v 114.99953460693359 0 -91.947090148925781
v 106.54885864257812 -6 -84.687553405761719
v 114.99953460693359 -6 -84.687553405761719
v 114.99953460693359 -6 -91.947090148925781
v 106.54885864257812 -6 -91.947090148925781
f 2 1 3 4
f 3 1 5 6
f 4 3 6 7
f 2 4 7 8
f 1 2 8 5
f 8 7 6 5
g object_2
v 106.54885864257812 0 -77.428016662597656
v 106.54885864257812 0 -84.687553405761719
v 114.99953460693359 0 -77.428016662597656
v 114.99953460693359 0 -84.687553405761719
v 106.54885864257812 -6 -77.428016662597656
v 114.99953460693359 -6 -77.428016662597656
v 114.99953460693359 -6 -84.687553405761719
v 106.54885864257812 -6 -84.687553405761719
f 10 9 11 12
f 11 9 13 14
f 12 11 14 15
f 10 12 15 16
f 9 10 16 13
f 16 15 14 13
g object_3
v 106.54885864257812 0 -70.168479919433594
v 106.54885864257812 0 -77.428016662597656
v 114.99953460693359 0 -70.168479919433594
v 114.99953460693359 0 -77.428016662597656
v 106.54885864257812 -6 -70.168479919433594
v 114.99953460693359 -6 -70.168479919433594
v 114.99953460693359 -6 -77.428016662597656
v 106.54885864257812 -6 -77.428016662597656
f 18 17 19 20
f 19 17 21 22
f 20 19 22 23
f 18 20 23 24
f 17 18 24 21
f 24 23 22 21
g object_4
v 106.54885864257812 0 -62.908946990966797
v 106.54885864257812 0 -70.168479919433594
v 114.99953460693359 0 -62.908946990966797
v 114.99953460693359 0 -70.168479919433594
v 106.54885864257812 -6 -62.908946990966797
v 114.99953460693359 -6 -62.908946990966797
v 114.99953460693359 -6 -70.168479919433594
v 106.54885864257812 -6 -70.168479919433594
f 26 25 27 28
f 27 25 29 30
f 28 27 30 31
f 26 28 31 32
f 25 26 32 29
f 32 31 30 29
g object_5
v 106.54885864257812 0 -55.649410247802734
v 106.54885864257812 0 -62.908946990966797
v 114.99953460693359 0 -55.649410247802734
v 114.99953460693359 0 -62.908946990966797
v 106.54885864257812 -6 -55.649410247802734
v 114.99953460693359 -6 -55.649410247802734
v 114.99953460693359 -6 -62.908946990966797
v 106.54885864257812 -6 -62.908946990966797
f 34 33 35 36
f 35 33 37 38
f 36 35 38 39
f 34 36 39 40
f 33 34 40 37
f 40 39 38 37
g object_6
v 106.54885864257812 0 -48.389873504638672
v 106.54885864257812 0 -55.649410247802734
v 114.99953460693359 0 -48.389873504638672
v 114.99953460693359 0 -55.649410247802734
v 106.54885864257812 -6 -48.389873504638672
v 114.99953460693359 -6 -48.389873504638672
v 114.99953460693359 -6 -55.649410247802734
v 106.54885864257812 -6 -55.649410247802734
f 42 41 43 44
f 43 41 45 46
f 44 43 46 47
f 42 44 47 48
f 41 42 48 45
f 48 47 46 45
g object_7
v 106.54885864257812 0 -41.130336761474609
v 106.54885864257812 0 -48.389873504638672
v 114.99953460693359 0 -41.130336761474609
v 114.99953460693359 0 -48.389873504638672
v 106.54885864257812 -6 -41.130336761474609
v 114.99953460693359 -6 -41.130336761474609
v 114.99953460693359 -6 -48.389873504638672
v 106.54885864257812 -6 -48.389873504638672
f 50 49 51 52
f 51 49 53 54
f 52 51 54 55
f 50 52 55 56
f 49 50 56 53
f 56 55 54 53
g object_8
v 106.54885864257812 0 -33.870800018310547
v 106.54885864257812 0 -41.130336761474609
v 114.99953460693359 0 -33.870800018310547
v 114.99953460693359 0 -41.130336761474609
v 106.54885864257812 -6 -33.870800018310547
v 114.99953460693359 -6 -33.870800018310547
v 114.99953460693359 -6 -41.130336761474609
v 106.54885864257812 -6 -41.130336761474609
f 58 57 59 60
f 59 57 61 62
f 60 59 62 63
f 58 60 63 64
f 57 58 64 61
f 64 63 62 61
g object_9
v 106.54885864257812 0 -26.611263275146484
v 106.54885864257812 0 -33.870800018310547
v 114.99953460693359 0 -26.611263275146484
v 114.99953460693359 0 -33.870800018310547
v 106.54885864257812 -6 -26.611263275146484
v 114.99953460693359 -6 -26.611263275146484
v 114.99953460693359 -6 -33.870800018310547
v 106.54885864257812 -6 -33.870800018310547
f 66 65 67 68
f 67 65 69 70
f 68 67 70 71
f 66 68 71 72
f 65 66 72 69
f 72 71 70 69
g object_10
v 106.54885864257812 0 -19.351726531982422
v 106.54885864257812 0 -26.611263275146484
v 114.99953460693359 0 -19.351726531982422
v 114.99953460693359 0 -26.611263275146484
v 106.54885864257812 -6 -19.351726531982422
v 114.99953460693359 -6 -19.351726531982422
v 114.99953460693359 -6 -26.611263275146484
v 106.54885864257812 -6 -26.611263275146484
f 74 73 75 76
f 75 73 77 78
f 76 75 78 79
f 74 76 79 80
f 73 74 80 77
f 80 79 78 77
g object_11
v 106.54885864257812 0 -12.092188835144043
v 106.54885864257812 0 -19.351726531982422
v 114.99953460693359 0 -12.092188835144043
v 114.99953460693359 0 -19.351726531982422
v 106.54885864257812 -6 -12.092188835144043
v 114.99953460693359 -6 -12.092188835144043
v 114.99953460693359 -6 -19.351726531982422
v 106.54885864257812 -6 -19.351726531982422
f 82 81 83 84
f 83 81 85 86
f 84 83 86 87
f 82 84 87 88
f 81 82 88 85
f 88 87 86 85
g object_12
v 106.54885864257812 0 -4.8326525688171387
v 106.54885864257812 0 -12.092188835144043
v 114.99953460693359 0 -4.8326525688171387
v 114.99953460693359 0 -12.092188835144043
v 106.54885864257812 -6 -4.8326525688171387
v 114.99953460693359 -6 -4.8326525688171387
v 114.99953460693359 -6 -12.092188835144043
v 106.54885864257812 -6 -12.092188835144043
f 90 89 91 92
f 91 89 93 94
f 92 91 94 95
f 90 92 95 96
f 89 90 96 93
f 96 95 94 93
g object_13
v 98.098175048828125 0 -84.687553405761719
v 98.098175048828125 0 -91.947090148925781
v 106.54885864257812 0 -84.687553405761719
v 106.54885864257812 0 -91.947090148925781
v 98.098175048828125 -6 -84.687553405761719
v 106.54885864257812 -6 -84.687553405761719
v 106.54885864257812 -6 -91.947090148925781
v 98.098175048828125 -6 -91.947090148925781
f 98 97 99 100
f 99 97 101 102
f 100 99 102 103
f 98 100 103 104
f 97 98 104 101
f 104 103 102 101
g object_14
v 98.098175048828125 0 -77.428016662597656
v 98.098175048828125 0 -84.687553405761719
v 106.54885864257812 0 -77.428016662597656
v 106.54885864257812 0 -84.687553405761719
v 98.098175048828125 -6 -77.428016662597656
v 106.54885864257812 -6 -77.428016662597656
v 106.54885864257812 -6 -84.687553405761719
v 98.098175048828125 -6 -84.687553405761719
f 106 105 107 108
f 107 105 109 110
f 108 107 110 111
f 106 108 111 112
f 105 106 112 109
f 112 111 110 109
g object_15
v 98.098175048828125 0 -70.168479919433594
v 98.098175048828125 0 -77.428016662597656
v 106.54885864257812 0 -70.168479919433594
v 106.54885864257812 0 -77.428016662597656
v 98.098175048828125 -6 -70.168479919433594
v 106.54885864257812 -6 -70.168479919433594
v 106.54885864257812 -6 -77.428016662597656
v 98.098175048828125 -6 -77.428016662597656
f 114 113 115 116
f 115 113 117 118
f 116 115 118 119
f 114 116 119 120
f 113 114 120 117
f 120 119 118 117
g object_16
v 98.098175048828125 0 -62.908946990966797
v 98.098175048828125 0 -70.168479919433594
v 106.54885864257812 0 -62.908946990966797
v 106.54885864257812 0 -70.168479919433594
v 98.098175048828125 -6 -62.908946990966797
v 106.54885864257812 -6 -62.908946990966797
v 106.54885864257812 -6 -70.168479919433594
v 98.098175048828125 -6 -70.168479919433594
f 122 121 123 124
f 123 121 125 126
f 124 123 126 127
f 122 124 127 128
f 121 122 128 125
f 128 127 126 125
g object_17
v 98.098175048828125 0 -55.649410247802734
v 98.098175048828125 0 -62.908946990966797
v 106.54885864257812 0 -55.649410247802734
v 106.54885864257812 0 -62.908946990966797
v 98.098175048828125 -6 -55.649410247802734
v 106.54885864257812 -6 -55.649410247802734
v 106.54885864257812 -6 -62.908946990966797
v 98.098175048828125 -6 -62.908946990966797
f 130 129 131 132
f 131 129 133 134
f 132 131 134 135
f 130 132 135 136
f 129 130 136 133
f 136 135 134 133
g object_18
v 98.098175048828125 0 -48.389873504638672
v 98.098175048828125 0 -55.649410247802734
v 106.54885864257812 0 -48.389873504638672
v 106.54885864257812 0 -55.649410247802734
v 98.098175048828125 -6 -48.389873504638672
v 106.54885864257812 -6 -48.389873504638672
v 106.54885864257812 -6 -55.649410247802734
v 98.098175048828125 -6 -55.649410247802734
f 138 137 139 140
f 139 137 141 142
f 140 139 142 143
f 138 140 143 144
f 137 138 144 141
f 144 143 142 141
g object_19
v 98.098175048828125 0 -41.130336761474609
v 98.098175048828125 0 -48.389873504638672
v 106.54885864257812 0 -41.130336761474609
v 106.54885864257812 0 -48.389873504638672
v 98.098175048828125 -6 -41.130336761474609
v 106.54885864257812 -6 -41.130336761474609
v 106.54885864257812 -6 -48.389873504638672
v 98.098175048828125 -6 -48.389873504638672
f 146 145 147 148
f 147 145 149 150
f 148 147 150 151
f 146 148 151 152
f 145 146 152 149
f 152 151 150 149
g object_20
v 98.098175048828125 0 -33.870800018310547
v 98.098175048828125 0 -41.130336761474609
v 106.54885864257812 0 -33.870800018310547
v 106.54885864257812 0 -41.130336761474609
v 98.098175048828125 -6 -33.870800018310547
v 106.54885864257812 -6 -33.870800018310547
v 106.54885864257812 -6 -41.130336761474609
v 98.098175048828125 -6 -41.130336761474609
f 154 153 155 156
f 155 153 157 158
f 156 155 158 159
f 154 156 159 160
f 153 154 160 157
f 160 159 158 157
g object_21
v 98.098175048828125 0 -26.611263275146484
v 98.098175048828125 0 -33.870800018310547
v 106.54885864257812 0 -26.611263275146484
v 106.54885864257812 0 -33.870800018310547
v 98.098175048828125 -6 -26.611263275146484
v 106.54885864257812 -6 -26.611263275146484
v 106.54885864257812 -6 -33.870800018310547
v 98.098175048828125 -6 -33.870800018310547
f 162 161 163 164
f 163 161 165 166
f 164 163 166 167
f 162 164 167 168
f 161 162 168 165
f 168 167 166 165
g object_22
v 98.098175048828125 0 -19.351726531982422
v 98.098175048828125 0 -26.611263275146484
v 106.54885864257812 0 -19.351726531982422
v 106.54885864257812 0 -26.611263275146484
v 98.098175048828125 -6 -19.351726531982422
v 106.54885864257812 -6 -19.351726531982422
v 106.54885864257812 -6 -26.611263275146484
v 98.098175048828125 -6 -26.611263275146484
f 170 169 171 172
f 171 169 173 174
f 172 171 174 175
f 170 172 175 176
f 169 170 176 173
f 176 175 174 173
g object_23
v 98.098175048828125 0 -12.092188835144043
v 98.098175048828125 0 -19.351726531982422
v 106.54885864257812 0 -12.092188835144043
v 106.54885864257812 0 -19.351726531982422
v 98.098175048828125 -6 -12.092188835144043
v 106.54885864257812 -6 -12.092188835144043
v 106.54885864257812 -6 -19.351726531982422
v 98.098175048828125 -6 -19.351726531982422
f 178 177 179 180
f 179 177 181 182
f 180 179 182 183
f 178 180 183 184
f 177 178 184 181
f 184 183 182 181
g object_24
v 98.098175048828125 0 -4.8326525688171387
v 98.098175048828125 0 -12.092188835144043
v 106.54885864257812 0 -4.8326525688171387
v 106.54885864257812 0 -12.092188835144043
v 98.098175048828125 -6 -4.8326525688171387
v 106.54885864257812 -6 -4.8326525688171387
v 106.54885864257812 -6 -12.092188835144043
v 98.098175048828125 -6 -12.092188835144043
f 186 185 187 188
f 187 185 189 190
f 188 187 190 191
f 186 188 191 192
f 185 186 192 189
f 192 191 190 189
g object_25
v 89.647499084472656 0 -84.687553405761719
v 89.647499084472656 0 -91.947090148925781
v 98.098175048828125 0 -84.687553405761719
v 98.098175048828125 0 -91.947090148925781
v 89.647499084472656 -6 -84.687553405761719
v 98.098175048828125 -6 -84.687553405761719
v 98.098175048828125 -6 -91.947090148925781
v 89.647499084472656 -6 -91.947090148925781
f 194 193 195 196
f 195 193 197 198
f 196 195 198 199
f 194 196 199 200
f 193 194 200 197
f 200 199 198 197
g object_26
v 89.647499084472656 0 -77.428016662597656
v 89.647499084472656 0 -84.687553405761719
v 98.098175048828125 0 -77.428016662597656
v 98.098175048828125 0 -84.687553405761719
v 89.647499084472656 -6 -77.428016662597656
v 98.098175048828125 -6 -77.428016662597656
v 98.098175048828125 -6 -84.687553405761719
v 89.647499084472656 -6 -84.687553405761719
f 202 201 203 204
f 203 201 205 206
f 204 203 206 207
f 202 204 207 208
f 201 202 208 205
f 208 207 206 205
g object_27
v 89.647499084472656 0 -70.168479919433594
v 89.647499084472656 0 -77.428016662597656
v 98.098175048828125 0 -70.168479919433594
v 98.098175048828125 0 -77.428016662597656
v 89.647499084472656 -6 -70.168479919433594
v 98.098175048828125 -6 -70.168479919433594
v 98.098175048828125 -6 -77.428016662597656
v 89.647499084472656 -6 -77.428016662597656
f 210 209 211 212
f 211 209 213 214
f 212 211 214 215
f 210 212 215 216
f 209 210 216 213
f 216 215 214 213
g object_28
v 89.647499084472656 0 -62.908946990966797
v 89.647499084472656 0 -70.168479919433594
v 98.098175048828125 0 -62.908946990966797
v 98.098175048828125 0 -70.168479919433594
v 89.647499084472656 -6 -62.908946990966797
v 98.098175048828125 -6 -62.908946990966797
v 98.098175048828125 -6 -70.168479919433594
v 89.647499084472656 -6 -70.168479919433594
f 218 217 219 220
f 219 217 221 222
f 220 219 222 223
f 218 220 223 224
f 217 218 224 221
f 224 223 222 221
g object_29
v 89.647499084472656 0 -55.649410247802734
v 89.647499084472656 0 -62.908946990966797
v 98.098175048828125 0 -55.649410247802734
v 98.098175048828125 0 -62.908946990966797
v 89.647499084472656 -6 -55.649410247802734
v 98.098175048828125 -6 -55.649410247802734
v 98.098175048828125 -6 -62.908946990966797
v 89.647499084472656 -6 -62.908946990966797
f 226 225 227 228
f 227 225 229 230
f 228 227 230 231
f 226 228 231 232
f 225 226 232 229
f 232 231 230 229
g object_30
v 89.647499084472656 0 -48.389873504638672
v 89.647499084472656 0 -55.649410247802734
v 98.098175048828125 0 -48.389873504638672
v 98.098175048828125 0 -55.649410247802734
v 89.647499084472656 -6 -48.389873504638672
v 98.098175048828125 -6 -48.389873504638672
v 98.098175048828125 -6 -55.649410247802734
v 89.647499084472656 -6 -55.649410247802734
f 234 233 235 236
f 235 233 237 238
f 236 235 238 239
f 234 236 239 240
f 233 234 240 237
f 240 239 238 237
g object_31
v 89.647499084472656 0 -41.130336761474609
v 89.647499084472656 0 -48.389873504638672
v 98.098175048828125 0 -41.130336761474609
v 98.098175048828125 0 -48.389873504638672
v 89.647499084472656 -6 -41.130336761474609
v 98.098175048828125 -6 -41.130336761474609
v 98.098175048828125 -6 -48.389873504638672
v 89.647499084472656 -6 -48.389873504638672
f 242 241 243 244
f 243 241 245 246
f 244 243 246 247
f 242 244 247 248
f 241 242 248 245
f 248 247 246 245
g object_32
v 89.647499084472656 0 -33.870800018310547
v 89.647499084472656 0 -41.130336761474609
v 98.098175048828125 0 -33.870800018310547
v 98.098175048828125 0 -41.130336761474609
v 89.647499084472656 -6 -33.870800018310547
v 98.098175048828125 -6 -33.870800018310547
v 98.098175048828125 -6 -41.130336761474609
v 89.647499084472656 -6 -41.130336761474609
f 250 249 251 252
f 251 249 253 254
f 252 251 254 255
f 250 252 255 256
f 249 250 256 253
f 256 255 254 253
g object_33
v 89.647499084472656 0 -26.611263275146484
v 89.647499084472656 0 -33.870800018310547
v 98.098175048828125 0 -26.611263275146484
v 98.098175048828125 0 -33.870800018310547
v 89.647499084472656 -6 -26.611263275146484
v 98.098175048828125 -6 -26.611263275146484
v 98.098175048828125 -6 -33.870800018310547
v 89.647499084472656 -6 -33.870800018310547
f 258 257 259 260
f 259 257 261 262
f 260 259 262 263
f 258 260 263 264
f 257 258 264 261
f 264 263 262 261
g object_34
v 89.647499084472656 0 -19.351726531982422
v 89.647499084472656 0 -26.611263275146484
v 98.098175048828125 0 -19.351726531982422
v 98.098175048828125 0 -26.611263275146484
v 89.647499084472656 -6 -19.351726531982422
v 98.098175048828125 -6 -19.351726531982422
v 98.098175048828125 -6 -26.611263275146484
v 89.647499084472656 -6 -26.611263275146484
f 266 265 267 268
f 267 265 269 270
f 268 267 270 271
f 266 268 271 272
f 265 266 272 269
f 272 271 270 269
g object_35
v 89.647499084472656 0 -12.092188835144043
v 89.647499084472656 0 -19.351726531982422
v 98.098175048828125 0 -12.092188835144043
v 98.098175048828125 0 -19.351726531982422
v 89.647499084472656 -6 -12.092188835144043
v 98.098175048828125 -6 -12.092188835144043
v 98.098175048828125 -6 -19.351726531982422
v 89.647499084472656 -6 -19.351726531982422
f 274 273 275 276
f 275 273 277 278
f 276 275 278 279
f 274 276 279 280
f 273 274 280 277
f 280 279 278 277
g object_36
v 89.647499084472656 0 -4.8326525688171387
v 89.647499084472656 0 -12.092188835144043
v 98.098175048828125 0 -4.8326525688171387
v 98.098175048828125 0 -12.092188835144043
v 89.647499084472656 -6 -4.8326525688171387
v 98.098175048828125 -6 -4.8326525688171387
v 98.098175048828125 -6 -12.092188835144043
v 89.647499084472656 -6 -12.092188835144043
f 282 281 283 284
f 283 281 285 286
f 284 283 286 287
f 282 284 287 288
f 281 282 288 285
f 288 287 286 285
g object_37
v 81.196815490722656 0 -84.687553405761719
v 81.196815490722656 0 -91.947090148925781
v 89.647499084472656 0 -84.687553405761719
v 89.647499084472656 0 -91.947090148925781
v 81.196815490722656 -6 -84.687553405761719
v 89.647499084472656 -6 -84.687553405761719
v 89.647499084472656 -6 -91.947090148925781
v 81.196815490722656 -6 -91.947090148925781
f 290 289 291 292
f 291 289 293 294
f 292 291 294 295
f 290 292 295 296
f 289 290 296 293
f 296 295 294 293
g object_38
v 81.196815490722656 0 -77.428016662597656
v 81.196815490722656 0 -84.687553405761719
v 89.647499084472656 0 -77.428016662597656
v 89.647499084472656 0 -84.687553405761719
v 81.196815490722656 -6 -77.428016662597656
v 89.647499084472656 -6 -77.428016662597656
v 89.647499084472656 -6 -84.687553405761719
v 81.196815490722656 -6 -84.687553405761719
f 298 297 299 300
f 299 297 301 302
f 300 299 302 303
f 298 300 303 304
f 297 298 304 301
f 304 303 302 301
g object_39
v 81.196815490722656 0 -70.168479919433594
v 81.196815490722656 0 -77.428016662597656
v 89.647499084472656 0 -70.168479919433594
v 89.647499084472656 0 -77.428016662597656
v 81.196815490722656 -6 -70.168479919433594
v 89.647499084472656 -6 -70.168479919433594
v 89.647499084472656 -6 -77.428016662597656
v 81.196815490722656 -6 -77.428016662597656
f 306 305 307 308
f 307 305 309 310
f 308 307 310 311
f 306 308 311 312
f 305 306 312 309
f 312 311 310 309
g object_40
v 81.196815490722656 0 -62.908946990966797
v 81.196815490722656 0 -70.168479919433594
v 89.647499084472656 0 -62.908946990966797
v 89.647499084472656 0 -70.168479919433594
v 81.196815490722656 -6 -62.908946990966797
v 89.647499084472656 -6 -62.908946990966797
v 89.647499084472656 -6 -70.168479919433594
v 81.196815490722656 -6 -70.168479919433594
f 314 313 315 316
f 315 313 317 318
f 316 315 318 319
f 314 316 319 320
f 313 314 320 317
f 320 319 318 317
g object_41
v 81.196815490722656 0 -55.649410247802734
v 81.196815490722656 0 -62.908946990966797
v 89.647499084472656 0 -55.649410247802734
v 89.647499084472656 0 -62.908946990966797
v 81.196815490722656 -6 -55.649410247802734
v 89.647499084472656 -6 -55.649410247802734
v 89.647499084472656 -6 -62.908946990966797
v 81.196815490722656 -6 -62.908946990966797
f 322 321 323 324
f 323 321 325 326
f 324 323 326 327
f 322 324 327 328
f 321 322 328 325
f 328 327 326 325
g object_42
v 81.196815490722656 0 -48.389873504638672
v 81.196815490722656 0 -55.649410247802734
v 89.647499084472656 0 -48.389873504638672
v 89.647499084472656 0 -55.649410247802734
v 81.196815490722656 -6 -48.389873504638672
v 89.647499084472656 -6 -48.389873504638672
v 89.647499084472656 -6 -55.649410247802734
v 81.196815490722656 -6 -55.649410247802734
f 330 329 331 332
f 331 329 333 334
f 332 331 334 335
f 330 332 335 336
f 329 330 336 333
f 336 335 334 333
g object_43
v 81.196815490722656 0 -41.130336761474609
v 81.196815490722656 0 -48.389873504638672
v 89.647499084472656 0 -41.130336761474609
v 89.647499084472656 0 -48.389873504638672
v 81.196815490722656 -6 -41.130336761474609
v 89.647499084472656 -6 -41.130336761474609
v 89.647499084472656 -6 -48.389873504638672
v 81.196815490722656 -6 -48.389873504638672
f 338 337 339 340
f 339 337 341 342
f 340 339 342 343
f 338 340 343 344
f 337 338 344 341
f 344 343 342 341
g object_44
v 81.196815490722656 0 -33.870800018310547
v 81.196815490722656 0 -41.130336761474609
v 89.647499084472656 0 -33.870800018310547
v 89.647499084472656 0 -41.130336761474609
v 81.196815490722656 -6 -33.870800018310547
v 89.647499084472656 -6 -33.870800018310547
v 89.647499084472656 -6 -41.130336761474609
v 81.196815490722656 -6 -41.130336761474609
f 346 345 347 348
f 347 345 349 350
f 348 347 350 351
f 346 348 351 352
f 345 346 352 349
f 352 351 350 349
g object_45
v 81.196815490722656 0 -26.611263275146484
v 81.196815490722656 0 -33.870800018310547
v 89.647499084472656 0 -26.611263275146484
v 89.647499084472656 0 -33.870800018310547
v 81.196815490722656 -6 -26.611263275146484
v 89.647499084472656 -6 -26.611263275146484
v 89.647499084472656 -6 -33.870800018310547
v 81.196815490722656 -6 -33.870800018310547
f 354 353 355 356
f 355 353 357 358
f 356 355 358 359
f 354 356 359 360
f 353 354 360 357
f 360 359 358 357
g object_46
v 81.196815490722656 0 -19.351726531982422
v 81.196815490722656 0 -26.611263275146484
v 89.647499084472656 0 -19.351726531982422
v 89.647499084472656 0 -26.611263275146484
v 81.196815490722656 -6 -19.351726531982422
v 89.647499084472656 -6 -19.351726531982422
v 89.647499084472656 -6 -26.611263275146484
v 81.196815490722656 -6 -26.611263275146484
f 362 361 363 364
f 363 361 365 366
f 364 363 366 367
f 362 364 367 368
f 361 362 368 365
f 368 367 366 365
g object_47
v 81.196815490722656 0 -12.092188835144043
v 81.196815490722656 0 -19.351726531982422
v 89.647499084472656 0 -12.092188835144043
v 89.647499084472656 0 -19.351726531982422
v 81.196815490722656 -6 -12.092188835144043
v 89.647499084472656 -6 -12.092188835144043
v 89.647499084472656 -6 -19.351726531982422
v 81.196815490722656 -6 -19.351726531982422
f 370 369 371 372
f 371 369 373 374
f 372 371 374 375
f 370 372 375 376
f 369 370 376 373
f 376 375 374 373
g object_48
v 81.196815490722656 0 -4.8326525688171387
v 81.196815490722656 0 -12.092188835144043
v 89.647499084472656 0 -4.8326525688171387
v 89.647499084472656 0 -12.092188835144043
v 81.196815490722656 -6 -4.8326525688171387
v 89.647499084472656 -6 -4.8326525688171387
v 89.647499084472656 -6 -12.092188835144043
v 81.196815490722656 -6 -12.092188835144043
f 378 377 379 380
f 379 377 381 382
f 380 379 382 383
f 378 380 383 384
f 377 378 384 381
f 384 383 382 381
g object_49
v 72.746139526367188 0 -84.687553405761719
v 72.746139526367188 0 -91.947090148925781
v 81.196815490722656 0 -84.687553405761719
v 81.196815490722656 0 -91.947090148925781
v 72.746139526367188 -6 -84.687553405761719
v 81.196815490722656 -6 -84.687553405761719
v 81.196815490722656 -6 -91.947090148925781
v 72.746139526367188 -6 -91.947090148925781
f 386 385 387 388
f 387 385 389 390
f 388 387 390 391
f 386 388 391 392
f 385 386 392 389
f 392 391 390 389
g object_50
v 72.746139526367188 0 -77.428016662597656
v 72.746139526367188 0 -84.687553405761719
v 81.196815490722656 0 -77.428016662597656
v 81.196815490722656 0 -84.687553405761719
v 72.746139526367188 -6 -77.428016662597656
v 81.196815490722656 -6 -77.428016662597656
v 81.196815490722656 -6 -84.687553405761719
v 72.746139526367188 -6 -84.687553405761719
f 394 393 395 396
f 395 393 397 398
f 396 395 398 399
f 394 396 399 400
f 393 394 400 397
f 400 399 398 397
g object_51
v 72.746139526367188 0 -70.168479919433594
v 72.746139526367188 0 -77.428016662597656
v 81.196815490722656 0 -70.168479919433594
v 81.196815490722656 0 -77.428016662597656
v 72.746139526367188 -6 -70.168479919433594
v 81.196815490722656 -6 -70.168479919433594
v 81.196815490722656 -6 -77.428016662597656
v 72.746139526367188 -6 -77.428016662597656
f 402 401 403 404
f 403 401 405 406
f 404 403 406 407
f 402 404 407 408
f 401 402 408 405
f 408 407 406 405
g object_52
v 72.746139526367188 0 -62.908946990966797
v 72.746139526367188 0 -70.168479919433594
v 81.196815490722656 0 -62.908946990966797
v 81.196815490722656 0 -70.168479919433594
v 72.746139526367188 -6 -62.908946990966797
v 81.196815490722656 -6 -62.908946990966797
v 81.196815490722656 -6 -70.168479919433594
v 72.746139526367188 -6 -70.168479919433594
f 410 409 411 412
f 411 409 413 414
f 412 411 414 415
f 410 412 415 416
f 409 410 416 413
f 416 415 414 413
g object_53
v 72.746139526367188 0 -55.649410247802734
v 72.746139526367188 0 -62.908946990966797
v 81.196815490722656 0 -55.649410247802734
v 81.196815490722656 0 -62.908946990966797
v 72.746139526367188 -6 -55.649410247802734
v 81.196815490722656 -6 -55.649410247802734
v 81.196815490722656 -6 -62.908946990966797
v 72.746139526367188 -6 -62.908946990966797
f 418 417 419 420
f 419 417 421 422
f 420 419 422 423
f 418 420 423 424
f 417 418 424 421
f 424 423 422 421
g object_54
v 72.746139526367188 0 -48.389873504638672
v 72.746139526367188 0 -55.649410247802734
v 81.196815490722656 0 -48.389873504638672
v 81.196815490722656 0 -55.649410247802734
v 72.746139526367188 -6 -48.389873504638672
v 81.196815490722656 -6 -48.389873504638672
v 81.196815490722656 -6 -55.649410247802734
v 72.746139526367188 -6 -55.649410247802734
f 426 425 427 428
f 427 425 429 430
f 428 427 430 431
f 426 428 431 432
f 425 426 432 429
f 432 431 430 429
g object_55
v 72.746139526367188 0 -41.130336761474609
v 72.746139526367188 0 -48.389873504638672
v 81.196815490722656 0 -41.130336761474609
v 81.196815490722656 0 -48.389873504638672
v 72.746139526367188 -6 -41.130336761474609
v 81.196815490722656 -6 -41.130336761474609
v 81.196815490722656 -6 -48.389873504638672
v 72.746139526367188 -6 -48.389873504638672
f 434 433 435 436
f 435 433 437 438
f 436 435 438 439
f 434 436 439 440
f 433 434 440 437
f 440 439 438 437
g object_56
v 72.746139526367188 0 -33.870800018310547
v 72.746139526367188 0 -41.130336761474609
v 81.196815490722656 0 -33.870800018310547
v 81.196815490722656 0 -41.130336761474609
v 72.746139526367188 -6 -33.870800018310547
v 81.196815490722656 -6 -33.870800018310547
v 81.196815490722656 -6 -41.130336761474609
v 72.746139526367188 -6 -41.130336761474609
f 442 441 443 444
f 443 441 445 446
f 444 443 446 447
f 442 444 447 448
f 441 442 448 445
f 448 447 446 445
g object_57
v 72.746139526367188 0 -26.611263275146484
v 72.746139526367188 0 -33.870800018310547
v 81.196815490722656 0 -26.611263275146484
v 81.196815490722656 0 -33.870800018310547
v 72.746139526367188 -6 -26.611263275146484
v 81.196815490722656 -6 -26.611263275146484
v 81.196815490722656 -6 -33.870800018310547
v 72.746139526367188 -6 -33.870800018310547
f 450 449 451 452
f 451 449 453 454
f 452 451 454 455
f 450 452 455 456
f 449 450 456 453
f 456 455 454 453
g object_58
v 72.746139526367188 0 -19.351726531982422
v 72.746139526367188 0 -26.611263275146484
v 81.196815490722656 0 -19.351726531982422
v 81.196815490722656 0 -26.611263275146484
v 72.746139526367188 -6 -19.351726531982422
v 81.196815490722656 -6 -19.351726531982422
v 81.196815490722656 -6 -26.611263275146484
v 72.746139526367188 -6 -26.611263275146484
f 458 457 459 460
f 459 457 461 462
f 460 459 462 463
f 458 460 463 464
f 457 458 464 461
f 464 463 462 461
g object_59
v 72.746139526367188 0 -12.092188835144043
v 72.746139526367188 0 -19.351726531982422
v 81.196815490722656 0 -12.092188835144043
v 81.196815490722656 0 -19.351726531982422
v 72.746139526367188 -6 -12.092188835144043
v 81.196815490722656 -6 -12.092188835144043
v 81.196815490722656 -6 -19.351726531982422
v 72.746139526367188 -6 -19.351726531982422
f 466 465 467 468
f 467 465 469 470
f 468 467 470 471
f 466 468 471 472
f 465 466 472 469
f 472 471 470 469
g object_60
v 72.746139526367188 0 -4.8326525688171387
v 72.746139526367188 0 -12.092188835144043
v 81.196815490722656 0 -4.8326525688171387
v 81.196815490722656 0 -12.092188835144043
v 72.746139526367188 -6 -4.8326525688171387
v 81.196815490722656 -6 -4.8326525688171387
v 81.196815490722656 -6 -12.092188835144043
v 72.746139526367188 -6 -12.092188835144043
f 474 473 475 476
f 475 473 477 478
f 476 475 478 479
f 474 476 479 480
f 473 474 480 477
f 480 479 478 477
g object_61
v 64.295455932617188 0 -84.687553405761719
v 64.295455932617188 0 -91.947090148925781
v 72.746139526367188 0 -84.687553405761719
v 72.746139526367188 0 -91.947090148925781
v 64.295455932617188 -6 -84.687553405761719
v 72.746139526367188 -6 -84.687553405761719
v 72.746139526367188 -6 -91.947090148925781
v 64.295455932617188 -6 -91.947090148925781
f 482 481 483 484
f 483 481 485 486
f 484 483 486 487
f 482 484 487 488
f 481 482 488 485
f 488 487 486 485
g object_62
v 64.295455932617188 0 -77.428016662597656
v 64.295455932617188 0 -84.687553405761719
v 72.746139526367188 0 -77.428016662597656
v 72.746139526367188 0 -84.687553405761719
v 64.295455932617188 -6 -77.428016662597656
v 72.746139526367188 -6 -77.428016662597656
v 72.746139526367188 -6 -84.687553405761719
v 64.295455932617188 -6 -84.687553405761719
f 490 489 491 492
f 491 489 493 494
f 492 491 494 495
f 490 492 495 496
f 489 490 496 493
f 496 495 494 493
g object_63
v 64.295455932617188 0 -70.168479919433594
v 64.295455932617188 0 -77.428016662597656
v 72.746139526367188 0 -70.168479919433594
v 72.746139526367188 0 -77.428016662597656
v 64.295455932617188 -6 -70.168479919433594
v 72.746139526367188 -6 -70.168479919433594
v 72.746139526367188 -6 -77.428016662597656
v 64.295455932617188 -6 -77.428016662597656
f 498 497 499 500
f 499 497 501 502
f 500 499 502 503
f 498 500 503 504
f 497 498 504 501
f 504 503 502 501
g object_64
v 64.295455932617188 0 -62.908946990966797
v 64.295455932617188 0 -70.168479919433594
v 72.746139526367188 0 -62.908946990966797
v 72.746139526367188 0 -70.168479919433594
v 64.295455932617188 -6 -62.908946990966797
v 72.746139526367188 -6 -62.908946990966797
v 72.746139526367188 -6 -70.168479919433594
v 64.295455932617188 -6 -70.168479919433594
f 506 505 507 508
f 507 505 509 510
f 508 507 510 511
f 506 508 511 512
f 505 506 512 509
f 512 511 510 509
g object_65
v 64.295455932617188 0 -55.649410247802734
v 64.295455932617188 0 -62.908946990966797
v 72.746139526367188 0 -55.649410247802734
v 72.746139526367188 0 -62.908946990966797
v 64.295455932617188 -6 -55.649410247802734
v 72.746139526367188 -6 -55.649410247802734
v 72.746139526367188 -6 -62.908946990966797
v 64.295455932617188 -6 -62.908946990966797
f 514 513 515 516
f 515 513 517 518
f 516 515 518 519
f 514 516 519 520
f 513 514 520 517
f 520 519 518 517
g object_66
v 64.295455932617188 0 -48.389873504638672
v 64.295455932617188 0 -55.649410247802734
v 72.746139526367188 0 -48.389873504638672
v 72.746139526367188 0 -55.649410247802734
v 64.295455932617188 -6 -48.389873504638672
v 72.746139526367188 -6 -48.389873504638672
v 72.746139526367188 -6 -55.649410247802734
v 64.295455932617188 -6 -55.649410247802734
f 522 521 523 524
f 523 521 525 526
f 524 523 526 527
f 522 524 527 528
f 521 522 528 525
f 528 527 526 525
g object_67
v 64.295455932617188 0 -41.130336761474609
v 64.295455932617188 0 -48.389873504638672
v 72.746139526367188 0 -41.130336761474609
v 72.746139526367188 0 -48.389873504638672
v 64.295455932617188 -6 -41.130336761474609
v 72.746139526367188 -6 -41.130336761474609
v 72.746139526367188 -6 -48.389873504638672
v 64.295455932617188 -6 -48.389873504638672
f 530 529 531 532
f 531 529 533 534
f 532 531 534 535
f 530 532 535 536
f 529 530 536 533
f 536 535 534 533
g object_68
v 64.295455932617188 0 -33.870800018310547
v 64.295455932617188 0 -41.130336761474609
v 72.746139526367188 0 -33.870800018310547
v 72.746139526367188 0 -41.130336761474609
v 64.295455932617188 -6 -33.870800018310547
v 72.746139526367188 -6 -33.870800018310547
v 72.746139526367188 -6 -41.130336761474609
v 64.295455932617188 -6 -41.130336761474609
f 538 537 539 540
f 539 537 541 542
f 540 539 542 543
f 538 540 543 544
f 537 538 544 541
f 544 543 542 541
g object_69
v 64.295455932617188 0 -26.611263275146484
v 64.295455932617188 0 -33.870800018310547
v 72.746139526367188 0 -26.611263275146484
v 72.746139526367188 0 -33.870800018310547
v 64.295455932617188 -6 -26.611263275146484
v 72.746139526367188 -6 -26.611263275146484
v 72.746139526367188 -6 -33.870800018310547
v 64.295455932617188 -6 -33.870800018310547
f 546 545 547 548
f 547 545 549 550
f 548 547 550 551
f 546 548 551 552
f 545 546 552 549
f 552 551 550 549
g object_70
v 64.295455932617188 0 -19.351726531982422
v 64.295455932617188 0 -26.611263275146484
v 72.746139526367188 0 -19.351726531982422
v 72.746139526367188 0 -26.611263275146484
v 64.295455932617188 -6 -19.351726531982422
v 72.746139526367188 -6 -19.351726531982422
v 72.746139526367188 -6 -26.611263275146484
v 64.295455932617188 -6 -26.611263275146484
f 554 553 555 556
f 555 553 557 558
f 556 555 558 559
f 554 556 559 560
f 553 554 560 557
f 560 559 558 557
g object_71
v 64.295455932617188 0 -12.092188835144043
v 64.295455932617188 0 -19.351726531982422
v 72.746139526367188 0 -12.092188835144043
v 72.746139526367188 0 -19.351726531982422
v 64.295455932617188 -6 -12.092188835144043
v 72.746139526367188 -6 -12.092188835144043
v 72.746139526367188 -6 -19.351726531982422
v 64.295455932617188 -6 -19.351726531982422
f 562 561 563 564
f 563 561 565 566
f 564 563 566 567
f 562 564 567 568
f 561 562 568 565
f 568 567 566 565
g object_72
v 64.295455932617188 0 -4.8326525688171387
v 64.295455932617188 0 -12.092188835144043
v 72.746139526367188 0 -4.8326525688171387
v 72.746139526367188 0 -12.092188835144043
v 64.295455932617188 -6 -4.8326525688171387
v 72.746139526367188 -6 -4.8326525688171387
v 72.746139526367188 -6 -12.092188835144043
v 64.295455932617188 -6 -12.092188835144043
f 570 569 571 572
f 571 569 573 574
f 572 571 574 575
f 570 572 575 576
f 569 570 576 573
f 576 575 574 573
g object_73
v 55.844779968261719 0 -84.687553405761719
v 55.844779968261719 0 -91.947090148925781
v 64.295455932617188 0 -84.687553405761719
v 64.295455932617188 0 -91.947090148925781
v 55.844779968261719 -6 -84.687553405761719
v 64.295455932617188 -6 -84.687553405761719
v 64.295455932617188 -6 -91.947090148925781
v 55.844779968261719 -6 -91.947090148925781
f 578 577 579 580
f 579 577 581 582
f 580 579 582 583
f 578 580 583 584
f 577 578 584 581
f 584 583 582 581
g object_74
v 55.844779968261719 0 -77.428016662597656
v 55.844779968261719 0 -84.687553405761719
v 64.295455932617188 0 -77.428016662597656
v 64.295455932617188 0 -84.687553405761719
v 55.844779968261719 -6 -77.428016662597656
v 64.295455932617188 -6 -77.428016662597656
v 64.295455932617188 -6 -84.687553405761719
v 55.844779968261719 -6 -84.687553405761719
f 586 585 587 588
f 587 585 589 590
f 588 587 590 591
f 586 588 591 592
f 585 586 592 589
f 592 591 590 589
g object_75
v 55.844779968261719 0 -70.168479919433594
v 55.844779968261719 0 -77.428016662597656
v 64.295455932617188 0 -70.168479919433594
v 64.295455932617188 0 -77.428016662597656
v 55.844779968261719 -6 -70.168479919433594
v 64.295455932617188 -6 -70.168479919433594
v 64.295455932617188 -6 -77.428016662597656
v 55.844779968261719 -6 -77.428016662597656
f 594 593 595 596
f 595 593 597 598
f 596 595 598 599
f 594 596 599 600
f 593 594 600 597
f 600 599 598 597
g object_76
v 55.844779968261719 0 -62.908946990966797
v 55.844779968261719 0 -70.168479919433594
v 64.295455932617188 0 -62.908946990966797
v 64.295455932617188 0 -70.168479919433594
v 55.844779968261719 -6 -62.908946990966797
v 64.295455932617188 -6 -62.908946990966797
v 64.295455932617188 -6 -70.168479919433594
v 55.844779968261719 -6 -70.168479919433594
f 602 601 603 604
f 603 601 605 606
f 604 603 606 607
f 602 604 607 608
f 601 602 608 605
f 608 607 606 605
g object_77
v 55.844779968261719 0 -55.649410247802734
v 55.844779968261719 0 -62.908946990966797
v 64.295455932617188 0 -55.649410247802734
v 64.295455932617188 0 -62.908946990966797
v 55.844779968261719 -6 -55.649410247802734
v 64.295455932617188 -6 -55.649410247802734
v 64.295455932617188 -6 -62.908946990966797
v 55.844779968261719 -6 -62.908946990966797
f 610 609 611 612
f 611 609 613 614
f 612 611 614 615
f 610 612 615 616
f 609 610 616 613
f 616 615 614 613
g object_78
v 55.844779968261719 0 -48.389873504638672
v 55.844779968261719 0 -55.649410247802734
v 64.295455932617188 0 -48.389873504638672
v 64.295455932617188 0 -55.649410247802734
v 55.844779968261719 -6 -48.389873504638672
v 64.295455932617188 -6 -48.389873504638672
v 64.295455932617188 -6 -55.649410247802734
v 55.844779968261719 -6 -55.649410247802734
f 618 617 619 620
f 619 617 621 622
f 620 619 622 623
f 618 620 623 624
f 617 618 624 621
f 624 623 622 621
g object_79
v 55.844779968261719 0 -41.130336761474609
v 55.844779968261719 0 -48.389873504638672
v 64.295455932617188 0 -41.130336761474609
v 64.295455932617188 0 -48.389873504638672
v 55.844779968261719 -6 -41.130336761474609
v 64.295455932617188 -6 -41.130336761474609
v 64.295455932617188 -6 -48.389873504638672
v 55.844779968261719 -6 -48.389873504638672
f 626 625 627 628
f 627 625 629 630
f 628 627 630 631
f 626 628 631 632
f 625 626 632 629
f 632 631 630 629
g object_80
v 55.844779968261719 0 -33.870800018310547
v 55.844779968261719 0 -41.130336761474609
v 64.295455932617188 0 -33.870800018310547
v 64.295455932617188 0 -41.130336761474609
v 55.844779968261719 -6 -33.870800018310547
v 64.295455932617188 -6 -33.870800018310547
v 64.295455932617188 -6 -41.130336761474609
v 55.844779968261719 -6 -41.130336761474609
f 634 633 635 636
f 635 633 637 638
f 636 635 638 639
f 634 636 639 640
f 633 634 640 637
f 640 639 638 637
g object_81
v 55.844779968261719 0 -26.611263275146484
v 55.844779968261719 0 -33.870800018310547
v 64.295455932617188 0 -26.611263275146484
v 64.295455932617188 0 -33.870800018310547
v 55.844779968261719 -6 -26.611263275146484
v 64.295455932617188 -6 -26.611263275146484
v 64.295455932617188 -6 -33.870800018310547
v 55.844779968261719 -6 -33.870800018310547
f 642 641 643 644
f 643 641 645 646
f 644 643 646 647
f 642 644 647 648
f 641 642 648 645
f 648 647 646 645
g object_82
v 55.844779968261719 0 -19.351726531982422
v 55.844779968261719 0 -26.611263275146484
v 64.295455932617188 0 -19.351726531982422
v 64.295455932617188 0 -26.611263275146484
v 55.844779968261719 -6 -19.351726531982422
v 64.295455932617188 -6 -19.351726531982422
v 64.295455932617188 -6 -26.611263275146484
v 55.844779968261719 -6 -26.611263275146484
f 650 649 651 652
f 651 649 653 654
f 652 651 654 655
f 650 652 655 656
f 649 650 656 653
f 656 655 654 653
g object_83
v 55.844779968261719 0 -12.092188835144043
v 55.844779968261719 0 -19.351726531982422
v 64.295455932617188 0 -12.092188835144043
v 64.295455932617188 0 -19.351726531982422
v 55.844779968261719 -6 -12.092188835144043
v 64.295455932617188 -6 -12.092188835144043
v 64.295455932617188 -6 -19.351726531982422
v 55.844779968261719 -6 -19.351726531982422
f 658 657 659 660
f 659 657 661 662
f 660 659 662 663
f 658 660 663 664
f 657 658 664 661
f 664 663 662 661
g object_84
v 55.844779968261719 0 -4.8326525688171387
v 55.844779968261719 0 -12.092188835144043
v 64.295455932617188 0 -4.8326525688171387
v 64.295455932617188 0 -12.092188835144043
v 55.844779968261719 -6 -4.8326525688171387
v 64.295455932617188 -6 -4.8326525688171387
v 64.295455932617188 -6 -12.092188835144043
v 55.844779968261719 -6 -12.092188835144043
f 666 665 667 668
f 667 665 669 670
f 668 667 670 671
f 666 668 671 672
f 665 666 672 669
f 672 671 670 669
g object_85
v 47.394100189208984 0 -84.687553405761719
v 47.394100189208984 0 -91.947090148925781
v 55.844779968261719 0 -84.687553405761719
v 55.844779968261719 0 -91.947090148925781
v 47.394100189208984 -6 -84.687553405761719
v 55.844779968261719 -6 -84.687553405761719
v 55.844779968261719 -6 -91.947090148925781
v 47.394100189208984 -6 -91.947090148925781
f 674 673 675 676
f 675 673 677 678
f 676 675 678 679
f 674 676 679 680
f 673 674 680 677
f 680 679 678 677
g object_86
v 47.394100189208984 0 -77.428016662597656
v 47.394100189208984 0 -84.687553405761719
v 55.844779968261719 0 -77.428016662597656
v 55.844779968261719 0 -84.687553405761719
v 47.394100189208984 -6 -77.428016662597656
v 55.844779968261719 -6 -77.428016662597656
v 55.844779968261719 -6 -84.687553405761719
v 47.394100189208984 -6 -84.687553405761719
f 682 681 683 684
f 683 681 685 686
f 684 683 686 687
f 682 684 687 688
f 681 682 688 685
f 688 687 686 685
g object_87
v 47.394100189208984 0 -70.168479919433594
v 47.394100189208984 0 -77.428016662597656
v 55.844779968261719 0 -70.168479919433594
v 55.844779968261719 0 -77.428016662597656
v 47.394100189208984 -6 -70.168479919433594
v 55.844779968261719 -6 -70.168479919433594
v 55.844779968261719 -6 -77.428016662597656
v 47.394100189208984 -6 -77.428016662597656
f 690 689 691 692
f 691 689 693 694
f 692 691 694 695
f 690 692 695 696
f 689 690 696 693
f 696 695 694 693
g object_88
v 47.394100189208984 0 -62.908946990966797
v 47.394100189208984 0 -70.168479919433594
v 55.844779968261719 0 -62.908946990966797
v 55.844779968261719 0 -70.168479919433594
v 47.394100189208984 -6 -62.908946990966797
v 55.844779968261719 -6 -62.908946990966797
v 55.844779968261719 -6 -70.168479919433594
v 47.394100189208984 -6 -70.168479919433594
f 698 697 699 700
f 699 697 701 702
f 700 699 702 703
f 698 700 703 704
f 697 698 704 701
f 704 703 702 701
g object_89
v 47.394100189208984 0 -55.649410247802734
v 47.394100189208984 0 -62.908946990966797
v 55.844779968261719 0 -55.649410247802734
v 55.844779968261719 0 -62.908946990966797
v 47.394100189208984 -6 -55.649410247802734
v 55.844779968261719 -6 -55.649410247802734
v 55.844779968261719 -6 -62.908946990966797
v 47.394100189208984 -6 -62.908946990966797
f 706 705 707 708
f 707 705 709 710
f 708 707 710 711
f 706 708 711 712
f 705 706 712 709
f 712 711 710 709
g object_90
v 47.394100189208984 0 -48.389873504638672
v 47.394100189208984 0 -55.649410247802734
v 55.844779968261719 0 -48.389873504638672
v 55.844779968261719 0 -55.649410247802734
v 47.394100189208984 -6 -48.389873504638672
v 55.844779968261719 -6 -48.389873504638672
v 55.844779968261719 -6 -55.649410247802734
v 47.394100189208984 -6 -55.649410247802734
f 714 713 715 716
f 715 713 717 718
f 716 715 718 719
f 714 716 719 720
f 713 714 720 717
f 720 719 718 717
g object_91
v 47.394100189208984 0 -41.130336761474609
v 47.394100189208984 0 -48.389873504638672
v 55.844779968261719 0 -41.130336761474609
v 55.844779968261719 0 -48.389873504638672
v 47.394100189208984 -6 -41.130336761474609
v 55.844779968261719 -6 -41.130336761474609
v 55.844779968261719 -6 -48.389873504638672
v 47.394100189208984 -6 -48.389873504638672
f 722 721 723 724
f 723 721 725 726
f 724 723 726 727
f 722 724 727 728
f 721 722 728 725
f 728 727 726 725
g object_92
v 47.394100189208984 0 -33.870800018310547
v 47.394100189208984 0 -41.130336761474609
v 55.844779968261719 0 -33.870800018310547
v 55.844779968261719 0 -41.130336761474609
v 47.394100189208984 -6 -33.870800018310547
v 55.844779968261719 -6 -33.870800018310547
v 55.844779968261719 -6 -41.130336761474609
v 47.394100189208984 -6 -41.130336761474609
f 730 729 731 732
f 731 729 733 734
f 732 731 734 735
f 730 732 735 736
f 729 730 736 733
f 736 735 734 733
g object_93
v 47.394100189208984 0 -26.611263275146484
v 47.394100189208984 0 -33.870800018310547
v 55.844779968261719 0 -26.611263275146484
v 55.844779968261719 0 -33.870800018310547
v 47.394100189208984 -6 -26.611263275146484
v 55.844779968261719 -6 -26.611263275146484
v 55.844779968261719 -6 -33.870800018310547
v 47.394100189208984 -6 -33.870800018310547
f 738 737 739 740
f 739 737 741 742
f 740 739 742 743
f 738 740 743 744
f 737 738 744 741
f 744 743 742 741
g object_94
v 47.394100189208984 0 -19.351726531982422
v 47.394100189208984 0 -26.611263275146484
v 55.844779968261719 0 -19.351726531982422
v 55.844779968261719 0 -26.611263275146484
v 47.394100189208984 -6 -19.351726531982422
v 55.844779968261719 -6 -19.351726531982422
v 55.844779968261719 -6 -26.611263275146484
v 47.394100189208984 -6 -26.611263275146484
f 746 745 747 748
f 747 745 749 750
f 748 747 750 751
f 746 748 751 752
f 745 746 752 749
f 752 751 750 749
g object_95
v 47.394100189208984 0 -12.092188835144043
v 47.394100189208984 0 -19.351726531982422
v 55.844779968261719 0 -12.092188835144043
v 55.844779968261719 0 -19.351726531982422
v 47.394100189208984 -6 -12.092188835144043
v 55.844779968261719 -6 -12.092188835144043
v 55.844779968261719 -6 -19.351726531982422
v 47.394100189208984 -6 -19.351726531982422
f 754 753 755 756
f 755 753 757 758
f 756 755 758 759
f 754 756 759 760
f 753 754 760 757
f 760 759 758 757
g object_96
v 47.394100189208984 0 -4.8326525688171387
v 47.394100189208984 0 -12.092188835144043
v 55.844779968261719 0 -4.8326525688171387
v 55.844779968261719 0 -12.092188835144043
v 47.394100189208984 -6 -4.8326525688171387
v 55.844779968261719 -6 -4.8326525688171387
v 55.844779968261719 -6 -12.092188835144043
v 47.394100189208984 -6 -12.092188835144043
f 762 761 763 764
f 763 761 765 766
f 764 763 766 767
f 762 764 767 768
f 761 762 768 765
f 768 767 766 765
g object_97
v 38.94342041015625 0 -84.687553405761719
v 38.94342041015625 0 -91.947090148925781
v 47.394100189208984 0 -84.687553405761719
v 47.394100189208984 0 -91.947090148925781
v 38.94342041015625 -6 -84.687553405761719
v 47.394100189208984 -6 -84.687553405761719
v 47.394100189208984 -6 -91.947090148925781
v 38.94342041015625 -6 -91.947090148925781
f 770 769 771 772
f 771 769 773 774
f 772 771 774 775
f 770 772 775 776
f 769 770 776 773
f 776 775 774 773
g object_98
v 38.94342041015625 0 -77.428016662597656
v 38.94342041015625 0 -84.687553405761719
v 47.394100189208984 0 -77.428016662597656
v 47.394100189208984 0 -84.687553405761719
v 38.94342041015625 -6 -77.428016662597656
v 47.394100189208984 -6 -77.428016662597656
v 47.394100189208984 -6 -84.687553405761719
v 38.94342041015625 -6 -84.687553405761719
f 778 777 779 780
f 779 777 781 782
f 780 779 782 783
f 778 780 783 784
f 777 778 784 781
f 784 783 782 781
g object_99
v 38.94342041015625 0 -70.168479919433594
v 38.94342041015625 0 -77.428016662597656
v 47.394100189208984 0 -70.168479919433594
v 47.394100189208984 0 -77.428016662597656
v 38.94342041015625 -6 -70.168479919433594
v 47.394100189208984 -6 -70.168479919433594
v 47.394100189208984 -6 -77.428016662597656
v 38.94342041015625 -6 -77.428016662597656
f 786 785 787 788
f 787 785 789 790
f 788 787 790 791
f 786 788 791 792
f 785 786 792 789
f 792 791 790 789
g object_100
v 38.94342041015625 0 -62.908946990966797
v 38.94342041015625 0 -70.168479919433594
v 47.394100189208984 0 -62.908946990966797
v 47.394100189208984 0 -70.168479919433594
v 38.94342041015625 -6 -62.908946990966797
v 47.394100189208984 -6 -62.908946990966797
v 47.394100189208984 -6 -70.168479919433594
v 38.94342041015625 -6 -70.168479919433594
f 794 793 795 796
f 795 793 797 798
f 796 795 798 799
f 794 796 799 800
f 793 794 800 797
f 800 799 798 797
g object_101
v 38.94342041015625 0 -55.649410247802734
v 38.94342041015625 0 -62.908946990966797
v 47.394100189208984 0 -55.649410247802734
v 47.394100189208984 0 -62.908946990966797
v 38.94342041015625 -6 -55.649410247802734
v 47.394100189208984 -6 -55.649410247802734
v 47.394100189208984 -6 -62.908946990966797
v 38.94342041015625 -6 -62.908946990966797
f 802 801 803 804
f 803 801 805 806
f 804 803 806 807
f 802 804 807 808
f 801 802 808 805
f 808 807 806 805
g object_102
v 38.94342041015625 0 -48.389873504638672
v 38.94342041015625 0 -55.649410247802734
v 47.394100189208984 0 -48.389873504638672
v 47.394100189208984 0 -55.649410247802734
v 38.94342041015625 -6 -48.389873504638672
v 47.394100189208984 -6 -48.389873504638672
v 47.394100189208984 -6 -55.649410247802734
v 38.94342041015625 -6 -55.649410247802734
f 810 809 811 812
f 811 809 813 814
f 812 811 814 815
f 810 812 815 816
f 809 810 816 813
f 816 815 814 813
g object_103
v 38.94342041015625 0 -41.130336761474609
v 38.94342041015625 0 -48.389873504638672
v 47.394100189208984 0 -41.130336761474609
v 47.394100189208984 0 -48.389873504638672
v 38.94342041015625 -6 -41.130336761474609
v 47.394100189208984 -6 -41.130336761474609
v 47.394100189208984 -6 -48.389873504638672
v 38.94342041015625 -6 -48.389873504638672
f 818 817 819 820
f 819 817 821 822
f 820 819 822 823
f 818 820 823 824
f 817 818 824 821
f 824 823 822 821
g object_104
v 38.94342041015625 0 -33.870800018310547
v 38.94342041015625 0 -41.130336761474609
v 47.394100189208984 0 -33.870800018310547
v 47.394100189208984 0 -41.130336761474609
v 38.94342041015625 -6 -33.870800018310547
v 47.394100189208984 -6 -33.870800018310547
v 47.394100189208984 -6 -41.130336761474609
v 38.94342041015625 -6 -41.130336761474609
f 826 825 827 828
f 827 825 829 830
f 828 827 830 831
f 826 828 831 832
f 825 826 832 829
f 832 831 830 829
g object_105
v 38.94342041015625 0 -26.611263275146484
v 38.94342041015625 0 -33.870800018310547
v 47.394100189208984 0 -26.611263275146484
v 47.394100189208984 0 -33.870800018310547
v 38.94342041015625 -6 -26.611263275146484
v 47.394100189208984 -6 -26.611263275146484
v 47.394100189208984 -6 -33.870800018310547
v 38.94342041015625 -6 -33.870800018310547
f 834 833 835 836
f 835 833 837 838
f 836 835 838 839
f 834 836 839 840
f 833 834 840 837
f 840 839 838 837
g object_106
v 38.94342041015625 0 -19.351726531982422
v 38.94342041015625 0 -26.611263275146484
v 47.394100189208984 0 -19.351726531982422
v 47.394100189208984 0 -26.611263275146484
v 38.94342041015625 -6 -19.351726531982422
v 47.394100189208984 -6 -19.351726531982422
v 47.394100189208984 -6 -26.611263275146484
v 38.94342041015625 -6 -26.611263275146484
f 842 841 843 844
f 843 841 845 846
f 844 843 846 847
f 842 844 847 848
f 841 842 848 845
f 848 847 846 845
g object_107
v 38.94342041015625 0 -12.092188835144043
v 38.94342041015625 0 -19.351726531982422
v 47.394100189208984 0 -12.092188835144043
v 47.394100189208984 0 -19.351726531982422
v 38.94342041015625 -6 -12.092188835144043
v 47.394100189208984 -6 -12.092188835144043
v 47.394100189208984 -6 -19.351726531982422
v 38.94342041015625 -6 -19.351726531982422
f 850 849 851 852
f 851 849 853 854
f 852 851 854 855
f 850 852 855 856
f 849 850 856 853
f 856 855 854 853
g object_108
v 38.94342041015625 0 -4.8326525688171387
v 38.94342041015625 0 -12.092188835144043
v 47.394100189208984 0 -4.8326525688171387
v 47.394100189208984 0 -12.092188835144043
v 38.94342041015625 -6 -4.8326525688171387
v 47.394100189208984 -6 -4.8326525688171387
v 47.394100189208984 -6 -12.092188835144043
v 38.94342041015625 -6 -12.092188835144043
f 858 857 859 860
f 859 857 861 862
f 860 859 862 863
f 858 860 863 864
f 857 858 864 861
f 864 863 862 861
g object_109
v 30.492740631103516 0 -84.687553405761719
v 30.492740631103516 0 -91.947090148925781
v 38.94342041015625 0 -84.687553405761719
v 38.94342041015625 0 -91.947090148925781
v 30.492740631103516 -6 -84.687553405761719
v 38.94342041015625 -6 -84.687553405761719
v 38.94342041015625 -6 -91.947090148925781
v 30.492740631103516 -6 -91.947090148925781
f 866 865 867 868
f 867 865 869 870
f 868 867 870 871
f 866 868 871 872
f 865 866 872 869
f 872 871 870 869
g object_110
v 30.492740631103516 0 -77.428016662597656
v 30.492740631103516 0 -84.687553405761719
v 38.94342041015625 0 -77.428016662597656
v 38.94342041015625 0 -84.687553405761719
v 30.492740631103516 -6 -77.428016662597656
v 38.94342041015625 -6 -77.428016662597656
v 38.94342041015625 -6 -84.687553405761719
v 30.492740631103516 -6 -84.687553405761719
f 874 873 875 876
f 875 873 877 878
f 876 875 878 879
f 874 876 879 880
f 873 874 880 877
f 880 879 878 877
g object_111
v 30.492740631103516 0 -70.168479919433594
v 30.492740631103516 0 -77.428016662597656
v 38.94342041015625 0 -70.168479919433594
v 38.94342041015625 0 -77.428016662597656
v 30.492740631103516 -6 -70.168479919433594
v 38.94342041015625 -6 -70.168479919433594
v 38.94342041015625 -6 -77.428016662597656
v 30.492740631103516 -6 -77.428016662597656
f 882 881 883 884
f 883 881 885 886
f 884 883 886 887
f 882 884 887 888
f 881 882 888 885
f 888 887 886 885
g object_112
v 30.492740631103516 0 -62.908946990966797
v 30.492740631103516 0 -70.168479919433594
v 38.94342041015625 0 -62.908946990966797
v 38.94342041015625 0 -70.168479919433594
v 30.492740631103516 -6 -62.908946990966797
v 38.94342041015625 -6 -62.908946990966797
v 38.94342041015625 -6 -70.168479919433594
v 30.492740631103516 -6 -70.168479919433594
f 890 889 891 892
f 891 889 893 894
f 892 891 894 895
f 890 892 895 896
f 889 890 896 893
f 896 895 894 893
g object_113
v 30.492740631103516 0 -55.649410247802734
v 30.492740631103516 0 -62.908946990966797
v 38.94342041015625 0 -55.649410247802734
v 38.94342041015625 0 -62.908946990966797
v 30.492740631103516 -6 -55.649410247802734
v 38.94342041015625 -6 -55.649410247802734
v 38.94342041015625 -6 -62.908946990966797
v 30.492740631103516 -6 -62.908946990966797
f 898 897 899 900
f 899 897 901 902
f 900 899 902 903
f 898 900 903 904
f 897 898 904 901
f 904 903 902 901
g object_114
v 30.492740631103516 0 -48.389873504638672
v 30.492740631103516 0 -55.649410247802734
v 38.94342041015625 0 -48.389873504638672
v 38.94342041015625 0 -55.649410247802734
v 30.492740631103516 -6 -48.389873504638672
v 38.94342041015625 -6 -48.389873504638672
v 38.94342041015625 -6 -55.649410247802734
v 30.492740631103516 -6 -55.649410247802734
f 906 905 907 908
f 907 905 909 910
f 908 907 910 911
f 906 908 911 912
f 905 906 912 909
f 912 911 910 909
g object_115
v 30.492740631103516 0 -41.130336761474609
v 30.492740631103516 0 -48.389873504638672
v 38.94342041015625 0 -41.130336761474609
v 38.94342041015625 0 -48.389873504638672
v 30.492740631103516 -6 -41.130336761474609
v 38.94342041015625 -6 -41.130336761474609
v 38.94342041015625 -6 -48.389873504638672
v 30.492740631103516 -6 -48.389873504638672
f 914 913 915 916
f 915 913 917 918
f 916 915 918 919
f 914 916 919 920
f 913 914 920 917
f 920 919 918 917
g object_116
v 30.492740631103516 0 -33.870800018310547
v 30.492740631103516 0 -41.130336761474609
v 38.94342041015625 0 -33.870800018310547
v 38.94342041015625 0 -41.130336761474609
v 30.492740631103516 -6 -33.870800018310547
v 38.94342041015625 -6 -33.870800018310547
v 38.94342041015625 -6 -41.130336761474609
v 30.492740631103516 -6 -41.130336761474609
f 922 921 923 924
f 923 921 925 926
f 924 923 926 927
f 922 924 927 928
f 921 922 928 925
f 928 927 926 925
g object_117
v 30.492740631103516 0 -26.611263275146484
v 30.492740631103516 0 -33.870800018310547
v 38.94342041015625 0 -26.611263275146484
v 38.94342041015625 0 -33.870800018310547
v 30.492740631103516 -6 -26.611263275146484
v 38.94342041015625 -6 -26.611263275146484
v 38.94342041015625 -6 -33.870800018310547
v 30.492740631103516 -6 -33.870800018310547
f 930 929 931 932
f 931 929 933 934
f 932 931 934 935
f 930 932 935 936
f 929 930 936 933
f 936 935 934 933
g object_118
v 30.492740631103516 0 -19.351726531982422
v 30.492740631103516 0 -26.611263275146484
v 38.94342041015625 0 -19.351726531982422
v 38.94342041015625 0 -26.611263275146484
v 30.492740631103516 -6 -19.351726531982422
v 38.94342041015625 -6 -19.351726531982422
v 38.94342041015625 -6 -26.611263275146484
v 30.492740631103516 -6 -26.611263275146484
f 938 937 939 940
f 939 937 941 942
f 940 939 942 943
f 938 940 943 944
f 937 938 944 941
f 944 943 942 941
g object_119
v 30.492740631103516 0 -12.092188835144043
v 30.492740631103516 0 -19.351726531982422
v 38.94342041015625 0 -12.092188835144043
v 38.94342041015625 0 -19.351726531982422
v 30.492740631103516 -6 -12.092188835144043
v 38.94342041015625 -6 -12.092188835144043
v 38.94342041015625 -6 -19.351726531982422
v 30.492740631103516 -6 -19.351726531982422
f 946 945 947 948
f 947 945 949 950
f 948 947 950 951
f 946 948 951 952
f 945 946 952 949
f 952 951 950 949
g object_120
v 30.492740631103516 0 -4.8326525688171387
v 30.492740631103516 0 -12.092188835144043
v 38.94342041015625 0 -4.8326525688171387
v 38.94342041015625 0 -12.092188835144043
v 30.492740631103516 -6 -4.8326525688171387
v 38.94342041015625 -6 -4.8326525688171387
v 38.94342041015625 -6 -12.092188835144043
v 30.492740631103516 -6 -12.092188835144043
f 954 953 955 956
f 955 953 957 958
f 956 955 958 959
f 954 956 959 960
f 953 954 960 957
f 960 959 958 957
g object_121
v 22.042062759399414 0 -84.687553405761719
v 22.042062759399414 0 -91.947090148925781
v 30.492740631103516 0 -84.687553405761719
v 30.492740631103516 0 -91.947090148925781
v 22.042062759399414 -6 -84.687553405761719
v 30.492740631103516 -6 -84.687553405761719
v 30.492740631103516 -6 -91.947090148925781
v 22.042062759399414 -6 -91.947090148925781
f 962 961 963 964
f 963 961 965 966
f 964 963 966 967
f 962 964 967 968
f 961 962 968 965
f 968 967 966 965
g object_122
v 22.042062759399414 0 -77.428016662597656
v 22.042062759399414 0 -84.687553405761719
v 30.492740631103516 0 -77.428016662597656
v 30.492740631103516 0 -84.687553405761719
v 22.042062759399414 -6 -77.428016662597656
v 30.492740631103516 -6 -77.428016662597656
v 30.492740631103516 -6 -84.687553405761719
v 22.042062759399414 -6 -84.687553405761719
f 970 969 971 972
f 971 969 973 974
f 972 971 974 975
f 970 972 975 976
f 969 970 976 973
f 976 975 974 973
g object_123
v 22.042062759399414 0 -70.168479919433594
v 22.042062759399414 0 -77.428016662597656
v 30.492740631103516 0 -70.168479919433594
v 30.492740631103516 0 -77.428016662597656
v 22.042062759399414 -6 -70.168479919433594
v 30.492740631103516 -6 -70.168479919433594
v 30.492740631103516 -6 -77.428016662597656
v 22.042062759399414 -6 -77.428016662597656
f 978 977 979 980
f 979 977 981 982
f 980 979 982 983
f 978 980 983 984
f 977 978 984 981
f 984 983 982 981
g object_124
v 22.042062759399414 0 -62.908946990966797
v 22.042062759399414 0 -70.168479919433594
v 30.492740631103516 0 -62.908946990966797
v 30.492740631103516 0 -70.168479919433594
v 22.042062759399414 -6 -62.908946990966797
v 30.492740631103516 -6 -62.908946990966797
v 30.492740631103516 -6 -70.168479919433594
v 22.042062759399414 -6 -70.168479919433594
f 986 985 987 988
f 987 985 989 990
f 988 987 990 991
f 986 988 991 992
f 985 986 992 989
f 992 991 990 989
g object_125
v 22.042062759399414 0 -55.649410247802734
v 22.042062759399414 0 -62.908946990966797
v 30.492740631103516 0 -55.649410247802734
v 30.492740631103516 0 -62.908946990966797
v 22.042062759399414 -6 -55.649410247802734
v 30.492740631103516 -6 -55.649410247802734
v 30.492740631103516 -6 -62.908946990966797
v 22.042062759399414 -6 -62.908946990966797
f 994 993 995 996
f 995 993 997 998
f 996 995 998 999
f 994 996 999 1000
f 993 994 1000 997
f 1000 999 998 997
g object_126
v 22.042062759399414 0 -48.389873504638672
v 22.042062759399414 0 -55.649410247802734
v 30.492740631103516 0 -48.389873504638672
v 30.492740631103516 0 -55.649410247802734
v 22.042062759399414 -6 -48.389873504638672
v 30.492740631103516 -6 -48.389873504638672
v 30.492740631103516 -6 -55.649410247802734
v 22.042062759399414 -6 -55.649410247802734
f 1002 1001 1003 1004
f 1003 1001 1005 1006
f 1004 1003 1006 1007
f 1002 1004 1007 1008
f 1001 1002 1008 1005
f 1008 1007 1006 1005
g object_127
v 22.042062759399414 0 -41.130336761474609
v 22.042062759399414 0 -48.389873504638672
v 30.492740631103516 0 -41.130336761474609
v 30.492740631103516 0 -48.389873504638672
v 22.042062759399414 -6 -41.130336761474609
v 30.492740631103516 -6 -41.130336761474609
v 30.492740631103516 -6 -48.389873504638672
v 22.042062759399414 -6 -48.389873504638672
f 1010 1009 1011 1012
f 1011 1009 1013 1014
f 1012 1011 1014 1015
f 1010 1012 1015 1016
f 1009 1010 1016 1013
f 1016 1015 1014 1013
g object_128
v 22.042062759399414 0 -33.870800018310547
v 22.042062759399414 0 -41.130336761474609
v 30.492740631103516 0 -33.870800018310547
v 30.492740631103516 0 -41.130336761474609
v 22.042062759399414 -6 -33.870800018310547
v 30.492740631103516 -6 -33.870800018310547
v 30.492740631103516 -6 -41.130336761474609
v 22.042062759399414 -6 -41.130336761474609
f 1018 1017 1019 1020
f 1019 1017 1021 1022
f 1020 1019 1022 1023
f 1018 1020 1023 1024
f 1017 1018 1024 1021
f 1024 1023 1022 1021
g object_129
v 22.042062759399414 0 -26.611263275146484
v 22.042062759399414 0 -33.870800018310547
v 30.492740631103516 0 -26.611263275146484
v 30.492740631103516 0 -33.870800018310547
v 22.042062759399414 -6 -26.611263275146484
v 30.492740631103516 -6 -26.611263275146484
v 30.492740631103516 -6 -33.870800018310547
v 22.042062759399414 -6 -33.870800018310547
f 1026 1025 1027 1028
f 1027 1025 1029 1030
f 1028 1027 1030 1031
f 1026 1028 1031 1032
f 1025 1026 1032 1029
f 1032 1031 1030 1029
g object_130
v 22.042062759399414 0 -19.351726531982422
v 22.042062759399414 0 -26.611263275146484
v 30.492740631103516 0 -19.351726531982422
v 30.492740631103516 0 -26.611263275146484
v 22.042062759399414 -6 -19.351726531982422
v 30.492740631103516 -6 -19.351726531982422
v 30.492740631103516 -6 -26.611263275146484
v 22.042062759399414 -6 -26.611263275146484
f 1034 1033 1035 1036
f 1035 1033 1037 1038
f 1036 1035 1038 1039
f 1034 1036 1039 1040
f 1033 1034 1040 1037
f 1040 1039 1038 1037
g object_131
v 22.042062759399414 0 -12.092188835144043
v 22.042062759399414 0 -19.351726531982422
v 30.492740631103516 0 -12.092188835144043
v 30.492740631103516 0 -19.351726531982422
v 22.042062759399414 -6 -12.092188835144043
v 30.492740631103516 -6 -12.092188835144043
v 30.492740631103516 -6 -19.351726531982422
v 22.042062759399414 -6 -19.351726531982422
f 1042 1041 1043 1044
f 1043 1041 1045 1046
f 1044 1043 1046 1047
f 1042 1044 1047 1048
f 1041 1042 1048 1045
f 1048 1047 1046 1045
g object_132
v 22.042062759399414 0 -4.8326525688171387
v 22.042062759399414 0 -12.092188835144043
v 30.492740631103516 0 -4.8326525688171387
v 30.492740631103516 0 -12.092188835144043
v 22.042062759399414 -6 -4.8326525688171387
v 30.492740631103516 -6 -4.8326525688171387
v 30.492740631103516 -6 -12.092188835144043
v 22.042062759399414 -6 -12.092188835144043
f 1050 1049 1051 1052
f 1051 1049 1053 1054
f 1052 1051 1054 1055
f 1050 1052 1055 1056
f 1049 1050 1056 1053
f 1056 1055 1054 1053
g object_133
v 13.59138298034668 0 -84.687553405761719
v 13.59138298034668 0 -91.947090148925781
v 22.042062759399414 0 -84.687553405761719
v 22.042062759399414 0 -91.947090148925781
v 13.59138298034668 -6 -84.687553405761719
v 22.042062759399414 -6 -84.687553405761719
v 22.042062759399414 -6 -91.947090148925781
v 13.59138298034668 -6 -91.947090148925781
f 1058 1057 1059 1060
f 1059 1057 1061 1062
f 1060 1059 1062 1063
f 1058 1060 1063 1064
f 1057 1058 1064 1061
f 1064 1063 1062 1061
g object_134
v 13.59138298034668 0 -77.428016662597656
v 13.59138298034668 0 -84.687553405761719
v 22.042062759399414 0 -77.428016662597656
v 22.042062759399414 0 -84.687553405761719
v 13.59138298034668 -6 -77.428016662597656
v 22.042062759399414 -6 -77.428016662597656
v 22.042062759399414 -6 -84.687553405761719
v 13.59138298034668 -6 -84.687553405761719
f 1066 1065 1067 1068
f 1067 1065 1069 1070
f 1068 1067 1070 1071
f 1066 1068 1071 1072
f 1065 1066 1072 1069
f 1072 1071 1070 1069
g object_135
v 13.59138298034668 0 -70.168479919433594
v 13.59138298034668 0 -77.428016662597656
v 22.042062759399414 0 -70.168479919433594
v 22.042062759399414 0 -77.428016662597656
v 13.59138298034668 -6 -70.168479919433594
v 22.042062759399414 -6 -70.168479919433594
v 22.042062759399414 -6 -77.428016662597656
v 13.59138298034668 -6 -77.428016662597656
f 1074 1073 1075 1076
f 1075 1073 1077 1078
f 1076 1075 1078 1079
f 1074 1076 1079 1080
f 1073 1074 1080 1077
f 1080 1079 1078 1077
g object_136
v 13.59138298034668 0 -62.908946990966797
v 13.59138298034668 0 -70.168479919433594
v 22.042062759399414 0 -62.908946990966797
v 22.042062759399414 0 -70.168479919433594
v 13.59138298034668 -6 -62.908946990966797
v 22.042062759399414 -6 -62.908946990966797
v 22.042062759399414 -6 -70.168479919433594
v 13.59138298034668 -6 -70.168479919433594
f 1082 1081 1083 1084
f 1083 1081 1085 1086
f 1084 1083 1086 1087
f 1082 1084 1087 1088
f 1081 1082 1088 1085
f 1088 1087 1086 1085
g object_137
v 13.59138298034668 0 -55.649410247802734
v 13.59138298034668 0 -62.908946990966797
v 22.042062759399414 0 -55.649410247802734
v 22.042062759399414 0 -62.908946990966797
v 13.59138298034668 -6 -55.649410247802734
v 22.042062759399414 -6 -55.649410247802734
v 22.042062759399414 -6 -62.908946990966797
v 13.59138298034668 -6 -62.908946990966797
f 1090 1089 1091 1092
f 1091 1089 1093 1094
f 1092 1091 1094 1095
f 1090 1092 1095 1096
f 1089 1090 1096 1093
f 1096 1095 1094 1093
g object_138
v 13.59138298034668 0 -48.389873504638672
v 13.59138298034668 0 -55.649410247802734
v 22.042062759399414 0 -48.389873504638672
v 22.042062759399414 0 -55.649410247802734
v 13.59138298034668 -6 -48.389873504638672
v 22.042062759399414 -6 -48.389873504638672
v 22.042062759399414 -6 -55.649410247802734
v 13.59138298034668 -6 -55.649410247802734
f 1098 1097 1099 1100
f 1099 1097 1101 1102
f 1100 1099 1102 1103
f 1098 1100 1103 1104
f 1097 1098 1104 1101
f 1104 1103 1102 1101
g object_139
v 13.59138298034668 0 -41.130336761474609
v 13.59138298034668 0 -48.389873504638672
v 22.042062759399414 0 -41.130336761474609
v 22.042062759399414 0 -48.389873504638672
v 13.59138298034668 -6 -41.130336761474609
v 22.042062759399414 -6 -41.130336761474609
v 22.042062759399414 -6 -48.389873504638672
v 13.59138298034668 -6 -48.389873504638672
f 1106 1105 1107 1108
f 1107 1105 1109 1110
f 1108 1107 1110 1111
f 1106 1108 1111 1112
f 1105 1106 1112 1109
f 1112 1111 1110 1109
g object_140
v 13.59138298034668 0 -33.870800018310547
v 13.59138298034668 0 -41.130336761474609
v 22.042062759399414 0 -33.870800018310547
v 22.042062759399414 0 -41.130336761474609
v 13.59138298034668 -6 -33.870800018310547
v 22.042062759399414 -6 -33.870800018310547
v 22.042062759399414 -6 -41.130336761474609
v 13.59138298034668 -6 -41.130336761474609
f 1114 1113 1115 1116
f 1115 1113 1117 1118
f 1116 1115 1118 1119
f 1114 1116 1119 1120
f 1113 1114 1120 1117
f 1120 1119 1118 1117
g object_141
v 13.59138298034668 0 -26.611263275146484
v 13.59138298034668 0 -33.870800018310547
v 22.042062759399414 0 -26.611263275146484
v 22.042062759399414 0 -33.870800018310547
v 13.59138298034668 -6 -26.611263275146484
v 22.042062759399414 -6 -26.611263275146484
v 22.042062759399414 -6 -33.870800018310547
v 13.59138298034668 -6 -33.870800018310547
f 1122 1121 1123 1124
f 1123 1121 1125 1126
f 1124 1123 1126 1127
f 1122 1124 1127 1128
f 1121 1122 1128 1125
f 1128 1127 1126 1125
g object_142
v 13.59138298034668 0 -19.351726531982422
v 13.59138298034668 0 -26.611263275146484
v 22.042062759399414 0 -19.351726531982422
v 22.042062759399414 0 -26.611263275146484
v 13.59138298034668 -6 -19.351726531982422
v 22.042062759399414 -6 -19.351726531982422
v 22.042062759399414 -6 -26.611263275146484
v 13.59138298034668 -6 -26.611263275146484
f 1130 1129 1131 1132
f 1131 1129 1133 1134
f 1132 1131 1134 1135
f 1130 1132 1135 1136
f 1129 1130 1136 1133
f 1136 1135 1134 1133
g object_143
v 13.59138298034668 0 -12.092188835144043
v 13.59138298034668 0 -19.351726531982422
v 22.042062759399414 0 -12.092188835144043
v 22.042062759399414 0 -19.351726531982422
v 13.59138298034668 -6 -12.092188835144043
v 22.042062759399414 -6 -12.092188835144043
v 22.042062759399414 -6 -19.351726531982422
v 13.59138298034668 -6 -19.351726531982422
f 1138 1137 1139 1140
f 1139 1137 1141 1142
f 1140 1139 1142 1143
f 1138 1140 1143 1144
f 1137 1138 1144 1141
f 1144 1143 1142 1141
g object_144
v 13.59138298034668 0 -4.8326525688171387
v 13.59138298034668 0 -12.092188835144043
v 22.042062759399414 0 -4.8326525688171387
v 22.042062759399414 0 -12.092188835144043
v 13.59138298034668 -6 -4.8326525688171387
v 22.042062759399414 -6 -4.8326525688171387
v 22.042062759399414 -6 -12.092188835144043
v 13.59138298034668 -6 -12.092188835144043
f 1146 1145 1147 1148
f 1147 1145 1149 1150
f 1148 1147 1150 1151
f 1146 1148 1151 1152
f 1145 1146 1152 1149
f 1152 1151 1150 1149
g object_145
v 5.1407032012939453 0 -84.687553405761719
v 5.1407032012939453 0 -91.947090148925781
v 13.59138298034668 0 -84.687553405761719
v 13.59138298034668 0 -91.947090148925781
v 5.1407032012939453 -6 -84.687553405761719
v 13.59138298034668 -6 -84.687553405761719
v 13.59138298034668 -6 -91.947090148925781
v 5.1407032012939453 -6 -91.947090148925781
f 1154 1153 1155 1156
f 1155 1153 1157 1158
f 1156 1155 1158 1159
f 1154 1156 1159 1160
f 1153 1154 1160 1157
f 1160 1159 1158 1157
g object_146
v 5.1407032012939453 0 -77.428016662597656
v 5.1407032012939453 0 -84.687553405761719
v 13.59138298034668 0 -77.428016662597656
v 13.59138298034668 0 -84.687553405761719
v 5.1407032012939453 -6 -77.428016662597656
v 13.59138298034668 -6 -77.428016662597656
v 13.59138298034668 -6 -84.687553405761719
v 5.1407032012939453 -6 -84.687553405761719
f 1162 1161 1163 1164
f 1163 1161 1165 1166
f 1164 1163 1166 1167
f 1162 1164 1167 1168
f 1161 1162 1168 1165
f 1168 1167 1166 1165
g object_147
v 5.1407032012939453 0 -70.168479919433594
v 5.1407032012939453 0 -77.428016662597656
v 13.59138298034668 0 -70.168479919433594
v 13.59138298034668 0 -77.428016662597656
v 5.1407032012939453 -6 -70.168479919433594
v 13.59138298034668 -6 -70.168479919433594
v 13.59138298034668 -6 -77.428016662597656
v 5.1407032012939453 -6 -77.428016662597656
f 1170 1169 1171 1172
f 1171 1169 1173 1174
f 1172 1171 1174 1175
f 1170 1172 1175 1176
f 1169 1170 1176 1173
f 1176 1175 1174 1173
g object_148
v 5.1407032012939453 0 -62.908946990966797
v 5.1407032012939453 0 -70.168479919433594
v 13.59138298034668 0 -62.908946990966797
v 13.59138298034668 0 -70.168479919433594
v 5.1407032012939453 -6 -62.908946990966797
v 13.59138298034668 -6 -62.908946990966797
v 13.59138298034668 -6 -70.168479919433594
v 5.1407032012939453 -6 -70.168479919433594
f 1178 1177 1179 1180
f 1179 1177 1181 1182
f 1180 1179 1182 1183
f 1178 1180 1183 1184
f 1177 1178 1184 1181
f 1184 1183 1182 1181
g object_149
v 5.1407032012939453 0 -55.649410247802734
v 5.1407032012939453 0 -62.908946990966797
v 13.59138298034668 0 -55.649410247802734
v 13.59138298034668 0 -62.908946990966797
v 5.1407032012939453 -6 -55.649410247802734
v 13.59138298034668 -6 -55.649410247802734
v 13.59138298034668 -6 -62.908946990966797
v 5.1407032012939453 -6 -62.908946990966797
f 1186 1185 1187 1188
f 1187 1185 1189 1190
f 1188 1187 1190 1191
f 1186 1188 1191 1192
f 1185 1186 1192 1189
f 1192 1191 1190 1189
g object_150
v 5.1407032012939453 0 -48.389873504638672
v 5.1407032012939453 0 -55.649410247802734
v 13.59138298034668 0 -48.389873504638672
v 13.59138298034668 0 -55.649410247802734
v 5.1407032012939453 -6 -48.389873504638672
v 13.59138298034668 -6 -48.389873504638672
v 13.59138298034668 -6 -55.649410247802734
v 5.1407032012939453 -6 -55.649410247802734
f 1194 1193 1195 1196
f 1195 1193 1197 1198
f 1196 1195 1198 1199
f 1194 1196 1199 1200
f 1193 1194 1200 1197
f 1200 1199 1198 1197
g object_151
v 5.1407032012939453 0 -41.130336761474609
v 5.1407032012939453 0 -48.389873504638672
v 13.59138298034668 0 -41.130336761474609
v 13.59138298034668 0 -48.389873504638672
v 5.1407032012939453 -6 -41.130336761474609
v 13.59138298034668 -6 -41.130336761474609
v 13.59138298034668 -6 -48.389873504638672
v 5.1407032012939453 -6 -48.389873504638672
f 1202 1201 1203 1204
f 1203 1201 1205 1206
f 1204 1203 1206 1207
f 1202 1204 1207 1208
f 1201 1202 1208 1205
f 1208 1207 1206 1205
g object_152
v 5.1407032012939453 0 -33.870800018310547
v 5.1407032012939453 0 -41.130336761474609
v 13.59138298034668 0 -33.870800018310547
v 13.59138298034668 0 -41.130336761474609
v 5.1407032012939453 -6 -33.870800018310547
v 13.59138298034668 -6 -33.870800018310547
v 13.59138298034668 -6 -41.130336761474609
v 5.1407032012939453 -6 -41.130336761474609
f 1210 1209 1211 1212
f 1211 1209 1213 1214
f 1212 1211 1214 1215
f 1210 1212 1215 1216
f 1209 1210 1216 1213
f 1216 1215 1214 1213
g object_153
v 5.1407032012939453 0 -26.611263275146484
v 5.1407032012939453 0 -33.870800018310547
v 13.59138298034668 0 -26.611263275146484
v 13.59138298034668 0 -33.870800018310547
v 5.1407032012939453 -6 -26.611263275146484
v 13.59138298034668 -6 -26.611263275146484
v 13.59138298034668 -6 -33.870800018310547
v 5.1407032012939453 -6 -33.870800018310547
f 1218 1217 1219 1220
f 1219 1217 1221 1222
f 1220 1219 1222 1223
f 1218 1220 1223 1224
f 1217 1218 1224 1221
f 1224 1223 1222 1221
g object_154
v 5.1407032012939453 0 -19.351726531982422
v 5.1407032012939453 0 -26.611263275146484
v 13.59138298034668 0 -19.351726531982422
v 13.59138298034668 0 -26.611263275146484
v 5.1407032012939453 -6 -19.351726531982422
v 13.59138298034668 -6 -19.351726531982422
v 13.59138298034668 -6 -26.611263275146484
v 5.1407032012939453 -6 -26.611263275146484
f 1226 1225 1227 1228
f 1227 1225 1229 1230
f 1228 1227 1230 1231
f 1226 1228 1231 1232
f 1225 1226 1232 1229
f 1232 1231 1230 1229
g object_155
v 5.1407032012939453 0 -12.092188835144043
v 5.1407032012939453 0 -19.351726531982422
v 13.59138298034668 0 -12.092188835144043
v 13.59138298034668 0 -19.351726531982422
v 5.1407032012939453 -6 -12.092188835144043
v 13.59138298034668 -6 -12.092188835144043
v 13.59138298034668 -6 -19.351726531982422
v 5.1407032012939453 -6 -19.351726531982422
f 1234 1233 1235 1236
f 1235 1233 1237 1238
f 1236 1235 1238 1239
f 1234 1236 1239 1240
f 1233 1234 1240 1237
f 1240 1239 1238 1237
g object_156
v 5.1407032012939453 0 -4.8326525688171387
v 5.1407032012939453 0 -12.092188835144043
v 13.59138298034668 0 -4.8326525688171387
v 13.59138298034668 0 -12.092188835144043
v 5.1407032012939453 -6 -4.8326525688171387
v 13.59138298034668 -6 -4.8326525688171387
v 13.59138298034668 -6 -12.092188835144043
v 5.1407032012939453 -6 -12.092188835144043
f 1242 1241 1243 1244
f 1243 1241 1245 1246
f 1244 1243 1246 1247
f 1242 1244 1247 1248
f 1241 1242 1248 1245
f 1248 1247 1246 1245
