# Rhino

g object_1
v 59.949462890625 5.5669116973876953 -41.959320068359375
v 59.949462890625 7.5999999046325684 -41.959320068359375
v 63.169635772705078 5.5669116973876953 -41.959320068359375
v 63.169635772705078 7.5999999046325684 -41.959320068359375
v 63.169635772705078 5.5669116973876953 -45.133918762207031
v 63.169635772705078 7.5999999046325684 -45.133918762207031
v 59.949462890625 5.5669116973876953 -45.133918762207031
v 59.949462890625 7.5999999046325684 -45.133918762207031
f 2 1 3 4
f 4 3 5 6
f 6 5 7 8
f 8 7 1 2
f 7 5 3 1
f 8 2 4 6
g object_2
v 59.949462890625 5.5669116973876953 -45.133918762207031
v 59.949462890625 7.5999999046325684 -45.133918762207031
v 63.169635772705078 5.5669116973876953 -45.133918762207031
v 63.169635772705078 7.5999999046325684 -45.133918762207031
v 63.169635772705078 5.5669116973876953 -48.308517456054688
v 63.169635772705078 7.5999999046325684 -48.308517456054688
v 59.949462890625 5.5669116973876953 -48.308517456054688
v 59.949462890625 7.5999999046325684 -48.308517456054688
f 10 9 11 12
f 12 11 13 14
f 14 13 15 16
f 16 15 9 10
f 15 13 11 9
f 16 10 12 14
g object_3
v 56.729290008544922 5.5669116973876953 -41.959320068359375
v 56.729290008544922 7.5999999046325684 -41.959320068359375
v 59.949462890625 5.5669116973876953 -41.959320068359375
v 59.949462890625 7.5999999046325684 -41.959320068359375
v 59.949462890625 5.5669116973876953 -45.133918762207031
v 59.949462890625 7.5999999046325684 -45.133918762207031
v 56.729290008544922 5.5669116973876953 -45.133918762207031
v 56.729290008544922 7.5999999046325684 -45.133918762207031
f 18 17 19 20
f 20 19 21 22
f 22 21 23 24
f 24 23 17 18
f 23 21 19 17
f 24 18 20 22
g object_4
v 56.729290008544922 5.5669116973876953 -45.133918762207031
v 56.729290008544922 7.5999999046325684 -45.133918762207031
v 59.949462890625 5.5669116973876953 -45.133918762207031
v 59.949462890625 7.5999999046325684 -45.133918762207031
v 59.949462890625 5.5669116973876953 -48.308517456054688
v 59.949462890625 7.5999999046325684 -48.308517456054688
v 56.729290008544922 5.5669116973876953 -48.308517456054688
v 56.729290008544922 7.5999999046325684 -48.308517456054688
f 26 25 27 28
f 28 27 29 30
f 30 29 31 32
f 32 31 25 26
f 31 29 27 25
f 32 26 28 30
g object_5
v 53.509117126464844 5.5669116973876953 -41.959320068359375
v 53.509117126464844 7.5999999046325684 -41.959320068359375
v 56.729290008544922 5.5669116973876953 -41.959320068359375
v 56.729290008544922 7.5999999046325684 -41.959320068359375
v 56.729290008544922 5.5669116973876953 -45.133918762207031
v 56.729290008544922 7.5999999046325684 -45.133918762207031
v 53.509117126464844 5.5669116973876953 -45.133918762207031
v 53.509117126464844 7.5999999046325684 -45.133918762207031
f 34 33 35 36
f 36 35 37 38
f 38 37 39 40
f 40 39 33 34
f 39 37 35 33
f 40 34 36 38
g object_6
v 53.509117126464844 5.5669116973876953 -45.133918762207031
v 53.509117126464844 7.5999999046325684 -45.133918762207031
v 56.729290008544922 5.5669116973876953 -45.133918762207031
v 56.729290008544922 7.5999999046325684 -45.133918762207031
v 56.729290008544922 5.5669116973876953 -48.308517456054688
v 56.729290008544922 7.5999999046325684 -48.308517456054688
v 53.509117126464844 5.5669116973876953 -48.308517456054688
v 53.509117126464844 7.5999999046325684 -48.308517456054688
f 42 41 43 44
f 44 43 45 46
f 46 45 47 48
f 48 47 41 42
f 47 45 43 41
f 48 42 44 46
g object_7
v 50.288944244384766 5.5669116973876953 -41.959320068359375
v 50.288944244384766 7.5999999046325684 -41.959320068359375
v 53.509117126464844 5.5669116973876953 -41.959320068359375
v 53.509117126464844 7.5999999046325684 -41.959320068359375
v 53.509117126464844 5.5669116973876953 -45.133918762207031
v 53.509117126464844 7.5999999046325684 -45.133918762207031
v 50.288944244384766 5.5669116973876953 -45.133918762207031
v 50.288944244384766 7.5999999046325684 -45.133918762207031
f 50 49 51 52
f 52 51 53 54
f 54 53 55 56
f 56 55 49 50
f 55 53 51 49
f 56 50 52 54
g object_8
v 50.288944244384766 5.5669116973876953 -45.133918762207031
v 50.288944244384766 7.5999999046325684 -45.133918762207031
v 53.509117126464844 5.5669116973876953 -45.133918762207031
v 53.509117126464844 7.5999999046325684 -45.133918762207031
v 53.509117126464844 5.5669116973876953 -48.308517456054688
v 53.509117126464844 7.5999999046325684 -48.308517456054688
v 50.288944244384766 5.5669116973876953 -48.308517456054688
v 50.288944244384766 7.5999999046325684 -48.308517456054688
f 58 57 59 60
f 60 59 61 62
f 62 61 63 64
f 64 63 57 58
f 63 61 59 57
f 64 58 60 62
g object_9
v 47.068771362304688 5.5669116973876953 -41.959320068359375
v 47.068771362304688 7.5999999046325684 -41.959320068359375
v 50.288944244384766 5.5669116973876953 -41.959320068359375
v 50.288944244384766 7.5999999046325684 -41.959320068359375
v 50.288944244384766 5.5669116973876953 -45.133918762207031
v 50.288944244384766 7.5999999046325684 -45.133918762207031
v 47.068771362304688 5.5669116973876953 -45.133918762207031
v 47.068771362304688 7.5999999046325684 -45.133918762207031
f 66 65 67 68
f 68 67 69 70
f 70 69 71 72
f 72 71 65 66
f 71 69 67 65
f 72 66 68 70
g object_10
v 47.068771362304688 5.5669116973876953 -45.133918762207031
v 47.068771362304688 7.5999999046325684 -45.133918762207031
v 50.288944244384766 5.5669116973876953 -45.133918762207031
v 50.288944244384766 7.5999999046325684 -45.133918762207031
v 50.288944244384766 5.5669116973876953 -48.308517456054688
v 50.288944244384766 7.5999999046325684 -48.308517456054688
v 47.068771362304688 5.5669116973876953 -48.308517456054688
v 47.068771362304688 7.5999999046325684 -48.308517456054688
f 74 73 75 76
f 76 75 77 78
f 78 77 79 80
f 80 79 73 74
f 79 77 75 73
f 80 74 76 78
g object_11
v 43.848598480224609 5.5669116973876953 -41.959320068359375
v 43.848598480224609 7.5999999046325684 -41.959320068359375
v 47.068771362304688 5.5669116973876953 -41.959320068359375
v 47.068771362304688 7.5999999046325684 -41.959320068359375
v 47.068771362304688 5.5669116973876953 -45.133918762207031
v 47.068771362304688 7.5999999046325684 -45.133918762207031
v 43.848598480224609 5.5669116973876953 -45.133918762207031
v 43.848598480224609 7.5999999046325684 -45.133918762207031
f 82 81 83 84
f 84 83 85 86
f 86 85 87 88
f 88 87 81 82
f 87 85 83 81
f 88 82 84 86
g object_12
v 43.848598480224609 5.5669116973876953 -45.133918762207031
v 43.848598480224609 7.5999999046325684 -45.133918762207031
v 47.068771362304688 5.5669116973876953 -45.133918762207031
v 47.068771362304688 7.5999999046325684 -45.133918762207031
v 47.068771362304688 5.5669116973876953 -48.308517456054688
v 47.068771362304688 7.5999999046325684 -48.308517456054688
v 43.848598480224609 5.5669116973876953 -48.308517456054688
v 43.848598480224609 7.5999999046325684 -48.308517456054688
f 90 89 91 92
f 92 91 93 94
f 94 93 95 96
f 96 95 89 90
f 95 93 91 89
f 96 90 92 94
g object_13
v 40.628425598144531 5.5669116973876953 -41.959320068359375
v 40.628425598144531 7.5999999046325684 -41.959320068359375
v 43.848598480224609 5.5669116973876953 -41.959320068359375
v 43.848598480224609 7.5999999046325684 -41.959320068359375
v 43.848598480224609 5.5669116973876953 -45.133918762207031
v 43.848598480224609 7.5999999046325684 -45.133918762207031
v 40.628425598144531 5.5669116973876953 -45.133918762207031
v 40.628425598144531 7.5999999046325684 -45.133918762207031
f 98 97 99 100
f 100 99 101 102
f 102 101 103 104
f 104 103 97 98
f 103 101 99 97
f 104 98 100 102
g object_14
v 40.628425598144531 5.5669116973876953 -45.133918762207031
v 40.628425598144531 7.5999999046325684 -45.133918762207031
v 43.848598480224609 5.5669116973876953 -45.133918762207031
v 43.848598480224609 7.5999999046325684 -45.133918762207031
v 43.848598480224609 5.5669116973876953 -48.308517456054688
v 43.848598480224609 7.5999999046325684 -48.308517456054688
v 40.628425598144531 5.5669116973876953 -48.308517456054688
v 40.628425598144531 7.5999999046325684 -48.308517456054688
f 106 105 107 108
f 108 107 109 110
f 110 109 111 112
f 112 111 105 106
f 111 109 107 105
f 112 106 108 110
g object_15
v 37.408252716064453 5.5669116973876953 -41.959320068359375
v 37.408252716064453 7.5999999046325684 -41.959320068359375
v 40.628425598144531 5.5669116973876953 -41.959320068359375
v 40.628425598144531 7.5999999046325684 -41.959320068359375
v 40.628425598144531 5.5669116973876953 -45.133918762207031
v 40.628425598144531 7.5999999046325684 -45.133918762207031
v 37.408252716064453 5.5669116973876953 -45.133918762207031
v 37.408252716064453 7.5999999046325684 -45.133918762207031
f 114 113 115 116
f 116 115 117 118
f 118 117 119 120
f 120 119 113 114
f 119 117 115 113
f 120 114 116 118
g object_16
v 37.408252716064453 5.5669116973876953 -45.133918762207031
v 37.408252716064453 7.5999999046325684 -45.133918762207031
v 40.628425598144531 5.5669116973876953 -45.133918762207031
v 40.628425598144531 7.5999999046325684 -45.133918762207031
v 40.628425598144531 5.5669116973876953 -48.308517456054688
v 40.628425598144531 7.5999999046325684 -48.308517456054688
v 37.408252716064453 5.5669116973876953 -48.308517456054688
v 37.408252716064453 7.5999999046325684 -48.308517456054688
f 122 121 123 124
f 124 123 125 126
f 126 125 127 128
f 128 127 121 122
f 127 125 123 121
f 128 122 124 126
g object_17
v 32.755352020263672 5.5669116973876953 -45.133918762207031
v 32.755352020263672 7.5999999046325684 -45.133918762207031
v 37.408252716064453 5.5669116973876953 -45.133918762207031
v 37.408252716064453 7.5999999046325684 -45.133918762207031
v 37.408252716064453 5.5669116973876953 -48.308517456054688
v 37.408252716064453 7.5999999046325684 -48.308517456054688
v 32.755352020263672 5.5669116973876953 -48.308517456054688
v 32.755352020263672 7.5999999046325684 -48.308517456054688
f 130 129 131 132
f 132 131 133 134
f 134 133 135 136
f 136 135 129 130
f 135 133 131 129
f 136 130 132 134
g object_18
v 32.755352020263672 5.5669116973876953 -41.959320068359375
v 32.755352020263672 7.5999999046325684 -41.959320068359375
v 37.408252716064453 5.5669116973876953 -41.959320068359375
v 37.408252716064453 7.5999999046325684 -41.959320068359375
v 37.408252716064453 5.5669116973876953 -45.133918762207031
v 37.408252716064453 7.5999999046325684 -45.133918762207031
v 32.755352020263672 5.5669116973876953 -45.133918762207031
v 32.755352020263672 7.5999999046325684 -45.133918762207031
f 138 137 139 140
f 140 139 141 142
f 142 141 143 144
f 144 143 137 138
f 143 141 139 137
f 144 138 140 142
g object_19
v 32.755352020263672 7.5999999046325684 -41.959320068359375
v 32.755352020263672 11.399999618530273 -41.959320068359375
v 37.408252716064453 7.5999999046325684 -41.959320068359375
v 37.408252716064453 11.399999618530273 -41.959320068359375
v 37.408252716064453 7.5999999046325684 -45.133918762207031
v 37.408252716064453 11.399999618530273 -45.133918762207031
v 32.755352020263672 7.5999999046325684 -45.133918762207031
v 32.755352020263672 11.399999618530273 -45.133918762207031
f 146 145 147 148
f 148 147 149 150
f 150 149 151 152
f 152 151 145 146
f 151 149 147 145
f 152 146 148 150
g object_20
v 32.755352020263672 7.5999999046325684 -45.133918762207031
v 32.755352020263672 11.399999618530273 -45.133918762207031
v 37.408252716064453 7.5999999046325684 -45.133918762207031
v 37.408252716064453 11.399999618530273 -45.133918762207031
v 37.408252716064453 7.5999999046325684 -48.308517456054688
v 37.408252716064453 11.399999618530273 -48.308517456054688
v 32.755352020263672 7.5999999046325684 -48.308517456054688
v 32.755352020263672 11.399999618530273 -48.308517456054688
f 154 153 155 156
f 156 155 157 158
f 158 157 159 160
f 160 159 153 154
f 159 157 155 153
f 160 154 156 158
g object_21
v 37.408252716064453 7.5999999046325684 -45.133918762207031
v 37.408252716064453 11.399999618530273 -45.133918762207031
v 40.628425598144531 7.5999999046325684 -45.133918762207031
v 40.628425598144531 11.399999618530273 -45.133918762207031
v 40.628425598144531 7.5999999046325684 -48.308517456054688
v 40.628425598144531 11.399999618530273 -48.308517456054688
v 37.408252716064453 7.5999999046325684 -48.308517456054688
v 37.408252716064453 11.399999618530273 -48.308517456054688
f 163 161 167 165
f 168 162 164 166
f 161 163 164 162
f 163 165 166 164
f 165 167 168 166
f 167 161 162 168
g object_22
v 37.408252716064453 7.5999999046325684 -41.959320068359375
v 37.408252716064453 11.399999618530273 -41.959320068359375
v 40.628425598144531 7.5999999046325684 -41.959320068359375
v 40.628425598144531 11.399999618530273 -41.959320068359375
v 40.628425598144531 7.5999999046325684 -45.133918762207031
v 40.628425598144531 11.399999618530273 -45.133918762207031
v 37.408252716064453 7.5999999046325684 -45.133918762207031
v 37.408252716064453 11.399999618530273 -45.133918762207031
f 171 169 175 173
f 176 170 172 174
f 169 171 172 170
f 171 173 174 172
f 173 175 176 174
f 175 169 170 176
g object_23
v 40.628425598144531 7.5999999046325684 -45.133918762207031
v 40.628425598144531 11.399999618530273 -45.133918762207031
v 43.848598480224609 7.5999999046325684 -45.133918762207031
v 43.848598480224609 11.399999618530273 -45.133918762207031
v 43.848598480224609 7.5999999046325684 -48.308517456054688
v 43.848598480224609 11.399999618530273 -48.308517456054688
v 40.628425598144531 7.5999999046325684 -48.308517456054688
v 40.628425598144531 11.399999618530273 -48.308517456054688
f 179 177 183 181
f 184 178 180 182
f 177 179 180 178
f 179 181 182 180
f 181 183 184 182
f 183 177 178 184
g object_24
v 40.628425598144531 7.5999999046325684 -41.959320068359375
v 40.628425598144531 11.399999618530273 -41.959320068359375
v 43.848598480224609 7.5999999046325684 -41.959320068359375
v 43.848598480224609 11.399999618530273 -41.959320068359375
v 43.848598480224609 7.5999999046325684 -45.133918762207031
v 43.848598480224609 11.399999618530273 -45.133918762207031
v 40.628425598144531 7.5999999046325684 -45.133918762207031
v 40.628425598144531 11.399999618530273 -45.133918762207031
f 187 185 191 189
f 192 186 188 190
f 185 187 188 186
f 187 189 190 188
f 189 191 192 190
f 191 185 186 192
g object_25
v 43.848598480224609 7.5999999046325684 -45.133918762207031
v 43.848598480224609 11.399999618530273 -45.133918762207031
v 47.068771362304688 7.5999999046325684 -45.133918762207031
v 47.068771362304688 11.399999618530273 -45.133918762207031
v 47.068771362304688 7.5999999046325684 -48.308517456054688
v 47.068771362304688 11.399999618530273 -48.308517456054688
v 43.848598480224609 7.5999999046325684 -48.308517456054688
v 43.848598480224609 11.399999618530273 -48.308517456054688
f 195 193 199 197
f 200 194 196 198
f 193 195 196 194
f 195 197 198 196
f 197 199 200 198
f 199 193 194 200
g object_26
v 43.848598480224609 7.5999999046325684 -41.959320068359375
v 43.848598480224609 11.399999618530273 -41.959320068359375
v 47.068771362304688 7.5999999046325684 -41.959320068359375
v 47.068771362304688 11.399999618530273 -41.959320068359375
v 47.068771362304688 7.5999999046325684 -45.133918762207031
v 47.068771362304688 11.399999618530273 -45.133918762207031
v 43.848598480224609 7.5999999046325684 -45.133918762207031
v 43.848598480224609 11.399999618530273 -45.133918762207031
f 203 201 207 205
f 208 202 204 206
f 201 203 204 202
f 203 205 206 204
f 205 207 208 206
f 207 201 202 208
g object_27
v 47.068771362304688 7.5999999046325684 -45.133918762207031
v 47.068771362304688 11.399999618530273 -45.133918762207031
v 50.288944244384766 7.5999999046325684 -45.133918762207031
v 50.288944244384766 11.399999618530273 -45.133918762207031
v 50.288944244384766 7.5999999046325684 -48.308517456054688
v 50.288944244384766 11.399999618530273 -48.308517456054688
v 47.068771362304688 7.5999999046325684 -48.308517456054688
v 47.068771362304688 11.399999618530273 -48.308517456054688
f 211 209 215 213
f 216 210 212 214
f 209 211 212 210
f 211 213 214 212
f 213 215 216 214
f 215 209 210 216
g object_28
v 47.068771362304688 7.5999999046325684 -41.959320068359375
v 47.068771362304688 11.399999618530273 -41.959320068359375
v 50.288944244384766 7.5999999046325684 -41.959320068359375
v 50.288944244384766 11.399999618530273 -41.959320068359375
v 50.288944244384766 7.5999999046325684 -45.133918762207031
v 50.288944244384766 11.399999618530273 -45.133918762207031
v 47.068771362304688 7.5999999046325684 -45.133918762207031
v 47.068771362304688 11.399999618530273 -45.133918762207031
f 219 217 223 221
f 224 218 220 222
f 217 219 220 218
f 219 221 222 220
f 221 223 224 222
f 223 217 218 224
g object_29
v 50.288944244384766 7.5999999046325684 -45.133918762207031
v 50.288944244384766 11.399999618530273 -45.133918762207031
v 53.509117126464844 7.5999999046325684 -45.133918762207031
v 53.509117126464844 11.399999618530273 -45.133918762207031
v 53.509117126464844 7.5999999046325684 -48.308517456054688
v 53.509117126464844 11.399999618530273 -48.308517456054688
v 50.288944244384766 7.5999999046325684 -48.308517456054688
v 50.288944244384766 11.399999618530273 -48.308517456054688
f 227 225 231 229
f 232 226 228 230
f 225 227 228 226
f 227 229 230 228
f 229 231 232 230
f 231 225 226 232
g object_30
v 50.288944244384766 7.5999999046325684 -41.959320068359375
v 50.288944244384766 11.399999618530273 -41.959320068359375
v 53.509117126464844 7.5999999046325684 -41.959320068359375
v 53.509117126464844 11.399999618530273 -41.959320068359375
v 53.509117126464844 7.5999999046325684 -45.133918762207031
v 53.509117126464844 11.399999618530273 -45.133918762207031
v 50.288944244384766 7.5999999046325684 -45.133918762207031
v 50.288944244384766 11.399999618530273 -45.133918762207031
f 235 233 239 237
f 240 234 236 238
f 233 235 236 234
f 235 237 238 236
f 237 239 240 238
f 239 233 234 240
g object_31
v 53.509117126464844 7.5999999046325684 -45.133918762207031
v 53.509117126464844 11.399999618530273 -45.133918762207031
v 56.729290008544922 7.5999999046325684 -45.133918762207031
v 56.729290008544922 11.399999618530273 -45.133918762207031
v 56.729290008544922 7.5999999046325684 -48.308517456054688
v 56.729290008544922 11.399999618530273 -48.308517456054688
v 53.509117126464844 7.5999999046325684 -48.308517456054688
v 53.509117126464844 11.399999618530273 -48.308517456054688
f 243 241 247 245
f 248 242 244 246
f 241 243 244 242
f 243 245 246 244
f 245 247 248 246
f 247 241 242 248
g object_32
v 53.509117126464844 7.5999999046325684 -41.959320068359375
v 53.509117126464844 11.399999618530273 -41.959320068359375
v 56.729290008544922 7.5999999046325684 -41.959320068359375
v 56.729290008544922 11.399999618530273 -41.959320068359375
v 56.729290008544922 7.5999999046325684 -45.133918762207031
v 56.729290008544922 11.399999618530273 -45.133918762207031
v 53.509117126464844 7.5999999046325684 -45.133918762207031
v 53.509117126464844 11.399999618530273 -45.133918762207031
f 251 249 255 253
f 256 250 252 254
f 249 251 252 250
f 251 253 254 252
f 253 255 256 254
f 255 249 250 256
g object_33
v 56.729290008544922 7.5999999046325684 -45.133918762207031
v 56.729290008544922 11.399999618530273 -45.133918762207031
v 59.949462890625 7.5999999046325684 -45.133918762207031
v 59.949462890625 11.399999618530273 -45.133918762207031
v 59.949462890625 7.5999999046325684 -48.308517456054688
v 59.949462890625 11.399999618530273 -48.308517456054688
v 56.729290008544922 7.5999999046325684 -48.308517456054688
v 56.729290008544922 11.399999618530273 -48.308517456054688
f 259 257 263 261
f 264 258 260 262
f 257 259 260 258
f 259 261 262 260
f 261 263 264 262
f 263 257 258 264
g object_34
v 56.729290008544922 7.5999999046325684 -41.959320068359375
v 56.729290008544922 11.399999618530273 -41.959320068359375
v 59.949462890625 7.5999999046325684 -41.959320068359375
v 59.949462890625 11.399999618530273 -41.959320068359375
v 59.949462890625 7.5999999046325684 -45.133918762207031
v 59.949462890625 11.399999618530273 -45.133918762207031
v 56.729290008544922 7.5999999046325684 -45.133918762207031
v 56.729290008544922 11.399999618530273 -45.133918762207031
f 267 265 271 269
f 272 266 268 270
f 265 267 268 266
f 267 269 270 268
f 269 271 272 270
f 271 265 266 272
g object_35
v 59.949462890625 7.5999999046325684 -45.133918762207031
v 59.949462890625 11.399999618530273 -45.133918762207031
v 63.169635772705078 7.5999999046325684 -45.133918762207031
v 63.169635772705078 11.399999618530273 -45.133918762207031
v 63.169635772705078 7.5999999046325684 -48.308517456054688
v 63.169635772705078 11.399999618530273 -48.308517456054688
v 59.949462890625 7.5999999046325684 -48.308517456054688
v 59.949462890625 11.399999618530273 -48.308517456054688
f 275 273 279 277
f 280 274 276 278
f 273 275 276 274
f 275 277 278 276
f 277 279 280 278
f 279 273 274 280
g object_36
v 59.949462890625 7.5999999046325684 -41.959320068359375
v 59.949462890625 11.399999618530273 -41.959320068359375
v 63.169635772705078 7.5999999046325684 -41.959320068359375
v 63.169635772705078 11.399999618530273 -41.959320068359375
v 63.169635772705078 7.5999999046325684 -45.133918762207031
v 63.169635772705078 11.399999618530273 -45.133918762207031
v 59.949462890625 7.5999999046325684 -45.133918762207031
v 59.949462890625 11.399999618530273 -45.133918762207031
f 283 281 287 285
f 288 282 284 286
f 281 283 284 282
f 283 285 286 284
f 285 287 288 286
f 287 281 282 288
g object_37
v 32.755352020263672 11.399999618530273 -41.959320068359375
v 32.755352020263672 15.199999809265137 -41.959320068359375
v 37.408252716064453 11.399999618530273 -41.959320068359375
v 37.408252716064453 15.199999809265137 -41.959320068359375
v 37.408252716064453 11.399999618530273 -45.133918762207031
v 37.408252716064453 15.199999809265137 -45.133918762207031
v 32.755352020263672 11.399999618530273 -45.133918762207031
v 32.755352020263672 15.199999809265137 -45.133918762207031
f 290 289 291 292
f 292 291 293 294
f 294 293 295 296
f 296 295 289 290
f 295 293 291 289
f 296 290 292 294
g object_38
v 32.755352020263672 11.399999618530273 -45.133918762207031
v 32.755352020263672 15.199999809265137 -45.133918762207031
v 37.408252716064453 11.399999618530273 -45.133918762207031
v 37.408252716064453 15.199999809265137 -45.133918762207031
v 37.408252716064453 11.399999618530273 -48.308517456054688
v 37.408252716064453 15.199999809265137 -48.308517456054688
v 32.755352020263672 11.399999618530273 -48.308517456054688
v 32.755352020263672 15.199999809265137 -48.308517456054688
f 298 297 299 300
f 300 299 301 302
f 302 301 303 304
f 304 303 297 298
f 303 301 299 297
f 304 298 300 302
g object_39
v 37.408252716064453 11.399999618530273 -45.133918762207031
v 37.408252716064453 15.199999809265137 -45.133918762207031
v 40.628425598144531 11.399999618530273 -45.133918762207031
v 40.628425598144531 15.199999809265137 -45.133918762207031
v 40.628425598144531 11.399999618530273 -48.308517456054688
v 40.628425598144531 15.199999809265137 -48.308517456054688
v 37.408252716064453 11.399999618530273 -48.308517456054688
v 37.408252716064453 15.199999809265137 -48.308517456054688
f 307 305 311 309
f 312 306 308 310
f 305 307 308 306
f 307 309 310 308
f 309 311 312 310
f 311 305 306 312
g object_40
v 37.408252716064453 11.399999618530273 -41.959320068359375
v 37.408252716064453 15.199999809265137 -41.959320068359375
v 40.628425598144531 11.399999618530273 -41.959320068359375
v 40.628425598144531 15.199999809265137 -41.959320068359375
v 40.628425598144531 11.399999618530273 -45.133918762207031
v 40.628425598144531 15.199999809265137 -45.133918762207031
v 37.408252716064453 11.399999618530273 -45.133918762207031
v 37.408252716064453 15.199999809265137 -45.133918762207031
f 315 313 319 317
f 320 314 316 318
f 313 315 316 314
f 315 317 318 316
f 317 319 320 318
f 319 313 314 320
g object_41
v 40.628425598144531 11.399999618530273 -45.133918762207031
v 40.628425598144531 15.199999809265137 -45.133918762207031
v 43.848598480224609 11.399999618530273 -45.133918762207031
v 43.848598480224609 15.199999809265137 -45.133918762207031
v 43.848598480224609 11.399999618530273 -48.308517456054688
v 43.848598480224609 15.199999809265137 -48.308517456054688
v 40.628425598144531 11.399999618530273 -48.308517456054688
v 40.628425598144531 15.199999809265137 -48.308517456054688
f 323 321 327 325
f 328 322 324 326
f 321 323 324 322
f 323 325 326 324
f 325 327 328 326
f 327 321 322 328
g object_42
v 40.628425598144531 11.399999618530273 -41.959320068359375
v 40.628425598144531 15.199999809265137 -41.959320068359375
v 43.848598480224609 11.399999618530273 -41.959320068359375
v 43.848598480224609 15.199999809265137 -41.959320068359375
v 43.848598480224609 11.399999618530273 -45.133918762207031
v 43.848598480224609 15.199999809265137 -45.133918762207031
v 40.628425598144531 11.399999618530273 -45.133918762207031
v 40.628425598144531 15.199999809265137 -45.133918762207031
f 331 329 335 333
f 336 330 332 334
f 329 331 332 330
f 331 333 334 332
f 333 335 336 334
f 335 329 330 336
g object_43
v 43.848598480224609 11.399999618530273 -45.133918762207031
v 43.848598480224609 15.199999809265137 -45.133918762207031
v 47.068771362304688 11.399999618530273 -45.133918762207031
v 47.068771362304688 15.199999809265137 -45.133918762207031
v 47.068771362304688 11.399999618530273 -48.308517456054688
v 47.068771362304688 15.199999809265137 -48.308517456054688
v 43.848598480224609 11.399999618530273 -48.308517456054688
v 43.848598480224609 15.199999809265137 -48.308517456054688
f 339 337 343 341
f 344 338 340 342
f 337 339 340 338
f 339 341 342 340
f 341 343 344 342
f 343 337 338 344
g object_44
v 43.848598480224609 11.399999618530273 -41.959320068359375
v 43.848598480224609 15.199999809265137 -41.959320068359375
v 47.068771362304688 11.399999618530273 -41.959320068359375
v 47.068771362304688 15.199999809265137 -41.959320068359375
v 47.068771362304688 11.399999618530273 -45.133918762207031
v 47.068771362304688 15.199999809265137 -45.133918762207031
v 43.848598480224609 11.399999618530273 -45.133918762207031
v 43.848598480224609 15.199999809265137 -45.133918762207031
f 347 345 351 349
f 352 346 348 350
f 345 347 348 346
f 347 349 350 348
f 349 351 352 350
f 351 345 346 352
g object_45
v 47.068771362304688 11.399999618530273 -45.133918762207031
v 47.068771362304688 15.199999809265137 -45.133918762207031
v 50.288944244384766 11.399999618530273 -45.133918762207031
v 50.288944244384766 15.199999809265137 -45.133918762207031
v 50.288944244384766 11.399999618530273 -48.308517456054688
v 50.288944244384766 15.199999809265137 -48.308517456054688
v 47.068771362304688 11.399999618530273 -48.308517456054688
v 47.068771362304688 15.199999809265137 -48.308517456054688
f 355 353 359 357
f 360 354 356 358
f 353 355 356 354
f 355 357 358 356
f 357 359 360 358
f 359 353 354 360
g object_46
v 47.068771362304688 11.399999618530273 -41.959320068359375
v 47.068771362304688 15.199999809265137 -41.959320068359375
v 50.288944244384766 11.399999618530273 -41.959320068359375
v 50.288944244384766 15.199999809265137 -41.959320068359375
v 50.288944244384766 11.399999618530273 -45.133918762207031
v 50.288944244384766 15.199999809265137 -45.133918762207031
v 47.068771362304688 11.399999618530273 -45.133918762207031
v 47.068771362304688 15.199999809265137 -45.133918762207031
f 363 361 367 365
f 368 362 364 366
f 361 363 364 362
f 363 365 366 364
f 365 367 368 366
f 367 361 362 368
g object_47
v 50.288944244384766 11.399999618530273 -45.133918762207031
v 50.288944244384766 15.199999809265137 -45.133918762207031
v 53.509117126464844 11.399999618530273 -45.133918762207031
v 53.509117126464844 15.199999809265137 -45.133918762207031
v 53.509117126464844 11.399999618530273 -48.308517456054688
v 53.509117126464844 15.199999809265137 -48.308517456054688
v 50.288944244384766 11.399999618530273 -48.308517456054688
v 50.288944244384766 15.199999809265137 -48.308517456054688
f 371 369 375 373
f 376 370 372 374
f 369 371 372 370
f 371 373 374 372
f 373 375 376 374
f 375 369 370 376
g object_48
v 50.288944244384766 11.399999618530273 -41.959320068359375
v 50.288944244384766 15.199999809265137 -41.959320068359375
v 53.509117126464844 11.399999618530273 -41.959320068359375
v 53.509117126464844 15.199999809265137 -41.959320068359375
v 53.509117126464844 11.399999618530273 -45.133918762207031
v 53.509117126464844 15.199999809265137 -45.133918762207031
v 50.288944244384766 11.399999618530273 -45.133918762207031
v 50.288944244384766 15.199999809265137 -45.133918762207031
f 379 377 383 381
f 384 378 380 382
f 377 379 380 378
f 379 381 382 380
f 381 383 384 382
f 383 377 378 384
g object_49
v 53.509117126464844 11.399999618530273 -45.133918762207031
v 53.509117126464844 15.199999809265137 -45.133918762207031
v 56.729290008544922 11.399999618530273 -45.133918762207031
v 56.729290008544922 15.199999809265137 -45.133918762207031
v 56.729290008544922 11.399999618530273 -48.308517456054688
v 56.729290008544922 15.199999809265137 -48.308517456054688
v 53.509117126464844 11.399999618530273 -48.308517456054688
v 53.509117126464844 15.199999809265137 -48.308517456054688
f 387 385 391 389
f 392 386 388 390
f 385 387 388 386
f 387 389 390 388
f 389 391 392 390
f 391 385 386 392
g object_50
v 53.509117126464844 11.399999618530273 -41.959320068359375
v 53.509117126464844 15.199999809265137 -41.959320068359375
v 56.729290008544922 11.399999618530273 -41.959320068359375
v 56.729290008544922 15.199999809265137 -41.959320068359375
v 56.729290008544922 11.399999618530273 -45.133918762207031
v 56.729290008544922 15.199999809265137 -45.133918762207031
v 53.509117126464844 11.399999618530273 -45.133918762207031
v 53.509117126464844 15.199999809265137 -45.133918762207031
f 395 393 399 397
f 400 394 396 398
f 393 395 396 394
f 395 397 398 396
f 397 399 400 398
f 399 393 394 400
g object_51
v 56.729290008544922 11.399999618530273 -45.133918762207031
v 56.729290008544922 15.199999809265137 -45.133918762207031
v 59.949462890625 11.399999618530273 -45.133918762207031
v 59.949462890625 15.199999809265137 -45.133918762207031
v 59.949462890625 11.399999618530273 -48.308517456054688
v 59.949462890625 15.199999809265137 -48.308517456054688
v 56.729290008544922 11.399999618530273 -48.308517456054688
v 56.729290008544922 15.199999809265137 -48.308517456054688
f 403 401 407 405
f 408 402 404 406
f 401 403 404 402
f 403 405 406 404
f 405 407 408 406
f 407 401 402 408
g object_52
v 56.729290008544922 11.399999618530273 -41.959320068359375
v 56.729290008544922 15.199999809265137 -41.959320068359375
v 59.949462890625 11.399999618530273 -41.959320068359375
v 59.949462890625 15.199999809265137 -41.959320068359375
v 59.949462890625 11.399999618530273 -45.133918762207031
v 59.949462890625 15.199999809265137 -45.133918762207031
v 56.729290008544922 11.399999618530273 -45.133918762207031
v 56.729290008544922 15.199999809265137 -45.133918762207031
f 411 409 415 413
f 416 410 412 414
f 409 411 412 410
f 411 413 414 412
f 413 415 416 414
f 415 409 410 416
g object_53
v 59.949462890625 11.399999618530273 -45.133918762207031
v 59.949462890625 15.199999809265137 -45.133918762207031
v 63.169635772705078 11.399999618530273 -45.133918762207031
v 63.169635772705078 15.199999809265137 -45.133918762207031
v 63.169635772705078 11.399999618530273 -48.308517456054688
v 63.169635772705078 15.199999809265137 -48.308517456054688
v 59.949462890625 11.399999618530273 -48.308517456054688
v 59.949462890625 15.199999809265137 -48.308517456054688
f 419 417 423 421
f 424 418 420 422
f 417 419 420 418
f 419 421 422 420
f 421 423 424 422
f 423 417 418 424
g object_54
v 59.949462890625 11.399999618530273 -41.959320068359375
v 59.949462890625 15.199999809265137 -41.959320068359375
v 63.169635772705078 11.399999618530273 -41.959320068359375
v 63.169635772705078 15.199999809265137 -41.959320068359375
v 63.169635772705078 11.399999618530273 -45.133918762207031
v 63.169635772705078 15.199999809265137 -45.133918762207031
v 59.949462890625 11.399999618530273 -45.133918762207031
v 59.949462890625 15.199999809265137 -45.133918762207031
f 427 425 431 429
f 432 426 428 430
f 425 427 428 426
f 427 429 430 428
f 429 431 432 430
f 431 425 426 432
