# Rhino

g object_1
v 86.615066528320312 0 -60.735572814941406
v 86.615066528320312 0 -62.490516662597656
v 89.103302001953125 0 -62.49005126953125
v 89.103302001953125 0 -72.789306640625
v 74.80108642578125 0 -72.789306640625
v 74.800621032714844 0 -73.670753479003906
v 74.800621032714844 0 -74.555465698242188
v 77.288856506347656 0 -74.555000305175781
v 77.288856506347656 0 -87.766860961914062
v 4.0008654594421387 0 -87.766860961914062
v 4.0008654594421387 0 -74.555000305175781
v 57.645164489746094 0 -74.553634643554688
v 57.645164489746094 0 -72.789306640625
v 55.157394409179688 0 -72.789306640625
v 55.156459808349609 0 -63.339714050292969
v 55.156929016113281 0 -62.490516662597656
v 57.658248901367188 0 -62.49005126953125
v 57.658248901367188 0 -61.536632537841797
v 57.661052703857422 0 -60.735572814941406
v 26.116687774658203 0 -60.735572814941406
v 26.116687774658203 0 -54.988243103027344
v 24.495626449584961 0 -54.988243103027344
v 24.495626449584961 0 -60.685153961181641
v 14.247597694396973 0 -60.685153961181641
v 14.247597694396973 0 -41.795608520507812
v 17.648351669311523 0 -41.794502258300781
v 17.648351669311523 0 -40.251319885253906
v 14.24630069732666 0 -40.251319885253906
v 14.24630069732666 0 -26.547042846679688
v 17.648351669311523 0 -26.547042846679688
v 17.648351669311523 0 -24.894996643066406
v 14.24630069732666 0 -24.894996643066406
v 14.24630069732666 0 -6.2692065238952637
v 12.581454277038574 0 -6.2692065238952637
v 12.581454277038574 0 -24.888515472412109
v 5.6919636726379395 0 -24.888515472412109
v 5.6919636726379395 0 -6.2692065238952637
v 4.0562849044799805 0 -6.2692065238952637
v 4.0562849044799805 0 -26.524194717407227
v 12.581454277038574 0 -26.524194717407227
v 12.581454277038574 0 -40.244838714599609
v -16.378843307495117 0 -40.244838714599609
v -16.378843307495117 0 -26.524194717407227
v -7.9120097160339355 0 -26.524194717407227
v -7.9120097160339355 0 19.369770050048828
v -16.378843307495117 0 19.369770050048828
v -16.378843307495117 0 36.478118896484375
v 12.581454277038574 0 36.478118896484375
v 12.581454277038574 0 19.369770050048828
v 4.0562849044799805 0 19.369770050048828
v 4.0562849044799805 0 -1.0469036102294922
v 5.6919636726379395 0 -1.0469036102294922
v 5.6919636726379395 0 17.676078796386719
v 12.581454277038574 0 17.676078796386719
v 12.581454277038574 0 -1.0469036102294922
v 14.24630069732666 0 -1.0469036102294922
v 14.24630069732666 0 17.64820671081543
v 17.648351669311523 0 17.64820671081543
v 17.648351669311523 0 19.371065139770508
v 14.215836524963379 0 19.371065139770508
v 14.215836524963379 0 36.470664978027344
v 17.648351669311523 0 36.470664978027344
v 17.648351669311523 0 37.960666656494141
v 14.215836524963379 0 37.960666656494141
v 14.215836524963379 0 43.187740325927734
v 17.648351669311523 0 43.187740325927734
v 17.648351669311523 0 44.889209747314453
v 14.215836524963379 0 44.889209747314453
v 14.215836524963379 0 58.456886291503906
v 17.648351669311523 0 58.456886291503906
v 17.648290634155273 0 60.201938629150391
v 12.598850250244141 0 60.201587677001953
v -16.379463195800781 0 60.201587677001953
v -16.379463195800781 0 84.061119079589844
v 17.648696899414062 0 84.064857482910156
v 17.648357391357422 0 67.024368286132812
v 41.467212677001953 0 67.024368286132812
v 41.467212677001953 0 65.340469360351562
v 53.317390441894531 0 65.340469360351562
v 53.317390441894531 0 67.024368286132812
v 65.269706726074219 0 67.024368286132812
v 65.269706726074219 0 65.340469360351562
v 66.982589721679688 0 65.340469360351562
v 66.982589721679688 0 67.024368286132812
v 90.853569030761719 0 67.024368286132812
v 90.853569030761719 0 65.360565185546875
v 92.476715087890625 0 65.360565185546875
v 92.476715087890625 0 67.019699096679688
v 112.93502044677734 0 67.019699096679688
v 112.93502044677734 0 65.359161376953125
v 113.79263305664062 0 65.359161376953125
v 113.79263305664062 0 61.93994140625
v 112.93502044677734 0 61.93994140625
v 112.93502044677734 0 60.194343566894531
v 111.22167205810547 0 60.194343566894531
v 111.22167205810547 0 58.492210388183594
v 112.93502044677734 0 58.492679595947266
v 112.93502044677734 0 53.422737121582031
v 113.79216766357422 0 53.422737121582031
v 114.62686920166016 0 53.402172088623047
v 114.64369964599609 0 58.488471984863281
v 133.33584594726562 0 58.488471984863281
v 133.33584594726562 0 53.425540924072266
v 134.13690185546875 0 53.429744720458984
v 135.01226806640625 0 53.429744720458984
v 135.01226806640625 0 58.492210388183594
v 140.14202880859375 0 58.492210388183594
v 140.15652465820312 0 61.918441772460938
v 143.5579833984375 0 61.918441772460938
v 143.56172180175781 0 62.733055114746094
v 148.77561950683594 0 62.733055114746094
v 148.77186584472656 0 61.918441772460938
v 152.10929870605469 0 61.918441772460938
v 152.09434509277344 0 58.492210388183594
v 157.16709899902344 0 58.492210388183594
v 157.16709899902344 0 44.888236999511719
v 152.09434509277344 0 44.888236999511719
v 152.09434509277344 0 41.490047454833984
v 148.78355407714844 0 41.490047454833984
v 148.78355407714844 0 40.258083343505859
v 152.09434509277344 0 40.258083343505859
v 152.08796691894531 0 5.7000060081481934
v 151.00883483886719 0 5.7000060081481934
v 151.00883483886719 0 4.0146913528442383
v 152.08796691894531 0 4.0146913528442383
v 152.08796691894531 0 -11.335474967956543
v 151.00883483886719 0 -11.335474967956543
v 151.00883483886719 0 -13.020790100097656
v 152.09434509277344 0 -13.020790100097656
v 152.09434509277344 0 -48.698200225830078
v 147.89790344238281 0 -48.698200225830078
v 147.89790344238281 0 -49.482898712158203
v 147.89556884765625 0 -50.231613159179688
v 153.793212890625 0 -50.244232177734375
v 162.31321716308594 0 -50.263393402099609
v 162.31321716308594 0 -60.735572814941406
v 147.90959167480469 0 -60.735572814941406
v 147.90959167480469 0 -62.124755859375
v 152.08181762695312 0 -62.124755859375
v 152.08181762695312 0 -72.477790832519531
v 140.147216796875 0 -72.477790832519531
v 140.147216796875 0 -69.070938110351562
v 138.59159851074219 0 -69.070938110351562
v 138.59159851074219 0 -72.477790832519531
v 116.23558807373047 0 -72.477790832519531
v 116.23558807373047 0 -69.070938110351562
v 114.55022430419922 0 -69.070938110351562
v 114.55022430419922 0 -87.779670715332031
v 106.16622161865234 0 -87.779670715332031
v 106.16574859619141 0 -89.511985778808594
v 114.55022430419922 0 -89.539558410644531
v 114.60537719726562 0 -110.61431884765625
v 52.991504669189453 0 -110.61431884765625
v 52.991504669189453 0 -100.33294677734375
v 90.756721496582031 0 -100.33294677734375
v 90.775779724121094 0 -89.542671203613281
v 99.498367309570312 0 -89.548439025878906
v 99.501518249511719 0 -87.779670715332031
v 90.775779724121094 0 -87.779670715332031
v 90.775779724121094 0 -58.252479553222656
v 89.103302001953125 0 -58.252479553222656
v 89.103302001953125 0 -60.735572814941406
v 69.526435852050781 0 -48.698200225830078
v 66.962020874023438 0 -48.698200225830078
v 66.962020874023438 0 -6.2640657424926758
v 65.269706726074219 0 -6.2678046226501465
v 65.269706726074219 0 -11.335474967956543
v 64.190574645996094 0 -11.335474967956543
v 64.190574645996094 0 -13.020790100097656
v 65.269706726074219 0 -13.020790100097656
v 65.269706726074219 0 -48.698200225830078
v 61.041481018066406 0 -48.698200225830078
v 61.041481018066406 0 -50.436786651611328
v 65.407112121582031 0 -50.436317443847656
v 65.407112121582031 0 -52.898849487304688
v 66.205368041992188 0 -52.898387908935547
v 67.025115966796875 0 -52.898380279541016
v 67.025115966796875 0 -50.436786651611328
v 69.526435852050781 0 -50.436317443847656
v 81.341354370117188 0 -48.697963714599609
v 74.800621032714844 0 -48.698200225830078
v 74.800621032714844 0 -50.436786651611328
v 77.28839111328125 0 -50.436317443847656
v 77.28839111328125 0 -52.942779541015625
v 78.84002685546875 0 -52.942779541015625
v 78.84002685546875 0 -50.436786651611328
v 81.341354370117188 0 -50.436317443847656
v 95.853858947753906 0 -42.203891754150391
v 87.815567016601562 0 -37.060150146484375
v 87.172767639160156 0 -37.460269927978516
v 95.853858947753906 0 -43.060127258300781
v 109.47515869140625 0 -43.095069885253906
v 118.21580505371094 0 -37.497337341308594
v 117.57237243652344 0 -37.096828460693359
v 109.47515869140625 0 -42.239765167236328
v 125.71295928955078 0 -26.119436264038086
v 128.82757568359375 0 -13.129103660583496
v 128.19281005859375 0 -13.129103660583496
v 125.14521026611328 0 -25.766036987304688
v 128.02793884277344 0 0.49219700694084167
v 121.78075408935547 0 15.208467483520508
v 116.91753387451172 0 20.604406356811523
v 111.17166900634766 0 24.321039199829102
v 110.96820068359375 0 23.496059417724609
v 116.53569793701172 0 19.903375625610352
v 121.25653839111328 0 14.694866180419922
v 127.36550903320312 0 0.49219700694084167
v 78.060813903808594 0 0.49219700694084167
v 84.142852783203125 0 14.656484603881836
v 94.382316589355469 0 23.460939407348633
v 94.176979064941406 0 24.285051345825195
v 88.45806884765625 0 20.559991836547852
v 83.618080139160156 0 15.169000625610352
v 77.398384094238281 0 0.49219700694084167
v 80.261085510253906 0 -25.717935562133789
v 77.233421325683594 0 -13.129103660583496
v 76.598648071289062 0 -13.129103660583496
v 79.693382263183594 0 -26.071308135986328
v 98.636550903320312 0 0.89872437715530396
v 91.068443298339844 0 10.929839134216309
v 95.828193664550781 0 13.673869132995605
v 101.33885955810547 0 14.926544189453125
v 101.33885955810547 0 16.009841918945312
v 94.096229553222656 0 14.094815254211426
v 88.227691650390625 0 9.7810878753662109
v 84.294769287109375 0 3.6301934719085693
v 82.859016418457031 0 -3.7963318824768066
v 84.41912841796875 0 -11.523046493530273
v 88.673606872558594 0 -17.832801818847656
v 94.983665466308594 0 -22.086977005004883
v 102.71051788330078 0 -23.646951675415039
v 110.43723297119141 0 -22.086977005004883
v 116.74698638916016 0 -17.832801818847656
v 121.00116729736328 0 -11.523046493530273
v 122.56114196777344 0 -3.7963318824768066
v 121.12467193603516 0 3.632258415222168
v 117.18988037109375 0 9.7842826843261719
v 111.31864929199219 0 14.097702026367188
v 104.07288360595703 0 16.010475158691406
v 104.07288360595703 0 14.927209854125977
v 109.80611419677734 0 13.588173866271973
v 114.71057891845703 0 10.638886451721191
v 107.37528228759766 0 0.89872437715530396
v 107.37504577636719 0 0.89895009994506836
v 107.37434387207031 0 0.89962303638458252
v 107.37152862548828 0 0.90228456258773804
v 107.36027526855469 0 0.91269087791442871
v 107.31533813476562 0 0.95239579677581787
v 107.13613128662109 0 1.0958542823791504
v 106.42377471923828 0 1.5467991828918457
v 103.61002349853516 0 2.3674631118774414
v 103.61002349853516 0 1.6251093149185181
v 106.4676513671875 0 0.79395377635955811
v 107.19113159179688 0 0.3362547755241394
v 107.37313079833984 0 0.19059126079082489
v 107.41877746582031 0 0.15027053654193878
v 107.43019866943359 0 0.13970224559307098
v 107.43305969238281 0 0.13699916005134583
v 107.43377685546875 0 0.13631576299667358
v 107.43395233154297 0 0.13614395260810852
v 107.43401336669922 0 0.13608650863170624
v 115.09598541259766 0 10.309194564819336
v 119.756103515625 0 4.0741462707519531
v 121.48058319091797 0 -3.7962715625762939
v 120.00552368164062 0 -11.102396011352539
v 115.98291015625 0 -17.068691253662109
v 110.01661682128906 0 -21.091297149658203
v 102.71049499511719 0 -22.566356658935547
v 95.40423583984375 0 -21.091297149658203
v 89.437660217285156 0 -17.068691253662109
v 85.414764404296875 0 -11.102396011352539
v 83.9395751953125 0 -3.7962715625762939
v 85.765037536621094 0 4.2886137962341309
v 90.680419921875 0 10.614157676696777
v 98.579429626464844 0 0.13608650863170624
v 98.579666137695312 0 0.13628801703453064
v 98.580368041992188 0 0.13688892126083374
v 98.58319091796875 0 0.13926741480827332
v 98.594406127929688 0 0.14858037233352661
v 98.638717651367188 0 0.18422375619411469
v 98.811485290527344 0 0.31392964720726013
v 99.466781616210938 0 0.7298126220703125
v 101.80171203613281 0 1.5698188543319702
v 101.80171203613281 0 2.3111340999603271
v 67.025115966796875 0 -74.552223205566406
v 69.526435852050781 0 -74.552207946777344
v 69.526435852050781 0 -73.670753479003906
v 69.524101257324219 0 -72.789306640625
v 67.025588989257812 0 -72.789306640625
v 67.025115966796875 0 -69.025642395019531
v 67.025115966796875 0 -62.490516662597656
v 69.526435852050781 0 -62.49005126953125
v 74.800621032714844 0 -62.490516662597656
v 77.288856506347656 0 -62.49005126953125
v 78.84002685546875 0 -62.490516662597656
v 81.341354370117188 0 -62.49005126953125
v 81.341354370117188 0 -60.735572814941406
v 78.840499877929688 0 -60.735572814941406
v 78.84002685546875 0 -58.252479553222656
v 77.28839111328125 0 -58.252479553222656
v 77.28839111328125 0 -60.735572814941406
v 67.025588989257812 0 -60.735572814941406
v 67.025115966796875 0 -58.257152557373047
v 66.231071472167969 0 -58.255050659179688
v 65.407112121582031 0 -58.252479553222656
v 65.407112121582031 0 -60.735572814941406
v 62.933364868164062 0 -60.735572814941406
v 62.931961059570312 0 -61.536632537841797
v 62.931961059570312 0 -62.490516662597656
v 65.420196533203125 0 -62.49005126953125
v 65.420196533203125 0 -72.789306640625
v 62.918876647949219 0 -72.789306640625
v 62.918876647949219 0 -74.553634643554688
v 67.025115966796875 0 -74.555000305175781
v 69.526435852050781 0 -74.555000305175781
v 41.413211822509766 0 -55.814250946044922
v 43.093845367431641 0 -55.814250946044922
v 43.093845367431641 0 -50.436786651611328
v 53.397777557373047 0 -50.436786651611328
v 57.513835906982422 0 -50.436317443847656
v 57.513835906982422 0 -48.698200225830078
v 53.317390441894531 0 -48.698200225830078
v 53.317390441894531 0 -13.020790100097656
v 54.402900695800781 0 -13.020790100097656
v 54.402900695800781 0 -11.335474967956543
v 53.323772430419922 0 -11.335474967956543
v 53.320579528808594 0 -6.2715435028076172
v 51.647037506103516 0 -6.2715435028076172
v 51.647037506103516 0 -11.335474967956543
v 50.567909240722656 0 -11.335474967956543
v 50.567909240722656 0 -12.984715461730957
v 51.713943481445312 0 -12.984715461730957
v 51.713943481445312 0 -48.719451904296875
v 43.190071105957031 0 -48.719451904296875
v 43.190071105957031 0 -12.984715461730957
v 44.154048919677734 0 -12.984715461730957
v 44.154048919677734 0 -11.335474967956543
v 43.074916839599609 0 -11.335474967956543
v 43.074916839599609 0 -6.2692065238952637
v 42.239742279052734 0 -6.2668700218200684
v 41.413448333740234 0 -6.2645330429077148
v 41.413448333740234 0 -11.286805152893066
v 36.193946838378906 0 -11.286805152893066
v 36.193946838378906 0 -12.990339279174805
v 41.413448333740234 0 -12.990339279174805
v 41.413448333740234 0 -24.916482925415039
v 36.193946838378906 0 -24.916482925415039
v 36.193946838378906 0 -26.560815811157227
v 41.413448333740234 0 -26.560815811157227
v 65.269706726074219 0 -1.0422300100326538
v 66.962020874023438 0 -1.0422300100326538
v 66.962020874023438 0 43.211811065673828
v 85.680335998535156 0 43.211811065673828
v 85.701370239257812 0 36.459365844726562
v 94.177444458007812 0 36.459365844726562
v 94.177444458007812 0 38.147941589355469
v 87.443229675292969 0 38.148410797119141
v 87.443229675292969 0 43.211811065673828
v 94.177444458007812 0 43.211811065673828
v 94.177444458007812 0 44.893379211425781
v 66.947067260742188 0 44.893379211425781
v 66.947067260742188 0 58.497352600097656
v 94.177444458007812 0 58.497352600097656
v 94.177444458007812 0 60.194343566894531
v 92.476715087890625 0 60.194343566894531
v 92.476715087890625 0 61.928256988525391
v 90.853569030761719 0 61.928256988525391
v 90.853569030761719 0 60.201820373535156
v 66.982589721679688 0 60.201820373535156
v 66.982589721679688 0 61.913299560546875
v 65.269706726074219 0 61.913299560546875
v 65.269706726074219 0 44.893379211425781
v 61.869453430175781 0 44.893379211425781
v 61.869453430175781 0 43.211811065673828
v 65.269706726074219 0 43.211811065673828
v 65.269706726074219 0 5.7000060081481934
v 64.190574645996094 0 5.7000060081481934
v 64.190574645996094 0 4.0146913528442383
v 65.269706726074219 0 4.0146913528442383
v 32.911899566650391 0 19.371065139770508
v 32.911899566650391 0 12.237211227416992
v 34.663928985595703 0 12.237211227416992
v 34.663928985595703 0 19.371065139770508
v 90.775779724121094 0 -52.898380279541016
v 90.775779724121094 0 -49.484767913818359
v 100.95420074462891 0 -49.484767913818359
v 100.95420074462891 0 -48.698200225830078
v 86.615066528320312 0 -48.698314666748047
v 86.615066528320312 0 -50.436786651611328
v 89.103302001953125 0 -50.436317443847656
v 89.103302001953125 0 -52.898380279541016
v 44.154048919677734 0 44.893379211425781
v 43.074916839599609 0 44.893379211425781
v 43.074916839599609 0 58.497352600097656
v 53.317390441894531 0 58.497352600097656
v 53.317390441894531 0 61.913299560546875
v 41.467212677001953 0 61.913299560546875
v 41.467212677001953 0 60.201820373535156
v 21.103122711181641 0 60.201820373535156
v 21.103122711181641 0 58.456886291503906
v 41.467212677001953 0 58.456886291503906
v 41.467212677001953 0 44.889209747314453
v 21.103122711181641 0 44.889209747314453
v 21.103122711181641 0 43.187740325927734
v 24.504375457763672 0 43.187740325927734
v 24.504375457763672 0 37.960666656494141
v 21.103122711181641 0 37.960666656494141
v 21.103122711181641 0 36.470664978027344
v 24.504375457763672 0 36.470664978027344
v 24.504375457763672 0 19.371065139770508
v 21.103122711181641 0 19.371065139770508
v 21.103122711181641 0 17.64820671081543
v 24.504375457763672 0 17.64820671081543
v 24.504375457763672 0 12.237211227416992
v 17.321260452270508 0 12.237211227416992
v 17.321260452270508 0 4.0059914588928223
v 24.503080368041992 0 4.0059914588928223
v 24.503080368041992 0 -1.0469036102294922
v 26.116687774658203 0 -1.0469036102294922
v 26.116687774658203 0 4.0351905822753906
v 31.409563064575195 0 4.0351905822753906
v 31.409563064575195 0 5.7000060081481934
v 26.116687774658203 0 5.7000060081481934
v 26.116687774658203 0 43.211811065673828
v 44.154048919677734 0 43.211811065673828
v 31.4072265625 0 -12.114035606384277
v 31.407693862915039 0 -11.286805152893066
v 26.116687774658203 0 -11.286805152893066
v 26.116687774658203 0 -6.2645330429077148
v 24.503080368041992 0 -6.2645330429077148
v 24.503080368041992 0 -24.894996643066406
v 21.103122711181641 0 -24.894996643066406
v 21.103122711181641 0 -26.547042846679688
v 24.503080368041992 0 -26.547042846679688
v 24.503080368041992 0 -40.251319885253906
v 21.103122711181641 0 -40.251319885253906
v 21.103122711181641 0 -41.794502258300781
v 24.495626449584961 0 -41.795608520507812
v 24.495626449584961 0 -50.808517456054688
v 26.116687774658203 0 -50.808517456054688
v 26.116687774658203 0 -26.560815811157227
v 31.397878646850586 0 -26.560815811157227
v 31.397878646850586 0 -24.916950225830078
v 26.116687774658203 0 -24.916482925415039
v 26.116687774658203 0 -12.990339279174805
v 31.407693862915039 0 -12.990339279174805
v 139.30685424804688 0 -6.2715435028076172
v 138.45158386230469 0 -6.2715435028076172
v 138.45158386230469 0 -48.698200225830078
v 104.37481689453125 0 -48.698200225830078
v 104.37481689453125 0 -49.484767913818359
v 114.55022430419922 0 -49.484767913818359
v 114.55022430419922 0 -65.531608581542969
v 116.23558807373047 0 -65.531608581542969
v 116.23558807373047 0 -62.095588684082031
v 138.59159851074219 0 -62.095588684082031
v 138.59159851074219 0 -65.531608581542969
v 140.147216796875 0 -65.531608581542969
v 140.147216796875 0 -62.124755859375
v 144.37025451660156 0 -62.124755859375
v 144.37025451660156 0 -60.735572814941406
v 140.15512084960938 0 -60.735572814941406
v 140.15559387207031 0 -50.243762969970703
v 144.37025451660156 0 -50.243762969970703
v 144.37025451660156 0 -48.698200225830078
v 140.14202880859375 0 -48.698200225830078
v 140.14202880859375 0 -13.020790100097656
v 141.22116088867188 0 -13.020790100097656
v 141.22116088867188 0 -11.335474967956543
v 140.14202880859375 0 -11.335474967956543
v 140.14202880859375 0 -6.2715435028076172
v 139.30685424804688 0 -1.0492404699325562
v 140.14202880859375 0 -1.0492404699325562
v 140.14202880859375 0 4.0146913528442383
v 141.22116088867188 0 4.0146913528442383
v 141.22116088867188 0 5.7000060081481934
v 140.14202880859375 0 5.7000060081481934
v 140.14202880859375 0 40.258083343505859
v 143.57341003417969 0 40.258083343505859
v 143.57341003417969 0 41.490047454833984
v 140.14202880859375 0 41.490047454833984
v 140.14202880859375 0 45.072380065917969
v 135.01226806640625 0 45.072380065917969
v 135.01226806640625 0 49.980613708496094
v 134.13690185546875 0 49.980613708496094
v 133.33584594726562 0 49.990428924560547
v 133.33584594726562 0 44.889171600341797
v 114.64369964599609 0 44.889171600341797
v 114.64369964599609 0 49.990428924560547
v 113.79216766357422 0 49.988090515136719
v 112.92520904541016 0 49.988090515136719
v 112.92520904541016 0 44.888236999511719
v 111.22167205810547 0 44.888236999511719
v 111.22167205810547 0 43.211811065673828
v 118.08161163330078 0 43.211811065673828
v 118.08161163330078 0 38.148410797119141
v 111.21746826171875 0 38.150749206542969
v 111.21746826171875 0 36.46917724609375
v 119.812255859375 0 36.46917724609375
v 119.81178283691406 0 43.211341857910156
v 138.45158386230469 0 43.217418670654297
v 138.45158386230469 0 -1.0492404699325562
v 107.09459686279297 0 44.834953308105469
v 105.39386749267578 0 44.834953308105469
v 105.39386749267578 0 43.270236968994141
v 107.09459686279297 0 43.270236968994141
v 105.39386749267578 0 38.086009979248047
v 105.39386749267578 0 36.521297454833984
v 107.09459686279297 0 36.521297454833984
v 107.09459686279297 0 38.086009979248047
v 98.317146301269531 0 36.521297454833984
v 100.01787567138672 0 36.521297454833984
v 100.01787567138672 0 38.086009979248047
v 98.317146301269531 0 38.086009979248047
v 98.317146301269531 0 43.270236968994141
v 100.01787567138672 0 43.270236968994141
v 100.01787567138672 0 44.834953308105469
v 98.317146301269531 0 44.834953308105469
v 92.442131042480469 0 45.822963714599609
v 92.728683471679688 0 45.880935668945312
v 92.962654113769531 0 46.0389404296875
v 93.120391845703125 0 46.273097991943359
v 93.178230285644531 0 46.559524536132812
v 93.120391845703125 0 46.846004486083984
v 92.962654113769531 0 47.079814910888672
v 92.728683471679688 0 47.237388610839844
v 92.442131042480469 0 47.295150756835938
v 92.155708312988281 0 47.237388610839844
v 91.921546936035156 0 47.079814910888672
v 91.763542175292969 0 46.846004486083984
v 91.705574035644531 0 46.559524536132812
v 91.763542175292969 0 46.273097991943359
v 91.921546936035156 0 46.0389404296875
v 92.155708312988281 0 45.880935668945312
v 92.441665649414062 0 55.986217498779297
v 92.728485107421875 0 56.044181823730469
v 92.962600708007812 0 56.202136993408203
v 93.120384216308594 0 56.436153411865234
v 93.178230285644531 0 56.722312927246094
v 93.120384216308594 0 57.008861541748047
v 92.962600708007812 0 57.242835998535156
v 92.728485107421875 0 57.400569915771484
v 92.441665649414062 0 57.458404541015625
v 92.155509948730469 0 57.400569915771484
v 91.921493530273438 0 57.242835998535156
v 91.763534545898438 0 57.008861541748047
v 91.705574035644531 0 56.722312927246094
v 91.763534545898438 0 56.436153411865234
v 91.921493530273438 0 56.202136993408203
v 92.155509948730469 0 56.044181823730469
v 98.317146301269531 0 58.560920715332031
v 100.01787567138672 0 58.560920715332031
v 100.01787567138672 0 60.125633239746094
v 98.317146301269531 0 60.125633239746094
v 105.39386749267578 0 60.125633239746094
v 105.39386749267578 0 58.560920715332031
v 107.09459686279297 0 58.560920715332031
v 107.09459686279297 0 60.125633239746094
v 44.154048919677734 0 5.7000060081481934
v 43.074916839599609 0 5.7000060081481934
v 43.074916839599609 0 37.932956695556641
v 41.413448333740234 0 37.932956695556641
v 41.413448333740234 0 31.218151092529297
v 34.663928985595703 0 31.218151092529297
v 34.663928985595703 0 37.932956695556641
v 32.911899566650391 0 37.932956695556641
v 32.911899566650391 0 26.31370735168457
v 34.663928985595703 0 26.31370735168457
v 34.663928985595703 0 29.64080810546875
v 41.413448333740234 0 29.64080810546875
v 41.413448333740234 0 5.7000060081481934
v 36.193946838378906 0 5.7000060081481934
v 36.193946838378906 0 4.0351905822753906
v 41.413448333740234 0 4.0351905822753906
v 41.413448333740234 0 -1.0469036102294922
v 43.074916839599609 0 -1.0469036102294922
v 43.074916839599609 0 4.0146913528442383
v 44.154048919677734 0 4.0146913528442383
v 51.647037506103516 0 5.7000060081481934
v 50.567909240722656 0 5.7000060081481934
v 50.567909240722656 0 4.0146913528442383
v 51.647037506103516 0 4.0146913528442383
v 51.647037506103516 0 -1.0492404699325562
v 52.482215881347656 0 -1.0492404699325562
v 53.320579528808594 0 -1.0492404699325562
v 53.323772430419922 0 4.0146913528442383
v 54.402900695800781 0 4.0146913528442383
v 54.402900695800781 0 5.7000060081481934
v 53.323772430419922 0 5.7000060081481934
v 53.317390441894531 0 43.211811065673828
v 56.628181457519531 0 43.211811065673828
v 56.628181457519531 0 44.893379211425781
v 50.567909240722656 0 44.893379211425781
v 50.567909240722656 0 43.211811065673828
v 51.647037506103516 0 43.211811065673828
f 72 74 73
f 71 76 72
f 68 67 70 69
f 399 71 70
f 67 403 400 70
f 75 74 72
f 47 45 50 48
f 63 407 404 66
f 60 59 62 61
f 408 62 59
f 62 408 63
f 66 65 64 63
f 66 403 67
f 400 399 70
f 72 76 75
f 400 403 401
f 77 76 399
f 66 404 403
f 403 402 401
f 407 405 404
f 405 407 406
f 63 408 407
f 424 567 566
f 410 408 411
f 410 409 408
f 408 59 411
f 569 568 570
f 423 567 424
f 568 383 570
f 566 565 424
f 567 380 383 568
f 71 399 76
f 411 59 412
f 44 38 51 45
f 45 47 46
f 50 45 51
f 415 58 57
f 56 416 415 57
f 50 49 48
f 54 53 52 55
f 52 51 38 37
f 37 34 55 52
f 56 55 34 33
f 33 430 418 56
f 418 416 56
f 34 37 36 35
f 412 58 415
f 59 58 412
f 412 414 413
f 381 423 422
f 382 381 422
f 572 571 382
f 381 380 423
f 423 380 567
f 430 429 419 418
f 419 421 420
f 417 416 418
f 573 572 422
f 382 422 572
f 427 421 419
f 419 429 427
f 422 421 573
f 421 343 573
f 570 383 382 571
f 415 414 412
f 563 565 564
f 399 397 78
f 78 397 396
f 79 78 396
f 399 398 397
f 593 394 392
f 395 394 593
f 395 371 396
f 392 394 393
f 425 562 561
f 565 425 424
f 565 562 425
f 565 563 562
f 594 593 392
f 561 594 425
f 594 392 425
f 561 595 594
f 591 590 588
f 592 395 593
f 77 399 78
f 81 80 79 82
f 396 371 82
f 82 371 83
f 83 370 367
f 83 371 370
f 370 369 368
f 373 592 591 374
f 373 395 592
f 374 591 588
f 371 373 372
f 375 374 377
f 213 354 352
f 373 371 395
f 588 590 589
f 361 548 362
f 396 82 79
f 559 581 580
f 578 581 559
f 560 559 561
f 580 561 559
f 580 579 561
f 576 578 577
f 340 576 575
f 343 341 575
f 575 341 340
f 339 576 340
f 573 343 575
f 583 582 581
f 584 583 328
f 339 328 583 576
f 576 583 581
f 576 581 578
f 584 327 585
f 574 573 575
f 579 595 561
f 587 378 377 588
f 351 214 213
f 350 379 378
f 226 209 208
f 377 374 588
f 377 376 375
f 350 378 587
f 350 585 327 166
f 166 165 351 350
f 585 350 587
f 165 214 351
f 586 585 587
f 208 227 226
f 227 214 216
f 214 227 208
f 271 275 272
f 217 214 165
f 352 351 213
f 83 86 85 84
f 33 432 430
f 426 343 427
f 421 427 343
f 426 446 344
f 32 31 33
f 443 446 445
f 427 429 428
f 446 347 344
f 38 44 39
f 39 44 42
f 43 42 44
f 31 432 33
f 444 443 445
f 443 347 446
f 30 432 31
f 430 432 431
f 347 443 442 348
f 343 426 344
f 339 338 337
f 337 328 339
f 328 330 329
f 326 325 327
f 337 330 328
f 328 327 584
f 330 337 336
f 335 334 336
f 346 345 344
f 347 346 344
f 336 334 331
f 333 332 331
f 324 169 325
f 330 336 331
f 322 324 323
f 327 325 166
f 342 341 343
f 41 39 42
f 40 39 41
f 27 433 30
f 30 29 28 27
f 433 27 436
f 436 27 437
f 432 30 433
f 439 25 24
f 439 437 26
f 27 26 437
f 440 439 22
f 437 439 438
f 439 24 22
f 26 25 439
f 22 24 23
f 433 436 435 434
f 440 348 442
f 442 441 440
f 331 334 333
f 316 349 348
f 348 440 316
f 316 440 21
f 316 21 20
f 12 11 10
f 21 440 22
f 317 319 318
f 317 316 19
f 319 317 19
f 316 20 19
f 322 321 324
f 321 172 324
f 172 169 324
f 172 321 320 173
f 172 171 169
f 320 319 19
f 325 168 166
f 169 171 170
f 169 168 325
f 175 174 173
f 173 305 175
f 175 305 176
f 19 173 320
f 179 178 177
f 176 304 177
f 303 177 304
f 305 304 176
f 303 179 177
f 305 173 307
f 218 164 163
f 216 214 217
f 179 182 181 163
f 163 181 218
f 164 218 165
f 228 216 229
f 228 227 216
f 218 181 190
f 218 190 215
f 180 190 181
f 187 388 180
f 216 215 229
f 165 218 217
f 300 184 182
f 183 182 184
f 184 300 185
f 179 300 182
f 303 301 300
f 185 187 186
f 297 185 299
f 185 300 299
f 297 299 298
f 187 185 297
f 179 303 300
f 297 389 187
f 166 168 167
f 308 18 17
f 17 16 15
f 308 19 18
f 305 307 306
f 17 309 308
f 19 308 307
f 307 173 19
f 309 17 312
f 15 13 17
f 13 312 17
f 15 14 13
f 312 13 12
f 9 12 10
f 12 313 312
f 312 311 309
f 292 291 290
f 310 309 311
f 293 292 290
f 293 290 5
f 290 288 5
f 302 301 303
f 289 288 290
f 295 294 5
f 294 293 5
f 1 297 296
f 5 4 296
f 315 286 285
f 7 286 315
f 9 315 314
f 286 6 287
f 287 6 5
f 9 8 7
f 315 9 7
f 295 5 296
f 286 7 6
f 287 5 288
f 313 9 314
f 313 12 9
f 153 155 154
f 225 209 226
f 86 83 367
f 86 367 366 87
f 367 370 368
f 363 362 544
f 546 545 362
f 545 544 362
f 362 547 546
f 361 530 548
f 529 549 530
f 548 530 549
f 547 362 548
f 528 535 550
f 550 529 528
f 535 528 527
f 526 535 527
f 549 529 550
f 531 530 361
f 364 87 366
f 366 365 364
f 364 554 87
f 88 87 554
f 537 518 551
f 553 552 556
f 552 551 518 517
f 554 553 88
f 363 551 554 364
f 556 555 553
f 363 542 541
f 525 536 526
f 537 536 525
f 536 535 526
f 539 363 540
f 541 540 363
f 551 363 539
f 551 538 537
f 539 538 551
f 537 525 518
f 543 542 363
f 517 556 552
f 363 544 543
f 89 88 553
f 361 533 532
f 360 534 361
f 361 534 533
f 360 524 523
f 521 520 360
f 519 360 520
f 360 522 521
f 355 354 211
f 359 358 357
f 354 213 212
f 354 212 211
f 210 209 224
f 534 360 519
f 360 523 522
f 532 531 361
f 359 515 518 360
f 518 524 360
f 359 356 515
f 359 357 356
f 514 513 516 515
f 507 513 508
f 505 516 513
f 356 514 515
f 524 518 525
f 355 514 356
f 211 203 512
f 512 511 211
f 210 224 223
f 355 211 511
f 204 211 210
f 514 355 511
f 223 239 204
f 240 223 222
f 239 223 240
f 284 222 221
f 203 508 512
f 223 204 210
f 508 513 512
f 220 219 221
f 516 505 504 517
f 222 251 240
f 504 556 517
f 89 558 90
f 95 90 558
f 89 555 558
f 96 95 558
f 553 555 89
f 91 90 93 92
f 95 94 93
f 95 93 90
f 557 96 558
f 491 98 557
f 557 98 96
f 98 97 96
f 557 556 503
f 100 99 490
f 98 490 99
f 489 100 490
f 100 103 101
f 491 490 98
f 491 557 503
f 107 109 108
f 105 107 106
f 114 112 109 107
f 110 109 112 111
f 114 113 112
f 107 105 482
f 489 486 103
f 100 489 103
f 104 103 486
f 486 489 488 487
f 486 485 104
f 103 102 101
f 484 482 105
f 484 105 104 485
f 482 484 483
f 114 117 116 115
f 482 114 107
f 504 503 556
f 506 505 507
f 506 493 503
f 491 493 492
f 494 506 497
f 493 506 494
f 503 493 491
f 497 506 510
f 506 507 510
f 238 204 239
f 203 211 204
f 508 203 509
f 498 510 509
f 499 203 202
f 509 203 498
f 204 238 205
f 237 205 238
f 498 203 499
f 498 497 510
f 496 494 497
f 513 507 505
f 480 117 482
f 117 114 482
f 481 480 482
f 117 480 119
f 501 500 499
f 201 501 499
f 201 499 202
f 117 119 118
f 120 479 123
f 119 479 120
f 476 479 478
f 480 479 119
f 120 123 121
f 495 494 496
f 241 240 251
f 205 237 206
f 225 224 209
f 275 274 273
f 283 252 284
f 284 252 251
f 252 283 282
f 275 282 281
f 275 252 282
f 219 284 221
f 269 275 270
f 275 281 280
f 270 275 271
f 279 275 280
f 275 278 277
f 275 279 278
f 276 275 277
f 275 269 268
f 261 252 275
f 230 229 215
f 241 251 250
f 242 249 248
f 249 242 250
f 242 247 246
f 242 245 244
f 242 244 243
f 245 242 246
f 247 242 248
f 254 253 261
f 256 255 261
f 261 255 254
f 261 257 256
f 261 259 258
f 261 275 268
f 260 259 261
f 258 257 261
f 261 253 252
f 261 267 266
f 284 251 222
f 261 268 267
f 190 388 191
f 190 189 215
f 389 297 1
f 387 191 388
f 190 180 388
f 160 391 161
f 384 391 160
f 389 161 391
f 160 386 384
f 389 391 390
f 1 161 389
f 162 161 1
f 4 3 2
f 1 296 2
f 157 156 155
f 147 453 160
f 4 2 296
f 386 385 384
f 389 388 187
f 188 387 450
f 188 191 387
f 231 230 188
f 230 189 188
f 195 188 450
f 232 231 195
f 193 192 449
f 231 188 195
f 192 195 450
f 451 450 386
f 387 386 450
f 158 157 150
f 159 158 160
f 386 453 451
f 160 453 386
f 146 453 147
f 147 160 158
f 158 150 149
f 147 158 149
f 452 451 453
f 450 449 192
f 155 150 157
f 232 195 194
f 215 189 230
f 152 150 155
f 273 272 275
f 262 261 263
f 263 261 264
f 236 207 206
f 237 236 206
f 201 200 502
f 448 447 472 502
f 235 200 207
f 502 200 448
f 207 236 235
f 233 232 199
f 233 198 234
f 266 265 261
f 234 198 235
f 235 198 200
f 198 197 200
f 199 198 233
f 197 448 200
f 261 265 264
f 201 502 501
f 472 447 471 473
f 474 473 475
f 123 479 476
f 473 124 475
f 124 123 476 475
f 471 124 473
f 478 477 476
f 127 126 125 124
f 471 470 469
f 467 466 468
f 469 127 471
f 124 471 127
f 128 468 465
f 127 468 128
f 469 468 127
f 197 196 448
f 123 122 121
f 129 128 130
f 199 194 193
f 454 457 455
f 454 453 146
f 193 449 196
f 448 196 449
f 196 199 193
f 194 199 232
f 456 455 457
f 147 149 148
f 145 144 143 146
f 150 152 151
f 142 458 457 143
f 143 457 454 146
f 140 142 141
f 133 132 464
f 464 132 131 465
f 464 463 461
f 137 133 464
f 131 128 465
f 134 133 137
f 131 130 128
f 466 465 468
f 134 136 135
f 461 463 462
f 458 460 459
f 460 142 138
f 460 138 137 461
f 134 137 136
f 140 139 138
f 138 142 140
f 461 137 464
f 458 142 460
f 241 250 242
f 153 152 155
f 353 352 354
