# Rhino

g object_1
v 4.5 3.7999999523162842 -1
v 4.5 5 -1
v 5.5 3.7999999523162842 -1
v 5.5 5 -1
f 4 2 1 3
g object_2
v 4.3000001907348633 3.7999999523162842 -9
v 4.3000001907348633 5 -9
v 5.6999998092651367 3.7999999523162842 -9
v 5.6999998092651367 5 -9
f 8 6 5 7
g object_3
v 0.86601781845092773 3.7999999523162842 -9
v 0.86601781845092773 5 -9
v 3.1339821815490723 3.7999999523162842 -9
v 3.1339821815490723 5 -9
f 12 10 9 11
g object_4
v 6.6160178184509277 3.7999999523162842 -11
v 6.6160178184509277 5 -11
v 8.3839826583862305 3.7999999523162842 -11
v 8.3839826583862305 5 -11
f 16 14 13 15
g object_5
v 0.61601781845092773 3.7999999523162842 0
v 0.61601781845092773 5 0
v 3.3839821815490723 3.7999999523162842 0
v 3.3839821815490723 5 0
f 20 18 17 19
g object_6
v 6.6160178184509277 0.80000001192092896 0
v 6.6160178184509277 2.4000000953674316 0
v 8.3839826583862305 0.80000001192092896 0
v 8.3839826583862305 2.4000000953674316 0
f 24 22 21 23
g object_7
v 0.61601781845092773 0.80000001192092896 0
v 0.61601781845092773 2.4000000953674316 0
v 3.3839821815490723 0.80000001192092896 0
v 3.3839821815490723 2.4000000953674316 0
f 28 26 25 27
g object_8
v 6.6160178184509277 3.7999999523162842 0
v 6.6160178184509277 5 0
v 8.3839826583862305 3.7999999523162842 0
v 8.3839826583862305 5 0
f 32 30 29 31
g object_9
v 6.3660178184509277 0.80000001192092896 -14.100000381469727
v 6.3660178184509277 2 -14.100000381469727
v 8.6339826583862305 0.80000001192092896 -14.100000381469727
v 8.6339826583862305 2 -14.100000381469727
f 36 34 33 35
g object_10
v 7.0004405975341797 3 -5.8499999046325684
v 7.0004405975341797 5 -5.8499999046325684
v 7.0004405975341797 3 -6.6500000953674316
v 7.0004405975341797 5 -6.6500000953674316
f 40 38 37 39
g object_11
v 4.5 3 -5
v 4.5 5 -5
v 5.5 3 -5
v 5.5 5 -5
f 44 42 41 43
g object_12
v 6.1002202033996582 3 -5
v 6.1002202033996582 5 -5
v 6.9002203941345215 3 -5
v 6.9002203941345215 5 -5
f 48 46 45 47
g object_13
v 6.1002202033996582 3 -7.5
v 6.1002202033996582 5 -7.5
v 6.9002203941345215 3 -7.5
v 6.9002203941345215 5 -7.5
f 52 50 49 51
g object_14
v 4.5 0 -0.5
v 4.5 2 -0.5
v 5.5 0 -0.5
v 5.5 2 -0.5
f 56 54 53 55
g object_15
v 0.97604751586914062 0 -6.0255351066589355
v 0.97604751586914062 2 -6.0255351066589355
v 3 0 -6.0255351066589355
v 3 2 -6.0255351066589355
f 60 58 57 59
g object_16
v 0.97604751586914062 0 -13
v 0.97604751586914062 2 -13
v 4 0 -13
v 4 2 -13
f 64 62 61 63
g object_17
v 4.3000001907348633 0 -12.5
v 4.3000001907348633 2 -12.5
v 5.6999998092651367 0 -12.5
v 5.6999998092651367 2 -12.5
f 68 66 65 67
g object_18
v 7.5999999046325684 0 -8
v 7.5999999046325684 2 -8
v 8.3999996185302734 0 -8
v 8.3999996185302734 2 -8
f 72 70 69 71
g object_19
v 9 0 -2.75
v 9 2 -2.75
v 9 0 -3.75
v 9 2 -3.75
f 76 74 73 75
g object_20
v 6.0999999046325684 0 -4
v 6.0999999046325684 2 -4
v 6.9000000953674316 0 -4
v 6.9000000953674316 2 -4
f 80 78 77 79
g object_21
v 4 3 -5
v 4 5 -5
v 4 3 -5.8000001907348633
v 4 5 -5.8000001907348633
f 84 82 81 83
g object_22
v 4 3 -2.5999999046325684
v 4 5 -2.5999999046325684
v 4 3 -3.4000000953674316
v 4 5 -3.4000000953674316
f 88 86 85 87
g object_23
v 4 3 -6.4255352020263672
v 4 5 -6.4255352020263672
v 4 3 -7.2255349159240723
v 4 5 -7.2255349159240723
f 92 90 89 91
g object_24
v 4 0 -6.0255351066589355
v 4 2 -6.0255351066589355
v 4 0 -9
v 4 2 -9
f 96 94 93 95
g object_25
v 4 0 -0.75
v 4 2 -0.75
v 4 0 -1.75
v 4 2 -1.75
f 100 98 97 99
g object_26
v 6 3 -5
v 6 5 -5
v 6 3 -5.8000001907348633
v 6 5 -5.8000001907348633
f 104 102 101 103
g object_27
v 6 0 -12.600000381469727
v 6 2 -12.600000381469727
v 6 0 -14
v 6 2 -14
f 108 106 105 107
g object_28
v 6 0 -2.25
v 6 2 -2.25
v 6 0 -3.25
v 6 2 -3.25
f 112 110 109 111
g object_29
v 6 0 -0.75
v 6 2 -0.75
v 6 0 -1.75
v 6 2 -1.75
f 116 114 113 115
g object_30
v 4 0 -9
v 4 2 -9
v 5 0 -9
v 5 2 -9
f 120 118 117 119
