# Rhino

g Staircase
v 4 0 -5
v 4 0 -9
v 6 0 -5
v 6 0 -9
v 4 5.8000001907348633 -5
v 6 5.8000001907348633 -5
v 6 5.8000001907348633 -9
v 4 5.8000001907348633 -9
f 2 4 3 1
f 3 6 5 1
f 4 7 6 3
f 2 8 7 4
f 1 5 8 2
f 8 5 6 7
g Room_1_5
v 6 0 -8
v 9 0 -8
v 9 0 -5
v 7.0004405975341797 0 -5
v 7.0004405975341797 0 -6.0255351066589355
v 6 0 -6.0255351066589355
v 6 3 -8
v 9 3 -8
v 9 3 -5
v 7.0004405975341797 3 -5
v 7.0004405975341797 3 -6.0255351066589355
v 6 3 -6.0255351066589355
f 14 9 10 11 12 13
f 20 19 18 17 16 15
f 10 9 15 16
f 11 10 16 17
f 12 11 17 18
f 13 12 18 19
f 14 13 19 20
f 9 14 20 15
g Room_1_6
v 0 0 -6.0255351066589355
v 4 0 -6.0255351066589355
v 4 0 -9
v 6 0 -9
v 6 0 -8
v 9 0 -8
v 9 0 -14.100000381469727
v 6 0 -14.100000381469727
v 6 0 -12.5
v 4 0 -12.5
v 4 0 -13
v 0 0 -13
v 0 3 -6.0255351066589355
v 4 3 -6.0255351066589355
v 4 3 -9
v 6 3 -9
v 6 3 -8
v 9 3 -8
v 9 3 -14.100000381469727
v 6 3 -14.100000381469727
v 6 3 -12.5
v 4 3 -12.5
v 4 3 -13
v 0 3 -13
f 23 22 21 32 31 30 29 28 27 26 25 24
f 33 34 35 36 37 38 39 40 41 42 43 44
f 22 34 33 21
f 23 35 34 22
f 24 36 35 23
f 25 37 36 24
f 26 38 37 25
f 27 39 38 26
f 28 40 39 27
f 29 41 40 28
f 30 42 41 29
f 31 43 42 30
f 32 44 43 31
f 21 33 44 32
g Room_1_4
v 6 0 -4
v 6 0 -6.0255351066589355
v 7.0004405975341797 0 -4
v 7.0004405975341797 0 -6.0255351066589355
v 6 3 -4
v 7.0004405975341797 3 -4
v 7.0004405975341797 3 -6.0255351066589355
v 6 3 -6.0255351066589355
f 46 48 47 45
f 47 50 49 45
f 48 51 50 47
f 46 52 51 48
f 45 49 52 46
f 52 49 50 51
g Room_1_3
v 6 0 -2
v 9 0 -2
v 9 0 -5
v 7.0004405975341797 0 -5
v 7.0004405975341797 0 -4
v 6 0 -4
v 6 3 -2
v 9 3 -2
v 9 3 -5
v 7.0004405975341797 3 -5
v 7.0004405975341797 3 -4
v 6 3 -4
f 58 57 56 55 54 53
f 64 59 60 61 62 63
f 54 60 59 53
f 55 61 60 54
f 56 62 61 55
f 57 63 62 56
f 58 64 63 57
f 53 59 64 58
g Room_1_2
v 6 0 0
v 6 0 -2
v 9 0 0
v 9 0 -2
v 6 3 0
v 9 3 0
v 9 3 -2
v 6 3 -2
f 66 68 67 65
f 67 70 69 65
f 68 71 70 67
f 66 72 71 68
f 65 69 72 66
f 72 69 70 71
g Lobby
v 4 0 -0.5
v 4 0 -5
v 6 0 -0.5
v 6 0 -5
v 4 3 -0.5
v 6 3 -0.5
v 6 3 -5
v 4 3 -5
f 74 76 75 73
f 75 78 77 73
f 76 79 78 75
f 74 80 79 76
f 73 77 80 74
f 80 77 78 79
g Room_1_1
v 0 0 0
v 0 0 -6.0255351066589355
v 4 0 0
v 4 0 -6.0255351066589355
v 0 3 0
v 4 3 0
v 4 3 -6.0255351066589355
v 0 3 -6.0255351066589355
f 82 84 83 81
f 83 86 85 81
f 84 87 86 83
f 82 88 87 84
f 81 85 88 82
f 88 85 86 87
g Room_2_3
v 4 3 -4
v 4 3 -5
v 6 3 -4
v 6 3 -5
v 4 5.8000001907348633 -4
v 6 5.8000001907348633 -4
v 6 5.8000001907348633 -5
v 4 5.8000001907348633 -5
f 90 92 91 89
f 91 94 93 89
f 92 95 94 91
f 90 96 95 92
f 89 93 96 90
f 96 93 94 95
g Room_2_8
v 0 3 -6.0255351066589355
v 0 3 -9
v 4 3 -6.0255351066589355
v 4 3 -9
v 0 5.8000001907348633 -6.0255351066589355
v 4 5.8000001907348633 -6.0255351066589355
v 4 5.8000001907348633 -9
v 0 5.8000001907348633 -9
f 98 100 99 97
f 99 102 101 97
f 100 103 102 99
f 98 104 103 100
f 97 101 104 98
f 104 101 102 103
g Room_2_5
v 6 3 -5
v 6 3 -7.5
v 7.0004405975341797 3 -5
v 7.0004405975341797 3 -7.5
v 6 5.8000001907348633 -5
v 7.0004405975341797 5.8000001907348633 -5
v 7.0004405975341797 5.8000001907348633 -7.5
v 6 5.8000001907348633 -7.5
f 106 108 107 105
f 107 110 109 105
f 108 111 110 107
f 106 112 111 108
f 105 109 112 106
f 112 109 110 111
g Room_2_6
v 7.0004405975341797 3 -5
v 7.0004405975341797 3 -7.5
v 9 3 -5
v 9 3 -7.5
v 7.0004405975341797 5.8000001907348633 -5
v 9 5.8000001907348633 -5
v 9 5.8000001907348633 -7.5
v 7.0004405975341797 5.8000001907348633 -7.5
f 114 116 115 113
f 115 118 117 113
f 116 119 118 115
f 114 120 119 116
f 113 117 120 114
f 120 117 118 119
g Room_2_7
v 6 3 -7.5
v 6 3 -11
v 9 3 -7.5
v 9 3 -11
v 6 5.8000001907348633 -7.5
v 9 5.8000001907348633 -7.5
v 9 5.8000001907348633 -11
v 6 5.8000001907348633 -11
f 122 124 123 121
f 123 126 125 121
f 124 127 126 123
f 122 128 127 124
f 121 125 128 122
f 128 125 126 127
g Room_2_4
v 6 3 0
v 6 3 -5
v 9 3 0
v 9 3 -5
v 6 5.8000001907348633 0
v 9 5.8000001907348633 0
v 6 5.8000001907348633 -5
v 9 5.8000001907348633 -5
f 130 132 131 129
f 131 134 133 129
f 129 133 135 130
f 130 135 136 132
f 132 136 134 131
f 135 133 134 136
g Room_2_2
v 4 3 -1
v 4 3 -4
v 6 3 -1
v 6 3 -4
v 4 5.8000001907348633 -1
v 6 5.8000001907348633 -1
v 6 5.8000001907348633 -4
v 4 5.8000001907348633 -4
f 138 140 139 137
f 139 142 141 137
f 140 143 142 139
f 138 144 143 140
f 137 141 144 138
f 144 141 142 143
g Room_2_1
v 0 3 0
v 0 3 -6.0255351066589355
v 4 3 0
v 4 3 -6.0255351066589355
v 0 5.8000001907348633 0
v 4 5.8000001907348633 0
v 4 5.8000001907348633 -6.0255351066589355
v 0 5.8000001907348633 -6.0255351066589355
f 146 148 147 145
f 147 150 149 145
f 148 151 150 147
f 146 152 151 148
f 145 149 152 146
f 152 149 150 151
