# Rhino

g object_1
v 1.6245400905609131 2.0000004768371582 -5.4333896636962891
v 1.6245400905609131 4.6387319230234425E-07 -5.4333896636962891
v 1.6245400905609131 2.0000004768371582 -6.3333897590637207
v 1.6245400905609131 4.6387319230234425E-07 -6.3333897590637207
f 4 2 1 3
g object_2
v 1.6245400905609131 2.0000004768371582 -7.5467443466186523
v 1.6245400905609131 4.6387319230234425E-07 -7.5467443466186523
v 1.6245400905609131 2.0000004768371582 -6.6467442512512207
v 1.6245400905609131 4.6387319230234425E-07 -6.6467442512512207
f 8 7 5 6
g object_3
v 10.680596351623535 2.0000004768371582 -2.8621084690093994
v 10.680596351623535 4.6387319230234425E-07 -2.8621084690093994
v 10.680596351623535 2.0000004768371582 -3.7621085643768311
v 10.680596351623535 4.6387319230234425E-07 -3.7621085643768311
f 12 10 9 11
g object_4
v 10.680596351623535 2.0000004768371582 -4.9754629135131836
v 10.680596351623535 4.6387319230234425E-07 -4.9754629135131836
v 10.680596351623535 2.0000004768371582 -4.075462818145752
v 10.680596351623535 4.6387319230234425E-07 -4.075462818145752
f 16 15 13 14
g object_5
v 9.248286247253418 2.0000004768371582 -5.1267132759094238
v 9.248286247253418 4.6387319230234425E-07 -5.1267132759094238
v 9.248286247253418 2.0000004768371582 -4.2267131805419922
v 9.248286247253418 4.6387319230234425E-07 -4.2267131805419922
f 20 19 17 18
g object_6
v 5.8241415023803711 2.0000004768371582 -5.1267132759094238
v 5.8241415023803711 4.6387319230234425E-07 -5.1267132759094238
v 5.8241415023803711 2.0000004768371582 -4.2267131805419922
v 5.8241415023803711 4.6387319230234425E-07 -4.2267131805419922
f 24 23 21 22
g object_7
v 6.8017106056213379 2.0000004768371582 -4.0767130851745605
v 6.8017106056213379 4.6387319230234425E-07 -4.0767130851745605
v 7.7017107009887695 2.0000004768371582 -4.0767130851745605
v 7.7017107009887695 4.6387319230234425E-07 -4.0767130851745605
f 28 26 25 27
g object_8
v 7.1892809867858887 2.0000004768371582 -6.7982869148254395
v 7.1892809867858887 4.6387319230234425E-07 -6.7982869148254395
v 8.0892810821533203 2.0000004768371582 -6.7982869148254395
v 8.0892810821533203 4.6387319230234425E-07 -6.7982869148254395
f 32 30 29 31
g object_9
v 5.4435820579528809 2.0000004768371582 -6.7982869148254395
v 5.4435820579528809 4.6387319230234425E-07 -6.7982869148254395
v 6.3435821533203125 2.0000004768371582 -6.7982869148254395
v 6.3435821533203125 4.6387319230234425E-07 -6.7982869148254395
f 36 34 33 35
g object_10
v 1.6845389604568481 2.0000004768371582 -8.3084068298339844
v 1.6845389604568481 4.6387319230234425E-07 -8.3084068298339844
v 2.5845389366149902 2.0000004768371582 -8.3084068298339844
v 2.5845389366149902 4.6387319230234425E-07 -8.3084068298339844
f 40 38 37 39
g object_11
v 1.6845389604568481 2.0000004768371582 -5.2767128944396973
v 1.6845389604568481 4.6387319230234425E-07 -5.2767128944396973
v 2.5845389366149902 2.0000004768371582 -5.2767128944396973
v 2.5845389366149902 4.6387319230234425E-07 -5.2767128944396973
f 44 42 41 43
g object_12
v 8.351506233215332 2.0000004768371582 -7.9967441558837891
v 8.351506233215332 4.6387319230234425E-07 -7.9967441558837891
v 8.351506233215332 2.0000004768371582 -7.0967445373535156
v 8.351506233215332 4.6387319230234425E-07 -7.0967445373535156
f 48 47 45 46
g object_13
v 1.2345403432846069 2.0000004768371582 -1.2475488185882568
v 1.2345403432846069 4.6387319230234425E-07 -1.2475488185882568
v 2.134540319442749 2.0000004768371582 -1.2475488185882568
v 2.134540319442749 4.6387319230234425E-07 -1.2475488185882568
f 52 50 49 51
g object_14
v 4.3493204116821289 2.0000004768371582 -1.2475488185882568
v 4.3493204116821289 4.6387319230234425E-07 -1.2475488185882568
v 5.2493205070495605 2.0000004768371582 -1.2475488185882568
v 5.2493205070495605 4.6387319230234425E-07 -1.2475488185882568
f 56 54 53 55
g object_15
v 22.977170944213867 2.0000004768371582 -5.4333896636962891
v 22.977170944213867 4.6387319230234425E-07 -5.4333896636962891
v 22.977170944213867 2.0000004768371582 -6.3333897590637207
v 22.977170944213867 4.6387319230234425E-07 -6.3333897590637207
f 60 59 57 58
g object_16
v 22.977170944213867 2.0000004768371582 -7.5467443466186523
v 22.977170944213867 4.6387319230234425E-07 -7.5467443466186523
v 22.977170944213867 2.0000004768371582 -6.6467442512512207
v 22.977170944213867 4.6387319230234425E-07 -6.6467442512512207
f 64 62 61 63
g object_17
v 13.921114921569824 2.0000004768371582 -2.8621084690093994
v 13.921114921569824 4.6387319230234425E-07 -2.8621084690093994
v 13.921114921569824 2.0000004768371582 -3.7621085643768311
v 13.921114921569824 4.6387319230234425E-07 -3.7621085643768311
f 68 67 65 66
g object_18
v 13.921114921569824 2.0000004768371582 -4.9754629135131836
v 13.921114921569824 4.6387319230234425E-07 -4.9754629135131836
v 13.921114921569824 2.0000004768371582 -4.075462818145752
v 13.921114921569824 4.6387319230234425E-07 -4.075462818145752
f 72 70 69 71
g object_19
v 15.353425979614258 2.0000004768371582 -5.1267132759094238
v 15.353425979614258 4.6387319230234425E-07 -5.1267132759094238
v 15.353425979614258 2.0000004768371582 -4.2267131805419922
v 15.353425979614258 4.6387319230234425E-07 -4.2267131805419922
f 76 74 73 75
g object_20
v 18.777570724487305 2.0000004768371582 -5.1267132759094238
v 18.777570724487305 4.6387319230234425E-07 -5.1267132759094238
v 18.777570724487305 2.0000004768371582 -4.2267131805419922
v 18.777570724487305 4.6387319230234425E-07 -4.2267131805419922
f 80 78 77 79
g object_21
v 17.80000114440918 2.0000004768371582 -4.0767130851745605
v 17.80000114440918 4.6387319230234425E-07 -4.0767130851745605
v 16.900001525878906 2.0000004768371582 -4.0767130851745605
v 16.900001525878906 4.6387319230234425E-07 -4.0767130851745605
f 84 83 81 82
g object_22
v 17.412431716918945 2.0000004768371582 -6.7982869148254395
v 17.412431716918945 4.6387319230234425E-07 -6.7982869148254395
v 16.512430191040039 2.0000004768371582 -6.7982869148254395
v 16.512430191040039 4.6387319230234425E-07 -6.7982869148254395
f 88 87 85 86
g object_23
v 19.158130645751953 2.0000004768371582 -6.7982869148254395
v 19.158130645751953 4.6387319230234425E-07 -6.7982869148254395
v 18.258129119873047 2.0000004768371582 -6.7982869148254395
v 18.258129119873047 4.6387319230234425E-07 -6.7982869148254395
f 92 91 89 90
g object_24
v 22.917173385620117 2.0000004768371582 -8.3084068298339844
v 22.917173385620117 4.6387319230234425E-07 -8.3084068298339844
v 22.017173767089844 2.0000004768371582 -8.3084068298339844
v 22.017173767089844 4.6387319230234425E-07 -8.3084068298339844
f 96 95 93 94
g object_25
v 22.917173385620117 2.0000004768371582 -5.2767128944396973
v 22.917173385620117 4.6387319230234425E-07 -5.2767128944396973
v 22.017173767089844 2.0000004768371582 -5.2767128944396973
v 22.017173767089844 4.6387319230234425E-07 -5.2767128944396973
f 100 99 97 98
g object_26
v 16.250205993652344 2.0000004768371582 -7.9967441558837891
v 16.250205993652344 4.6387319230234425E-07 -7.9967441558837891
v 16.250205993652344 2.0000004768371582 -7.0967445373535156
v 16.250205993652344 4.6387319230234425E-07 -7.0967445373535156
f 104 102 101 103
g object_27
v 23.367172241210938 2.0000004768371582 -1.2475488185882568
v 23.367172241210938 4.6387319230234425E-07 -1.2475488185882568
v 22.467170715332031 2.0000004768371582 -1.2475488185882568
v 22.467170715332031 4.6387319230234425E-07 -1.2475488185882568
f 108 107 105 106
g object_28
v 20.252391815185547 2.0000004768371582 -1.2475488185882568
v 20.252391815185547 4.6387319230234425E-07 -1.2475488185882568
v 19.352392196655273 2.0000004768371582 -1.2475488185882568
v 19.352392196655273 4.6387319230234425E-07 -1.2475488185882568
f 112 111 109 110
g object_29
v 1.6245400905609131 5.0000004768371582 -5.4333896636962891
v 1.6245400905609131 3.0000004768371582 -5.4333896636962891
v 1.6245400905609131 5.0000004768371582 -6.3333897590637207
v 1.6245400905609131 3.0000004768371582 -6.3333897590637207
f 116 114 113 115
g object_30
v 1.6245400905609131 5.0000004768371582 -7.5467443466186523
v 1.6245400905609131 3.0000004768371582 -7.5467443466186523
v 1.6245400905609131 5.0000004768371582 -6.6467442512512207
v 1.6245400905609131 3.0000004768371582 -6.6467442512512207
f 120 119 117 118
g object_31
v 10.680596351623535 5.0000004768371582 -2.8621084690093994
v 10.680596351623535 3.0000004768371582 -2.8621084690093994
v 10.680596351623535 5.0000004768371582 -3.7621085643768311
v 10.680596351623535 3.0000004768371582 -3.7621085643768311
f 124 122 121 123
g object_32
v 10.680596351623535 5.0000004768371582 -4.9754629135131836
v 10.680596351623535 3.0000004768371582 -4.9754629135131836
v 10.680596351623535 5.0000004768371582 -4.075462818145752
v 10.680596351623535 3.0000004768371582 -4.075462818145752
f 128 127 125 126
g object_33
v 9.248286247253418 5.0000004768371582 -5.1267132759094238
v 9.248286247253418 3.0000004768371582 -5.1267132759094238
v 9.248286247253418 5.0000004768371582 -4.2267131805419922
v 9.248286247253418 3.0000004768371582 -4.2267131805419922
f 132 131 129 130
g object_34
v 5.8241415023803711 5.0000004768371582 -5.1267132759094238
v 5.8241415023803711 3.0000004768371582 -5.1267132759094238
v 5.8241415023803711 5.0000004768371582 -4.2267131805419922
v 5.8241415023803711 3.0000004768371582 -4.2267131805419922
f 136 135 133 134
g object_35
v 6.8017106056213379 5.0000004768371582 -4.0767130851745605
v 6.8017106056213379 3.0000004768371582 -4.0767130851745605
v 7.7017107009887695 5.0000004768371582 -4.0767130851745605
v 7.7017107009887695 3.0000004768371582 -4.0767130851745605
f 140 138 137 139
g object_36
v 7.1892809867858887 5.0000004768371582 -6.7982869148254395
v 7.1892809867858887 3.0000004768371582 -6.7982869148254395
v 8.0892810821533203 5.0000004768371582 -6.7982869148254395
v 8.0892810821533203 3.0000004768371582 -6.7982869148254395
f 144 142 141 143
g object_37
v 5.4435820579528809 5.0000004768371582 -6.7982869148254395
v 5.4435820579528809 3.0000004768371582 -6.7982869148254395
v 6.3435821533203125 5.0000004768371582 -6.7982869148254395
v 6.3435821533203125 3.0000004768371582 -6.7982869148254395
f 148 146 145 147
g object_38
v 1.6845389604568481 5.0000004768371582 -8.3084068298339844
v 1.6845389604568481 3.0000004768371582 -8.3084068298339844
v 2.5845389366149902 5.0000004768371582 -8.3084068298339844
v 2.5845389366149902 3.0000004768371582 -8.3084068298339844
f 152 150 149 151
g object_39
v 1.6845389604568481 5.0000004768371582 -5.2767128944396973
v 1.6845389604568481 3.0000004768371582 -5.2767128944396973
v 2.5845389366149902 5.0000004768371582 -5.2767128944396973
v 2.5845389366149902 3.0000004768371582 -5.2767128944396973
f 156 154 153 155
g object_40
v 8.351506233215332 5.0000004768371582 -7.9967441558837891
v 8.351506233215332 3.0000004768371582 -7.9967441558837891
v 8.351506233215332 5.0000004768371582 -7.0967445373535156
v 8.351506233215332 3.0000004768371582 -7.0967445373535156
f 160 159 157 158
g object_41
v 1.2345403432846069 5.0000004768371582 -1.2475488185882568
v 1.2345403432846069 3.0000004768371582 -1.2475488185882568
v 2.134540319442749 5.0000004768371582 -1.2475488185882568
v 2.134540319442749 3.0000004768371582 -1.2475488185882568
f 164 162 161 163
g object_42
v 4.3493204116821289 5.0000004768371582 -1.2475488185882568
v 4.3493204116821289 3.0000004768371582 -1.2475488185882568
v 5.2493205070495605 5.0000004768371582 -1.2475488185882568
v 5.2493205070495605 3.0000004768371582 -1.2475488185882568
f 168 166 165 167
g object_43
v 22.977170944213867 5.0000004768371582 -5.4333896636962891
v 22.977170944213867 3.0000004768371582 -5.4333896636962891
v 22.977170944213867 5.0000004768371582 -6.3333897590637207
v 22.977170944213867 3.0000004768371582 -6.3333897590637207
f 172 171 169 170
g object_44
v 22.977170944213867 5.0000004768371582 -7.5467443466186523
v 22.977170944213867 3.0000004768371582 -7.5467443466186523
v 22.977170944213867 5.0000004768371582 -6.6467442512512207
v 22.977170944213867 3.0000004768371582 -6.6467442512512207
f 176 174 173 175
g object_45
v 13.921114921569824 5.0000004768371582 -2.8621084690093994
v 13.921114921569824 3.0000004768371582 -2.8621084690093994
v 13.921114921569824 5.0000004768371582 -3.7621085643768311
v 13.921114921569824 3.0000004768371582 -3.7621085643768311
f 180 179 177 178
g object_46
v 13.921114921569824 5.0000004768371582 -4.9754629135131836
v 13.921114921569824 3.0000004768371582 -4.9754629135131836
v 13.921114921569824 5.0000004768371582 -4.075462818145752
v 13.921114921569824 3.0000004768371582 -4.075462818145752
f 184 182 181 183
g object_47
v 15.353425979614258 5.0000004768371582 -5.1267132759094238
v 15.353425979614258 3.0000004768371582 -5.1267132759094238
v 15.353425979614258 5.0000004768371582 -4.2267131805419922
v 15.353425979614258 3.0000004768371582 -4.2267131805419922
f 188 186 185 187
g object_48
v 18.777570724487305 5.0000004768371582 -5.1267132759094238
v 18.777570724487305 3.0000004768371582 -5.1267132759094238
v 18.777570724487305 5.0000004768371582 -4.2267131805419922
v 18.777570724487305 3.0000004768371582 -4.2267131805419922
f 192 190 189 191
g object_49
v 17.80000114440918 5.0000004768371582 -4.0767130851745605
v 17.80000114440918 3.0000004768371582 -4.0767130851745605
v 16.900001525878906 5.0000004768371582 -4.0767130851745605
v 16.900001525878906 3.0000004768371582 -4.0767130851745605
f 196 195 193 194
g object_50
v 17.412431716918945 5.0000004768371582 -6.7982869148254395
v 17.412431716918945 3.0000004768371582 -6.7982869148254395
v 16.512430191040039 5.0000004768371582 -6.7982869148254395
v 16.512430191040039 3.0000004768371582 -6.7982869148254395
f 200 199 197 198
g object_51
v 19.158130645751953 5.0000004768371582 -6.7982869148254395
v 19.158130645751953 3.0000004768371582 -6.7982869148254395
v 18.258129119873047 5.0000004768371582 -6.7982869148254395
v 18.258129119873047 3.0000004768371582 -6.7982869148254395
f 204 203 201 202
g object_52
v 22.917173385620117 5.0000004768371582 -8.3084068298339844
v 22.917173385620117 3.0000004768371582 -8.3084068298339844
v 22.017173767089844 5.0000004768371582 -8.3084068298339844
v 22.017173767089844 3.0000004768371582 -8.3084068298339844
f 208 207 205 206
g object_53
v 22.917173385620117 5.0000004768371582 -5.2767128944396973
v 22.917173385620117 3.0000004768371582 -5.2767128944396973
v 22.017173767089844 5.0000004768371582 -5.2767128944396973
v 22.017173767089844 3.0000004768371582 -5.2767128944396973
f 212 211 209 210
g object_54
v 16.250205993652344 5.0000004768371582 -7.9967441558837891
v 16.250205993652344 3.0000004768371582 -7.9967441558837891
v 16.250205993652344 5.0000004768371582 -7.0967445373535156
v 16.250205993652344 3.0000004768371582 -7.0967445373535156
f 216 214 213 215
g object_55
v 23.367172241210938 5.0000004768371582 -1.2475488185882568
v 23.367172241210938 3.0000004768371582 -1.2475488185882568
v 22.467170715332031 5.0000004768371582 -1.2475488185882568
v 22.467170715332031 3.0000004768371582 -1.2475488185882568
f 220 219 217 218
g object_56
v 20.252391815185547 5.0000004768371582 -1.2475488185882568
v 20.252391815185547 3.0000004768371582 -1.2475488185882568
v 19.352392196655273 5.0000004768371582 -1.2475488185882568
v 19.352392196655273 3.0000004768371582 -1.2475488185882568
f 224 223 221 222
g object_57
v 1.6245400905609131 8 -5.4333896636962891
v 1.6245400905609131 6.0000004768371582 -5.4333896636962891
v 1.6245400905609131 8 -6.3333897590637207
v 1.6245400905609131 6.0000004768371582 -6.3333897590637207
f 228 226 225 227
g object_58
v 1.6245400905609131 8 -7.5467443466186523
v 1.6245400905609131 6.0000004768371582 -7.5467443466186523
v 1.6245400905609131 8 -6.6467442512512207
v 1.6245400905609131 6.0000004768371582 -6.6467442512512207
f 232 231 229 230
g object_59
v 10.680596351623535 8 -2.8621084690093994
v 10.680596351623535 6.0000004768371582 -2.8621084690093994
v 10.680596351623535 8 -3.7621085643768311
v 10.680596351623535 6.0000004768371582 -3.7621085643768311
f 236 234 233 235
g object_60
v 10.680596351623535 8 -4.9754629135131836
v 10.680596351623535 6.0000004768371582 -4.9754629135131836
v 10.680596351623535 8 -4.075462818145752
v 10.680596351623535 6.0000004768371582 -4.075462818145752
f 240 239 237 238
g object_61
v 9.248286247253418 8 -5.1267132759094238
v 9.248286247253418 6.0000004768371582 -5.1267132759094238
v 9.248286247253418 8 -4.2267131805419922
v 9.248286247253418 6.0000004768371582 -4.2267131805419922
f 244 243 241 242
g object_62
v 5.8241415023803711 8 -5.1267132759094238
v 5.8241415023803711 6.0000004768371582 -5.1267132759094238
v 5.8241415023803711 8 -4.2267131805419922
v 5.8241415023803711 6.0000004768371582 -4.2267131805419922
f 248 247 245 246
g object_63
v 6.8017106056213379 8 -4.0767130851745605
v 6.8017106056213379 6.0000004768371582 -4.0767130851745605
v 7.7017107009887695 8 -4.0767130851745605
v 7.7017107009887695 6.0000004768371582 -4.0767130851745605
f 252 250 249 251
g object_64
v 7.1892809867858887 8 -6.7982869148254395
v 7.1892809867858887 6.0000004768371582 -6.7982869148254395
v 8.0892810821533203 8 -6.7982869148254395
v 8.0892810821533203 6.0000004768371582 -6.7982869148254395
f 256 254 253 255
g object_65
v 5.4435820579528809 8 -6.7982869148254395
v 5.4435820579528809 6.0000004768371582 -6.7982869148254395
v 6.3435821533203125 8 -6.7982869148254395
v 6.3435821533203125 6.0000004768371582 -6.7982869148254395
f 260 258 257 259
g object_66
v 1.6845389604568481 8 -8.3084068298339844
v 1.6845389604568481 6.0000004768371582 -8.3084068298339844
v 2.5845389366149902 8 -8.3084068298339844
v 2.5845389366149902 6.0000004768371582 -8.3084068298339844
f 264 262 261 263
g object_67
v 1.6845389604568481 8 -5.2767128944396973
v 1.6845389604568481 6.0000004768371582 -5.2767128944396973
v 2.5845389366149902 8 -5.2767128944396973
v 2.5845389366149902 6.0000004768371582 -5.2767128944396973
f 268 266 265 267
g object_68
v 8.351506233215332 8 -7.9967441558837891
v 8.351506233215332 6.0000004768371582 -7.9967441558837891
v 8.351506233215332 8 -7.0967445373535156
v 8.351506233215332 6.0000004768371582 -7.0967445373535156
f 272 271 269 270
g object_69
v 1.2345403432846069 8 -1.2475488185882568
v 1.2345403432846069 6.0000004768371582 -1.2475488185882568
v 2.134540319442749 8 -1.2475488185882568
v 2.134540319442749 6.0000004768371582 -1.2475488185882568
f 276 274 273 275
g object_70
v 4.3493204116821289 8 -1.2475488185882568
v 4.3493204116821289 6.0000004768371582 -1.2475488185882568
v 5.2493205070495605 8 -1.2475488185882568
v 5.2493205070495605 6.0000004768371582 -1.2475488185882568
f 280 278 277 279
g object_71
v 22.977170944213867 8 -5.4333896636962891
v 22.977170944213867 6.0000004768371582 -5.4333896636962891
v 22.977170944213867 8 -6.3333897590637207
v 22.977170944213867 6.0000004768371582 -6.3333897590637207
f 284 283 281 282
g object_72
v 22.977170944213867 8 -7.5467443466186523
v 22.977170944213867 6.0000004768371582 -7.5467443466186523
v 22.977170944213867 8 -6.6467442512512207
v 22.977170944213867 6.0000004768371582 -6.6467442512512207
f 288 286 285 287
g object_73
v 13.921114921569824 8 -2.8621084690093994
v 13.921114921569824 6.0000004768371582 -2.8621084690093994
v 13.921114921569824 8 -3.7621085643768311
v 13.921114921569824 6.0000004768371582 -3.7621085643768311
f 292 291 289 290
g object_74
v 13.921114921569824 8 -4.9754629135131836
v 13.921114921569824 6.0000004768371582 -4.9754629135131836
v 13.921114921569824 8 -4.075462818145752
v 13.921114921569824 6.0000004768371582 -4.075462818145752
f 296 294 293 295
g object_75
v 15.353425979614258 8 -5.1267132759094238
v 15.353425979614258 6.0000004768371582 -5.1267132759094238
v 15.353425979614258 8 -4.2267131805419922
v 15.353425979614258 6.0000004768371582 -4.2267131805419922
f 300 298 297 299
g object_76
v 18.777570724487305 8 -5.1267132759094238
v 18.777570724487305 6.0000004768371582 -5.1267132759094238
v 18.777570724487305 8 -4.2267131805419922
v 18.777570724487305 6.0000004768371582 -4.2267131805419922
f 304 302 301 303
g object_77
v 17.80000114440918 8 -4.0767130851745605
v 17.80000114440918 6.0000004768371582 -4.0767130851745605
v 16.900001525878906 8 -4.0767130851745605
v 16.900001525878906 6.0000004768371582 -4.0767130851745605
f 308 307 305 306
g object_78
v 17.412431716918945 8 -6.7982869148254395
v 17.412431716918945 6.0000004768371582 -6.7982869148254395
v 16.512430191040039 8 -6.7982869148254395
v 16.512430191040039 6.0000004768371582 -6.7982869148254395
f 312 311 309 310
g object_79
v 19.158130645751953 8 -6.7982869148254395
v 19.158130645751953 6.0000004768371582 -6.7982869148254395
v 18.258129119873047 8 -6.7982869148254395
v 18.258129119873047 6.0000004768371582 -6.7982869148254395
f 316 315 313 314
g object_80
v 22.917173385620117 8 -8.3084068298339844
v 22.917173385620117 6.0000004768371582 -8.3084068298339844
v 22.017173767089844 8 -8.3084068298339844
v 22.017173767089844 6.0000004768371582 -8.3084068298339844
f 320 319 317 318
g object_81
v 22.917173385620117 8 -5.2767128944396973
v 22.917173385620117 6.0000004768371582 -5.2767128944396973
v 22.017173767089844 8 -5.2767128944396973
v 22.017173767089844 6.0000004768371582 -5.2767128944396973
f 324 323 321 322
g object_82
v 16.250205993652344 8 -7.9967441558837891
v 16.250205993652344 6.0000004768371582 -7.9967441558837891
v 16.250205993652344 8 -7.0967445373535156
v 16.250205993652344 6.0000004768371582 -7.0967445373535156
f 328 326 325 327
g object_83
v 23.367172241210938 8 -1.2475488185882568
v 23.367172241210938 6.0000004768371582 -1.2475488185882568
v 22.467170715332031 8 -1.2475488185882568
v 22.467170715332031 6.0000004768371582 -1.2475488185882568
f 332 331 329 330
g object_84
v 20.252391815185547 8 -1.2475488185882568
v 20.252391815185547 6.0000004768371582 -1.2475488185882568
v 19.352392196655273 8 -1.2475488185882568
v 19.352392196655273 6.0000004768371582 -1.2475488185882568
f 336 335 333 334
g object_85
v 1.6245400905609131 11 -5.4333896636962891
v 1.6245400905609131 9 -5.4333896636962891
v 1.6245400905609131 11 -6.3333897590637207
v 1.6245400905609131 9 -6.3333897590637207
f 340 338 337 339
g object_86
v 1.6245400905609131 11 -7.5467443466186523
v 1.6245400905609131 9 -7.5467443466186523
v 1.6245400905609131 11 -6.6467442512512207
v 1.6245400905609131 9 -6.6467442512512207
f 344 343 341 342
g object_87
v 10.680596351623535 11 -2.8621084690093994
v 10.680596351623535 9 -2.8621084690093994
v 10.680596351623535 11 -3.7621085643768311
v 10.680596351623535 9 -3.7621085643768311
f 348 346 345 347
g object_88
v 10.680596351623535 11 -4.9754629135131836
v 10.680596351623535 9 -4.9754629135131836
v 10.680596351623535 11 -4.075462818145752
v 10.680596351623535 9 -4.075462818145752
f 352 351 349 350
g object_89
v 9.248286247253418 11 -5.1267132759094238
v 9.248286247253418 9 -5.1267132759094238
v 9.248286247253418 11 -4.2267131805419922
v 9.248286247253418 9 -4.2267131805419922
f 356 355 353 354
g object_90
v 5.8241415023803711 11 -5.1267132759094238
v 5.8241415023803711 9 -5.1267132759094238
v 5.8241415023803711 11 -4.2267131805419922
v 5.8241415023803711 9 -4.2267131805419922
f 360 359 357 358
g object_91
v 6.8017106056213379 11 -4.0767130851745605
v 6.8017106056213379 9 -4.0767130851745605
v 7.7017107009887695 11 -4.0767130851745605
v 7.7017107009887695 9 -4.0767130851745605
f 364 362 361 363
g object_92
v 7.1892809867858887 11 -6.7982869148254395
v 7.1892809867858887 9 -6.7982869148254395
v 8.0892810821533203 11 -6.7982869148254395
v 8.0892810821533203 9 -6.7982869148254395
f 368 366 365 367
g object_93
v 5.4435820579528809 11 -6.7982869148254395
v 5.4435820579528809 9 -6.7982869148254395
v 6.3435821533203125 11 -6.7982869148254395
v 6.3435821533203125 9 -6.7982869148254395
f 372 370 369 371
g object_94
v 1.6845389604568481 11 -8.3084068298339844
v 1.6845389604568481 9 -8.3084068298339844
v 2.5845389366149902 11 -8.3084068298339844
v 2.5845389366149902 9 -8.3084068298339844
f 376 374 373 375
g object_95
v 1.6845389604568481 11 -5.2767128944396973
v 1.6845389604568481 9 -5.2767128944396973
v 2.5845389366149902 11 -5.2767128944396973
v 2.5845389366149902 9 -5.2767128944396973
f 380 378 377 379
g object_96
v 8.351506233215332 11 -7.9967441558837891
v 8.351506233215332 9 -7.9967441558837891
v 8.351506233215332 11 -7.0967445373535156
v 8.351506233215332 9 -7.0967445373535156
f 384 383 381 382
g object_97
v 1.2345403432846069 11 -1.2475488185882568
v 1.2345403432846069 9 -1.2475488185882568
v 2.134540319442749 11 -1.2475488185882568
v 2.134540319442749 9 -1.2475488185882568
f 388 386 385 387
g object_98
v 4.3493204116821289 11 -1.2475488185882568
v 4.3493204116821289 9 -1.2475488185882568
v 5.2493205070495605 11 -1.2475488185882568
v 5.2493205070495605 9 -1.2475488185882568
f 392 390 389 391
g object_99
v 22.977170944213867 11 -5.4333896636962891
v 22.977170944213867 9 -5.4333896636962891
v 22.977170944213867 11 -6.3333897590637207
v 22.977170944213867 9 -6.3333897590637207
f 396 395 393 394
g object_100
v 22.977170944213867 11 -7.5467443466186523
v 22.977170944213867 9 -7.5467443466186523
v 22.977170944213867 11 -6.6467442512512207
v 22.977170944213867 9 -6.6467442512512207
f 400 398 397 399
g object_101
v 13.921114921569824 11 -2.8621084690093994
v 13.921114921569824 9 -2.8621084690093994
v 13.921114921569824 11 -3.7621085643768311
v 13.921114921569824 9 -3.7621085643768311
f 404 403 401 402
g object_102
v 13.921114921569824 11 -4.9754629135131836
v 13.921114921569824 9 -4.9754629135131836
v 13.921114921569824 11 -4.075462818145752
v 13.921114921569824 9 -4.075462818145752
f 408 406 405 407
g object_103
v 15.353425979614258 11 -5.1267132759094238
v 15.353425979614258 9 -5.1267132759094238
v 15.353425979614258 11 -4.2267131805419922
v 15.353425979614258 9 -4.2267131805419922
f 412 410 409 411
g object_104
v 18.777570724487305 11 -5.1267132759094238
v 18.777570724487305 9 -5.1267132759094238
v 18.777570724487305 11 -4.2267131805419922
v 18.777570724487305 9 -4.2267131805419922
f 416 414 413 415
g object_105
v 17.80000114440918 11 -4.0767130851745605
v 17.80000114440918 9 -4.0767130851745605
v 16.900001525878906 11 -4.0767130851745605
v 16.900001525878906 9 -4.0767130851745605
f 420 419 417 418
g object_106
v 17.412431716918945 11 -6.7982869148254395
v 17.412431716918945 9 -6.7982869148254395
v 16.512430191040039 11 -6.7982869148254395
v 16.512430191040039 9 -6.7982869148254395
f 424 423 421 422
g object_107
v 19.158130645751953 11 -6.7982869148254395
v 19.158130645751953 9 -6.7982869148254395
v 18.258129119873047 11 -6.7982869148254395
v 18.258129119873047 9 -6.7982869148254395
f 428 427 425 426
g object_108
v 22.917173385620117 11 -8.3084068298339844
v 22.917173385620117 9 -8.3084068298339844
v 22.017173767089844 11 -8.3084068298339844
v 22.017173767089844 9 -8.3084068298339844
f 432 431 429 430
g object_109
v 22.917173385620117 11 -5.2767128944396973
v 22.917173385620117 9 -5.2767128944396973
v 22.017173767089844 11 -5.2767128944396973
v 22.017173767089844 9 -5.2767128944396973
f 436 435 433 434
g object_110
v 16.250205993652344 11 -7.9967441558837891
v 16.250205993652344 9 -7.9967441558837891
v 16.250205993652344 11 -7.0967445373535156
v 16.250205993652344 9 -7.0967445373535156
f 440 438 437 439
g object_111
v 23.367172241210938 11 -1.2475488185882568
v 23.367172241210938 9 -1.2475488185882568
v 22.467170715332031 11 -1.2475488185882568
v 22.467170715332031 9 -1.2475488185882568
f 444 443 441 442
g object_112
v 20.252391815185547 11 -1.2475488185882568
v 20.252391815185547 9 -1.2475488185882568
v 19.352392196655273 11 -1.2475488185882568
v 19.352392196655273 9 -1.2475488185882568
f 448 447 445 446
g object_113
v 1.6245400905609131 14 -5.4333896636962891
v 1.6245400905609131 12 -5.4333896636962891
v 1.6245400905609131 14 -6.3333897590637207
v 1.6245400905609131 12 -6.3333897590637207
f 452 450 449 451
g object_114
v 1.6245400905609131 14 -7.5467443466186523
v 1.6245400905609131 12 -7.5467443466186523
v 1.6245400905609131 14 -6.6467442512512207
v 1.6245400905609131 12 -6.6467442512512207
f 456 455 453 454
g object_115
v 10.680596351623535 14 -2.8621084690093994
v 10.680596351623535 12 -2.8621084690093994
v 10.680596351623535 14 -3.7621085643768311
v 10.680596351623535 12 -3.7621085643768311
f 460 458 457 459
g object_116
v 10.680596351623535 14 -4.9754629135131836
v 10.680596351623535 12 -4.9754629135131836
v 10.680596351623535 14 -4.075462818145752
v 10.680596351623535 12 -4.075462818145752
f 464 463 461 462
g object_117
v 9.248286247253418 14 -5.1267132759094238
v 9.248286247253418 12 -5.1267132759094238
v 9.248286247253418 14 -4.2267131805419922
v 9.248286247253418 12 -4.2267131805419922
f 468 467 465 466
g object_118
v 5.8241415023803711 14 -5.1267132759094238
v 5.8241415023803711 12 -5.1267132759094238
v 5.8241415023803711 14 -4.2267131805419922
v 5.8241415023803711 12 -4.2267131805419922
f 472 471 469 470
g object_119
v 6.8017106056213379 14 -4.0767130851745605
v 6.8017106056213379 12 -4.0767130851745605
v 7.7017107009887695 14 -4.0767130851745605
v 7.7017107009887695 12 -4.0767130851745605
f 476 474 473 475
g object_120
v 7.1892809867858887 14 -6.7982869148254395
v 7.1892809867858887 12 -6.7982869148254395
v 8.0892810821533203 14 -6.7982869148254395
v 8.0892810821533203 12 -6.7982869148254395
f 480 478 477 479
g object_121
v 5.4435820579528809 14 -6.7982869148254395
v 5.4435820579528809 12 -6.7982869148254395
v 6.3435821533203125 14 -6.7982869148254395
v 6.3435821533203125 12 -6.7982869148254395
f 484 482 481 483
g object_122
v 1.6845389604568481 14 -8.3084068298339844
v 1.6845389604568481 12 -8.3084068298339844
v 2.5845389366149902 14 -8.3084068298339844
v 2.5845389366149902 12 -8.3084068298339844
f 488 486 485 487
g object_123
v 1.6845389604568481 14 -5.2767128944396973
v 1.6845389604568481 12 -5.2767128944396973
v 2.5845389366149902 14 -5.2767128944396973
v 2.5845389366149902 12 -5.2767128944396973
f 492 490 489 491
g object_124
v 8.351506233215332 14 -7.9967441558837891
v 8.351506233215332 12 -7.9967441558837891
v 8.351506233215332 14 -7.0967445373535156
v 8.351506233215332 12 -7.0967445373535156
f 496 495 493 494
g object_125
v 1.2345403432846069 14 -1.2475488185882568
v 1.2345403432846069 12 -1.2475488185882568
v 2.134540319442749 14 -1.2475488185882568
v 2.134540319442749 12 -1.2475488185882568
f 500 498 497 499
g object_126
v 4.3493204116821289 14 -1.2475488185882568
v 4.3493204116821289 12 -1.2475488185882568
v 5.2493205070495605 14 -1.2475488185882568
v 5.2493205070495605 12 -1.2475488185882568
f 504 502 501 503
g object_127
v 22.977170944213867 14 -5.4333896636962891
v 22.977170944213867 12 -5.4333896636962891
v 22.977170944213867 14 -6.3333897590637207
v 22.977170944213867 12 -6.3333897590637207
f 508 507 505 506
g object_128
v 22.977170944213867 14 -7.5467443466186523
v 22.977170944213867 12 -7.5467443466186523
v 22.977170944213867 14 -6.6467442512512207
v 22.977170944213867 12 -6.6467442512512207
f 512 510 509 511
g object_129
v 13.921114921569824 14 -2.8621084690093994
v 13.921114921569824 12 -2.8621084690093994
v 13.921114921569824 14 -3.7621085643768311
v 13.921114921569824 12 -3.7621085643768311
f 516 515 513 514
g object_130
v 13.921114921569824 14 -4.9754629135131836
v 13.921114921569824 12 -4.9754629135131836
v 13.921114921569824 14 -4.075462818145752
v 13.921114921569824 12 -4.075462818145752
f 520 518 517 519
g object_131
v 15.353425979614258 14 -5.1267132759094238
v 15.353425979614258 12 -5.1267132759094238
v 15.353425979614258 14 -4.2267131805419922
v 15.353425979614258 12 -4.2267131805419922
f 524 522 521 523
g object_132
v 18.777570724487305 14 -5.1267132759094238
v 18.777570724487305 12 -5.1267132759094238
v 18.777570724487305 14 -4.2267131805419922
v 18.777570724487305 12 -4.2267131805419922
f 528 526 525 527
g object_133
v 17.80000114440918 14 -4.0767130851745605
v 17.80000114440918 12 -4.0767130851745605
v 16.900001525878906 14 -4.0767130851745605
v 16.900001525878906 12 -4.0767130851745605
f 532 531 529 530
g object_134
v 17.412431716918945 14 -6.7982869148254395
v 17.412431716918945 12 -6.7982869148254395
v 16.512430191040039 14 -6.7982869148254395
v 16.512430191040039 12 -6.7982869148254395
f 536 535 533 534
g object_135
v 19.158130645751953 14 -6.7982869148254395
v 19.158130645751953 12 -6.7982869148254395
v 18.258129119873047 14 -6.7982869148254395
v 18.258129119873047 12 -6.7982869148254395
f 540 539 537 538
g object_136
v 22.917173385620117 14 -8.3084068298339844
v 22.917173385620117 12 -8.3084068298339844
v 22.017173767089844 14 -8.3084068298339844
v 22.017173767089844 12 -8.3084068298339844
f 544 543 541 542
g object_137
v 22.917173385620117 14 -5.2767128944396973
v 22.917173385620117 12 -5.2767128944396973
v 22.017173767089844 14 -5.2767128944396973
v 22.017173767089844 12 -5.2767128944396973
f 548 547 545 546
g object_138
v 16.250205993652344 14 -7.9967441558837891
v 16.250205993652344 12 -7.9967441558837891
v 16.250205993652344 14 -7.0967445373535156
v 16.250205993652344 12 -7.0967445373535156
f 552 550 549 551
g object_139
v 23.367172241210938 14 -1.2475488185882568
v 23.367172241210938 12 -1.2475488185882568
v 22.467170715332031 14 -1.2475488185882568
v 22.467170715332031 12 -1.2475488185882568
f 556 555 553 554
g object_140
v 20.252391815185547 14 -1.2475488185882568
v 20.252391815185547 12 -1.2475488185882568
v 19.352392196655273 14 -1.2475488185882568
v 19.352392196655273 12 -1.2475488185882568
f 560 559 557 558
g object_141
v 1.6245400905609131 17 -5.4333896636962891
v 1.6245400905609131 15 -5.4333896636962891
v 1.6245400905609131 17 -6.3333897590637207
v 1.6245400905609131 15 -6.3333897590637207
f 564 562 561 563
g object_142
v 1.6245400905609131 17 -7.5467443466186523
v 1.6245400905609131 15 -7.5467443466186523
v 1.6245400905609131 17 -6.6467442512512207
v 1.6245400905609131 15 -6.6467442512512207
f 568 567 565 566
g object_143
v 10.680596351623535 17 -2.8621084690093994
v 10.680596351623535 15 -2.8621084690093994
v 10.680596351623535 17 -3.7621085643768311
v 10.680596351623535 15 -3.7621085643768311
f 572 570 569 571
g object_144
v 10.680596351623535 17 -4.9754629135131836
v 10.680596351623535 15 -4.9754629135131836
v 10.680596351623535 17 -4.075462818145752
v 10.680596351623535 15 -4.075462818145752
f 576 575 573 574
g object_145
v 9.248286247253418 17 -5.1267132759094238
v 9.248286247253418 15 -5.1267132759094238
v 9.248286247253418 17 -4.2267131805419922
v 9.248286247253418 15 -4.2267131805419922
f 580 579 577 578
g object_146
v 5.8241415023803711 17 -5.1267132759094238
v 5.8241415023803711 15 -5.1267132759094238
v 5.8241415023803711 17 -4.2267131805419922
v 5.8241415023803711 15 -4.2267131805419922
f 584 583 581 582
g object_147
v 6.8017106056213379 17 -4.0767130851745605
v 6.8017106056213379 15 -4.0767130851745605
v 7.7017107009887695 17 -4.0767130851745605
v 7.7017107009887695 15 -4.0767130851745605
f 588 586 585 587
g object_148
v 7.1892809867858887 17 -6.7982869148254395
v 7.1892809867858887 15 -6.7982869148254395
v 8.0892810821533203 17 -6.7982869148254395
v 8.0892810821533203 15 -6.7982869148254395
f 592 590 589 591
g object_149
v 5.4435820579528809 17 -6.7982869148254395
v 5.4435820579528809 15 -6.7982869148254395
v 6.3435821533203125 17 -6.7982869148254395
v 6.3435821533203125 15 -6.7982869148254395
f 596 594 593 595
g object_150
v 1.6845389604568481 17 -8.3084068298339844
v 1.6845389604568481 15 -8.3084068298339844
v 2.5845389366149902 17 -8.3084068298339844
v 2.5845389366149902 15 -8.3084068298339844
f 600 598 597 599
g object_151
v 1.6845389604568481 17 -5.2767128944396973
v 1.6845389604568481 15 -5.2767128944396973
v 2.5845389366149902 17 -5.2767128944396973
v 2.5845389366149902 15 -5.2767128944396973
f 604 602 601 603
g object_152
v 8.351506233215332 17 -7.9967441558837891
v 8.351506233215332 15 -7.9967441558837891
v 8.351506233215332 17 -7.0967445373535156
v 8.351506233215332 15 -7.0967445373535156
f 608 607 605 606
g object_153
v 1.2345403432846069 17 -1.2475488185882568
v 1.2345403432846069 15 -1.2475488185882568
v 2.134540319442749 17 -1.2475488185882568
v 2.134540319442749 15 -1.2475488185882568
f 612 610 609 611
g object_154
v 4.3493204116821289 17 -1.2475488185882568
v 4.3493204116821289 15 -1.2475488185882568
v 5.2493205070495605 17 -1.2475488185882568
v 5.2493205070495605 15 -1.2475488185882568
f 616 614 613 615
g object_155
v 22.977170944213867 17 -5.4333896636962891
v 22.977170944213867 15 -5.4333896636962891
v 22.977170944213867 17 -6.3333897590637207
v 22.977170944213867 15 -6.3333897590637207
f 620 619 617 618
g object_156
v 22.977170944213867 17 -7.5467443466186523
v 22.977170944213867 15 -7.5467443466186523
v 22.977170944213867 17 -6.6467442512512207
v 22.977170944213867 15 -6.6467442512512207
f 624 622 621 623
g object_157
v 13.921114921569824 17 -2.8621084690093994
v 13.921114921569824 15 -2.8621084690093994
v 13.921114921569824 17 -3.7621085643768311
v 13.921114921569824 15 -3.7621085643768311
f 628 627 625 626
g object_158
v 13.921114921569824 17 -4.9754629135131836
v 13.921114921569824 15 -4.9754629135131836
v 13.921114921569824 17 -4.075462818145752
v 13.921114921569824 15 -4.075462818145752
f 632 630 629 631
g object_159
v 15.353425979614258 17 -5.1267132759094238
v 15.353425979614258 15 -5.1267132759094238
v 15.353425979614258 17 -4.2267131805419922
v 15.353425979614258 15 -4.2267131805419922
f 636 634 633 635
g object_160
v 18.777570724487305 17 -5.1267132759094238
v 18.777570724487305 15 -5.1267132759094238
v 18.777570724487305 17 -4.2267131805419922
v 18.777570724487305 15 -4.2267131805419922
f 640 638 637 639
g object_161
v 17.80000114440918 17 -4.0767130851745605
v 17.80000114440918 15 -4.0767130851745605
v 16.900001525878906 17 -4.0767130851745605
v 16.900001525878906 15 -4.0767130851745605
f 644 643 641 642
g object_162
v 17.412431716918945 17 -6.7982869148254395
v 17.412431716918945 15 -6.7982869148254395
v 16.512430191040039 17 -6.7982869148254395
v 16.512430191040039 15 -6.7982869148254395
f 648 647 645 646
g object_163
v 19.158130645751953 17 -6.7982869148254395
v 19.158130645751953 15 -6.7982869148254395
v 18.258129119873047 17 -6.7982869148254395
v 18.258129119873047 15 -6.7982869148254395
f 652 651 649 650
g object_164
v 22.917173385620117 17 -8.3084068298339844
v 22.917173385620117 15 -8.3084068298339844
v 22.017173767089844 17 -8.3084068298339844
v 22.017173767089844 15 -8.3084068298339844
f 656 655 653 654
g object_165
v 22.917173385620117 17 -5.2767128944396973
v 22.917173385620117 15 -5.2767128944396973
v 22.017173767089844 17 -5.2767128944396973
v 22.017173767089844 15 -5.2767128944396973
f 660 659 657 658
g object_166
v 16.250205993652344 17 -7.9967441558837891
v 16.250205993652344 15 -7.9967441558837891
v 16.250205993652344 17 -7.0967445373535156
v 16.250205993652344 15 -7.0967445373535156
f 664 662 661 663
g object_167
v 23.367172241210938 17 -1.2475488185882568
v 23.367172241210938 15 -1.2475488185882568
v 22.467170715332031 17 -1.2475488185882568
v 22.467170715332031 15 -1.2475488185882568
f 668 667 665 666
g object_168
v 20.252391815185547 17 -1.2475488185882568
v 20.252391815185547 15 -1.2475488185882568
v 19.352392196655273 17 -1.2475488185882568
v 19.352392196655273 15 -1.2475488185882568
f 672 671 669 670
g object_169
v 1.6245400905609131 20 -5.4333896636962891
v 1.6245400905609131 18 -5.4333896636962891
v 1.6245400905609131 20 -6.3333897590637207
v 1.6245400905609131 18 -6.3333897590637207
f 676 674 673 675
g object_170
v 1.6245400905609131 20 -7.5467443466186523
v 1.6245400905609131 18 -7.5467443466186523
v 1.6245400905609131 20 -6.6467442512512207
v 1.6245400905609131 18 -6.6467442512512207
f 680 679 677 678
g object_171
v 10.680596351623535 20 -2.8621084690093994
v 10.680596351623535 18 -2.8621084690093994
v 10.680596351623535 20 -3.7621085643768311
v 10.680596351623535 18 -3.7621085643768311
f 684 682 681 683
g object_172
v 10.680596351623535 20 -4.9754629135131836
v 10.680596351623535 18 -4.9754629135131836
v 10.680596351623535 20 -4.075462818145752
v 10.680596351623535 18 -4.075462818145752
f 688 687 685 686
g object_173
v 9.248286247253418 20 -5.1267132759094238
v 9.248286247253418 18 -5.1267132759094238
v 9.248286247253418 20 -4.2267131805419922
v 9.248286247253418 18 -4.2267131805419922
f 692 691 689 690
g object_174
v 5.8241415023803711 20 -5.1267132759094238
v 5.8241415023803711 18 -5.1267132759094238
v 5.8241415023803711 20 -4.2267131805419922
v 5.8241415023803711 18 -4.2267131805419922
f 696 695 693 694
g object_175
v 6.8017106056213379 20 -4.0767130851745605
v 6.8017106056213379 18 -4.0767130851745605
v 7.7017107009887695 20 -4.0767130851745605
v 7.7017107009887695 18 -4.0767130851745605
f 700 698 697 699
g object_176
v 7.1892809867858887 20 -6.7982869148254395
v 7.1892809867858887 18 -6.7982869148254395
v 8.0892810821533203 20 -6.7982869148254395
v 8.0892810821533203 18 -6.7982869148254395
f 704 702 701 703
g object_177
v 5.4435820579528809 20 -6.7982869148254395
v 5.4435820579528809 18 -6.7982869148254395
v 6.3435821533203125 20 -6.7982869148254395
v 6.3435821533203125 18 -6.7982869148254395
f 708 706 705 707
g object_178
v 1.6845389604568481 20 -8.3084068298339844
v 1.6845389604568481 18 -8.3084068298339844
v 2.5845389366149902 20 -8.3084068298339844
v 2.5845389366149902 18 -8.3084068298339844
f 712 710 709 711
g object_179
v 1.6845389604568481 20 -5.2767128944396973
v 1.6845389604568481 18 -5.2767128944396973
v 2.5845389366149902 20 -5.2767128944396973
v 2.5845389366149902 18 -5.2767128944396973
f 716 714 713 715
g object_180
v 8.351506233215332 20 -7.9967441558837891
v 8.351506233215332 18 -7.9967441558837891
v 8.351506233215332 20 -7.0967445373535156
v 8.351506233215332 18 -7.0967445373535156
f 720 719 717 718
g object_181
v 1.2345403432846069 20 -1.2475488185882568
v 1.2345403432846069 18 -1.2475488185882568
v 2.134540319442749 20 -1.2475488185882568
v 2.134540319442749 18 -1.2475488185882568
f 724 722 721 723
g object_182
v 4.3493204116821289 20 -1.2475488185882568
v 4.3493204116821289 18 -1.2475488185882568
v 5.2493205070495605 20 -1.2475488185882568
v 5.2493205070495605 18 -1.2475488185882568
f 728 726 725 727
g object_183
v 22.977170944213867 20 -5.4333896636962891
v 22.977170944213867 18 -5.4333896636962891
v 22.977170944213867 20 -6.3333897590637207
v 22.977170944213867 18 -6.3333897590637207
f 732 731 729 730
g object_184
v 22.977170944213867 20 -7.5467443466186523
v 22.977170944213867 18 -7.5467443466186523
v 22.977170944213867 20 -6.6467442512512207
v 22.977170944213867 18 -6.6467442512512207
f 736 734 733 735
g object_185
v 13.921114921569824 20 -2.8621084690093994
v 13.921114921569824 18 -2.8621084690093994
v 13.921114921569824 20 -3.7621085643768311
v 13.921114921569824 18 -3.7621085643768311
f 740 739 737 738
g object_186
v 13.921114921569824 20 -4.9754629135131836
v 13.921114921569824 18 -4.9754629135131836
v 13.921114921569824 20 -4.075462818145752
v 13.921114921569824 18 -4.075462818145752
f 744 742 741 743
g object_187
v 15.353425979614258 20 -5.1267132759094238
v 15.353425979614258 18 -5.1267132759094238
v 15.353425979614258 20 -4.2267131805419922
v 15.353425979614258 18 -4.2267131805419922
f 748 746 745 747
g object_188
v 18.777570724487305 20 -5.1267132759094238
v 18.777570724487305 18 -5.1267132759094238
v 18.777570724487305 20 -4.2267131805419922
v 18.777570724487305 18 -4.2267131805419922
f 752 750 749 751
g object_189
v 17.80000114440918 20 -4.0767130851745605
v 17.80000114440918 18 -4.0767130851745605
v 16.900001525878906 20 -4.0767130851745605
v 16.900001525878906 18 -4.0767130851745605
f 756 755 753 754
g object_190
v 17.412431716918945 20 -6.7982869148254395
v 17.412431716918945 18 -6.7982869148254395
v 16.512430191040039 20 -6.7982869148254395
v 16.512430191040039 18 -6.7982869148254395
f 760 759 757 758
g object_191
v 19.158130645751953 20 -6.7982869148254395
v 19.158130645751953 18 -6.7982869148254395
v 18.258129119873047 20 -6.7982869148254395
v 18.258129119873047 18 -6.7982869148254395
f 764 763 761 762
g object_192
v 22.917173385620117 20 -8.3084068298339844
v 22.917173385620117 18 -8.3084068298339844
v 22.017173767089844 20 -8.3084068298339844
v 22.017173767089844 18 -8.3084068298339844
f 768 767 765 766
g object_193
v 22.917173385620117 20 -5.2767128944396973
v 22.917173385620117 18 -5.2767128944396973
v 22.017173767089844 20 -5.2767128944396973
v 22.017173767089844 18 -5.2767128944396973
f 772 771 769 770
g object_194
v 16.250205993652344 20 -7.9967441558837891
v 16.250205993652344 18 -7.9967441558837891
v 16.250205993652344 20 -7.0967445373535156
v 16.250205993652344 18 -7.0967445373535156
f 776 774 773 775
g object_195
v 23.367172241210938 20 -1.2475488185882568
v 23.367172241210938 18 -1.2475488185882568
v 22.467170715332031 20 -1.2475488185882568
v 22.467170715332031 18 -1.2475488185882568
f 780 779 777 778
g object_196
v 20.252391815185547 20 -1.2475488185882568
v 20.252391815185547 18 -1.2475488185882568
v 19.352392196655273 20 -1.2475488185882568
v 19.352392196655273 18 -1.2475488185882568
f 784 783 781 782
g object_197
v 1.6245400905609131 23 -5.4333896636962891
v 1.6245400905609131 21 -5.4333896636962891
v 1.6245400905609131 23 -6.3333897590637207
v 1.6245400905609131 21 -6.3333897590637207
f 788 786 785 787
g object_198
v 1.6245400905609131 23 -7.5467443466186523
v 1.6245400905609131 21 -7.5467443466186523
v 1.6245400905609131 23 -6.6467442512512207
v 1.6245400905609131 21 -6.6467442512512207
f 792 791 789 790
g object_199
v 10.680596351623535 23 -2.8621084690093994
v 10.680596351623535 21 -2.8621084690093994
v 10.680596351623535 23 -3.7621085643768311
v 10.680596351623535 21 -3.7621085643768311
f 796 794 793 795
g object_200
v 10.680596351623535 23 -4.9754629135131836
v 10.680596351623535 21 -4.9754629135131836
v 10.680596351623535 23 -4.075462818145752
v 10.680596351623535 21 -4.075462818145752
f 800 799 797 798
g object_201
v 9.248286247253418 23 -5.1267132759094238
v 9.248286247253418 21 -5.1267132759094238
v 9.248286247253418 23 -4.2267131805419922
v 9.248286247253418 21 -4.2267131805419922
f 804 803 801 802
g object_202
v 5.8241415023803711 23 -5.1267132759094238
v 5.8241415023803711 21 -5.1267132759094238
v 5.8241415023803711 23 -4.2267131805419922
v 5.8241415023803711 21 -4.2267131805419922
f 808 807 805 806
g object_203
v 6.8017106056213379 23 -4.0767130851745605
v 6.8017106056213379 21 -4.0767130851745605
v 7.7017107009887695 23 -4.0767130851745605
v 7.7017107009887695 21 -4.0767130851745605
f 812 810 809 811
g object_204
v 7.1892809867858887 23 -6.7982869148254395
v 7.1892809867858887 21 -6.7982869148254395
v 8.0892810821533203 23 -6.7982869148254395
v 8.0892810821533203 21 -6.7982869148254395
f 816 814 813 815
g object_205
v 5.4435820579528809 23 -6.7982869148254395
v 5.4435820579528809 21 -6.7982869148254395
v 6.3435821533203125 23 -6.7982869148254395
v 6.3435821533203125 21 -6.7982869148254395
f 820 818 817 819
g object_206
v 1.6845389604568481 23 -8.3084068298339844
v 1.6845389604568481 21 -8.3084068298339844
v 2.5845389366149902 23 -8.3084068298339844
v 2.5845389366149902 21 -8.3084068298339844
f 824 822 821 823
g object_207
v 1.6845389604568481 23 -5.2767128944396973
v 1.6845389604568481 21 -5.2767128944396973
v 2.5845389366149902 23 -5.2767128944396973
v 2.5845389366149902 21 -5.2767128944396973
f 828 826 825 827
g object_208
v 8.351506233215332 23 -7.9967441558837891
v 8.351506233215332 21 -7.9967441558837891
v 8.351506233215332 23 -7.0967445373535156
v 8.351506233215332 21 -7.0967445373535156
f 832 831 829 830
g object_209
v 1.2345403432846069 23 -1.2475488185882568
v 1.2345403432846069 21 -1.2475488185882568
v 2.134540319442749 23 -1.2475488185882568
v 2.134540319442749 21 -1.2475488185882568
f 836 834 833 835
g object_210
v 4.3493204116821289 23 -1.2475488185882568
v 4.3493204116821289 21 -1.2475488185882568
v 5.2493205070495605 23 -1.2475488185882568
v 5.2493205070495605 21 -1.2475488185882568
f 840 838 837 839
g object_211
v 22.977170944213867 23 -5.4333896636962891
v 22.977170944213867 21 -5.4333896636962891
v 22.977170944213867 23 -6.3333897590637207
v 22.977170944213867 21 -6.3333897590637207
f 844 843 841 842
g object_212
v 22.977170944213867 23 -7.5467443466186523
v 22.977170944213867 21 -7.5467443466186523
v 22.977170944213867 23 -6.6467442512512207
v 22.977170944213867 21 -6.6467442512512207
f 848 846 845 847
g object_213
v 13.921114921569824 23 -2.8621084690093994
v 13.921114921569824 21 -2.8621084690093994
v 13.921114921569824 23 -3.7621085643768311
v 13.921114921569824 21 -3.7621085643768311
f 852 851 849 850
g object_214
v 13.921114921569824 23 -4.9754629135131836
v 13.921114921569824 21 -4.9754629135131836
v 13.921114921569824 23 -4.075462818145752
v 13.921114921569824 21 -4.075462818145752
f 856 854 853 855
g object_215
v 15.353425979614258 23 -5.1267132759094238
v 15.353425979614258 21 -5.1267132759094238
v 15.353425979614258 23 -4.2267131805419922
v 15.353425979614258 21 -4.2267131805419922
f 860 858 857 859
g object_216
v 18.777570724487305 23 -5.1267132759094238
v 18.777570724487305 21 -5.1267132759094238
v 18.777570724487305 23 -4.2267131805419922
v 18.777570724487305 21 -4.2267131805419922
f 864 862 861 863
g object_217
v 17.80000114440918 23 -4.0767130851745605
v 17.80000114440918 21 -4.0767130851745605
v 16.900001525878906 23 -4.0767130851745605
v 16.900001525878906 21 -4.0767130851745605
f 868 867 865 866
g object_218
v 17.412431716918945 23 -6.7982869148254395
v 17.412431716918945 21 -6.7982869148254395
v 16.512430191040039 23 -6.7982869148254395
v 16.512430191040039 21 -6.7982869148254395
f 872 871 869 870
g object_219
v 19.158130645751953 23 -6.7982869148254395
v 19.158130645751953 21 -6.7982869148254395
v 18.258129119873047 23 -6.7982869148254395
v 18.258129119873047 21 -6.7982869148254395
f 876 875 873 874
g object_220
v 22.917173385620117 23 -8.3084068298339844
v 22.917173385620117 21 -8.3084068298339844
v 22.017173767089844 23 -8.3084068298339844
v 22.017173767089844 21 -8.3084068298339844
f 880 879 877 878
g object_221
v 22.917173385620117 23 -5.2767128944396973
v 22.917173385620117 21 -5.2767128944396973
v 22.017173767089844 23 -5.2767128944396973
v 22.017173767089844 21 -5.2767128944396973
f 884 883 881 882
g object_222
v 16.250205993652344 23 -7.9967441558837891
v 16.250205993652344 21 -7.9967441558837891
v 16.250205993652344 23 -7.0967445373535156
v 16.250205993652344 21 -7.0967445373535156
f 888 886 885 887
g object_223
v 23.367172241210938 23 -1.2475488185882568
v 23.367172241210938 21 -1.2475488185882568
v 22.467170715332031 23 -1.2475488185882568
v 22.467170715332031 21 -1.2475488185882568
f 892 891 889 890
g object_224
v 20.252391815185547 23 -1.2475488185882568
v 20.252391815185547 21 -1.2475488185882568
v 19.352392196655273 23 -1.2475488185882568
v 19.352392196655273 21 -1.2475488185882568
f 896 895 893 894
g object_225
v 1.6245400905609131 26 -5.4333896636962891
v 1.6245400905609131 24 -5.4333896636962891
v 1.6245400905609131 26 -6.3333897590637207
v 1.6245400905609131 24 -6.3333897590637207
f 900 898 897 899
g object_226
v 1.6245400905609131 26 -7.5467443466186523
v 1.6245400905609131 24 -7.5467443466186523
v 1.6245400905609131 26 -6.6467442512512207
v 1.6245400905609131 24 -6.6467442512512207
f 904 903 901 902
g object_227
v 10.680596351623535 26 -2.8621084690093994
v 10.680596351623535 24 -2.8621084690093994
v 10.680596351623535 26 -3.7621085643768311
v 10.680596351623535 24 -3.7621085643768311
f 908 906 905 907
g object_228
v 10.680596351623535 26 -4.9754629135131836
v 10.680596351623535 24 -4.9754629135131836
v 10.680596351623535 26 -4.075462818145752
v 10.680596351623535 24 -4.075462818145752
f 912 911 909 910
g object_229
v 9.248286247253418 26 -5.1267132759094238
v 9.248286247253418 24 -5.1267132759094238
v 9.248286247253418 26 -4.2267131805419922
v 9.248286247253418 24 -4.2267131805419922
f 916 915 913 914
g object_230
v 5.8241415023803711 26 -5.1267132759094238
v 5.8241415023803711 24 -5.1267132759094238
v 5.8241415023803711 26 -4.2267131805419922
v 5.8241415023803711 24 -4.2267131805419922
f 920 919 917 918
g object_231
v 6.8017106056213379 26 -4.0767130851745605
v 6.8017106056213379 24 -4.0767130851745605
v 7.7017107009887695 26 -4.0767130851745605
v 7.7017107009887695 24 -4.0767130851745605
f 924 922 921 923
g object_232
v 7.1892809867858887 26 -6.7982869148254395
v 7.1892809867858887 24 -6.7982869148254395
v 8.0892810821533203 26 -6.7982869148254395
v 8.0892810821533203 24 -6.7982869148254395
f 928 926 925 927
g object_233
v 5.4435820579528809 26 -6.7982869148254395
v 5.4435820579528809 24 -6.7982869148254395
v 6.3435821533203125 26 -6.7982869148254395
v 6.3435821533203125 24 -6.7982869148254395
f 932 930 929 931
g object_234
v 1.6845389604568481 26 -8.3084068298339844
v 1.6845389604568481 24 -8.3084068298339844
v 2.5845389366149902 26 -8.3084068298339844
v 2.5845389366149902 24 -8.3084068298339844
f 936 934 933 935
g object_235
v 1.6845389604568481 26 -5.2767128944396973
v 1.6845389604568481 24 -5.2767128944396973
v 2.5845389366149902 26 -5.2767128944396973
v 2.5845389366149902 24 -5.2767128944396973
f 940 938 937 939
g object_236
v 8.351506233215332 26 -7.9967441558837891
v 8.351506233215332 24 -7.9967441558837891
v 8.351506233215332 26 -7.0967445373535156
v 8.351506233215332 24 -7.0967445373535156
f 944 943 941 942
g object_237
v 1.2345403432846069 26 -1.2475488185882568
v 1.2345403432846069 24 -1.2475488185882568
v 2.134540319442749 26 -1.2475488185882568
v 2.134540319442749 24 -1.2475488185882568
f 948 946 945 947
g object_238
v 4.3493204116821289 26 -1.2475488185882568
v 4.3493204116821289 24 -1.2475488185882568
v 5.2493205070495605 26 -1.2475488185882568
v 5.2493205070495605 24 -1.2475488185882568
f 952 950 949 951
g object_239
v 22.977170944213867 26 -5.4333896636962891
v 22.977170944213867 24 -5.4333896636962891
v 22.977170944213867 26 -6.3333897590637207
v 22.977170944213867 24 -6.3333897590637207
f 956 955 953 954
g object_240
v 22.977170944213867 26 -7.5467443466186523
v 22.977170944213867 24 -7.5467443466186523
v 22.977170944213867 26 -6.6467442512512207
v 22.977170944213867 24 -6.6467442512512207
f 960 958 957 959
g object_241
v 13.921114921569824 26 -2.8621084690093994
v 13.921114921569824 24 -2.8621084690093994
v 13.921114921569824 26 -3.7621085643768311
v 13.921114921569824 24 -3.7621085643768311
f 964 963 961 962
g object_242
v 13.921114921569824 26 -4.9754629135131836
v 13.921114921569824 24 -4.9754629135131836
v 13.921114921569824 26 -4.075462818145752
v 13.921114921569824 24 -4.075462818145752
f 968 966 965 967
g object_243
v 15.353425979614258 26 -5.1267132759094238
v 15.353425979614258 24 -5.1267132759094238
v 15.353425979614258 26 -4.2267131805419922
v 15.353425979614258 24 -4.2267131805419922
f 972 970 969 971
g object_244
v 18.777570724487305 26 -5.1267132759094238
v 18.777570724487305 24 -5.1267132759094238
v 18.777570724487305 26 -4.2267131805419922
v 18.777570724487305 24 -4.2267131805419922
f 976 974 973 975
g object_245
v 17.80000114440918 26 -4.0767130851745605
v 17.80000114440918 24 -4.0767130851745605
v 16.900001525878906 26 -4.0767130851745605
v 16.900001525878906 24 -4.0767130851745605
f 980 979 977 978
g object_246
v 17.412431716918945 26 -6.7982869148254395
v 17.412431716918945 24 -6.7982869148254395
v 16.512430191040039 26 -6.7982869148254395
v 16.512430191040039 24 -6.7982869148254395
f 984 983 981 982
g object_247
v 19.158130645751953 26 -6.7982869148254395
v 19.158130645751953 24 -6.7982869148254395
v 18.258129119873047 26 -6.7982869148254395
v 18.258129119873047 24 -6.7982869148254395
f 988 987 985 986
g object_248
v 22.917173385620117 26 -8.3084068298339844
v 22.917173385620117 24 -8.3084068298339844
v 22.017173767089844 26 -8.3084068298339844
v 22.017173767089844 24 -8.3084068298339844
f 992 991 989 990
g object_249
v 22.917173385620117 26 -5.2767128944396973
v 22.917173385620117 24 -5.2767128944396973
v 22.017173767089844 26 -5.2767128944396973
v 22.017173767089844 24 -5.2767128944396973
f 996 995 993 994
g object_250
v 16.250205993652344 26 -7.9967441558837891
v 16.250205993652344 24 -7.9967441558837891
v 16.250205993652344 26 -7.0967445373535156
v 16.250205993652344 24 -7.0967445373535156
f 1000 998 997 999
g object_251
v 23.367172241210938 26 -1.2475488185882568
v 23.367172241210938 24 -1.2475488185882568
v 22.467170715332031 26 -1.2475488185882568
v 22.467170715332031 24 -1.2475488185882568
f 1004 1003 1001 1002
g object_252
v 20.252391815185547 26 -1.2475488185882568
v 20.252391815185547 24 -1.2475488185882568
v 19.352392196655273 26 -1.2475488185882568
v 19.352392196655273 24 -1.2475488185882568
f 1008 1007 1005 1006
