# Rhino

g object_1
v 13.897842407226562 2.0000004768371582 -7.005012035369873
v 13.897842407226562 4.6387319230234425E-07 -7.005012035369873
v 12.997842788696289 2.0000004768371582 -7.005012035369873
v 12.997842788696289 4.6387319230234425E-07 -7.005012035369873
f 4 3 1 2
g object_2
v 10.703869819641113 2.0000004768371582 -7.005012035369873
v 10.703869819641113 4.6387319230234425E-07 -7.005012035369873
v 11.603869438171387 2.0000004768371582 -7.005012035369873
v 11.603869438171387 4.6387319230234425E-07 -7.005012035369873
f 8 6 5 7
g object_3
v 13.897842407226562 5.0000004768371582 -7.005012035369873
v 13.897842407226562 3.0000004768371582 -7.005012035369873
v 12.997842788696289 5.0000004768371582 -7.005012035369873
v 12.997842788696289 3.0000004768371582 -7.005012035369873
f 12 11 9 10
g object_4
v 10.703869819641113 5.0000004768371582 -7.005012035369873
v 10.703869819641113 3.0000004768371582 -7.005012035369873
v 11.603869438171387 5.0000004768371582 -7.005012035369873
v 11.603869438171387 3.0000004768371582 -7.005012035369873
f 16 14 13 15
g object_5
v 13.897842407226562 8 -7.005012035369873
v 13.897842407226562 6.0000004768371582 -7.005012035369873
v 12.997842788696289 8 -7.005012035369873
v 12.997842788696289 6.0000004768371582 -7.005012035369873
f 20 19 17 18
g object_6
v 10.703869819641113 8 -7.005012035369873
v 10.703869819641113 6.0000004768371582 -7.005012035369873
v 11.603869438171387 8 -7.005012035369873
v 11.603869438171387 6.0000004768371582 -7.005012035369873
f 24 22 21 23
g object_7
v 13.897842407226562 11 -7.005012035369873
v 13.897842407226562 9 -7.005012035369873
v 12.997842788696289 11 -7.005012035369873
v 12.997842788696289 9 -7.005012035369873
f 28 27 25 26
g object_8
v 10.703869819641113 11 -7.005012035369873
v 10.703869819641113 9 -7.005012035369873
v 11.603869438171387 11 -7.005012035369873
v 11.603869438171387 9 -7.005012035369873
f 32 30 29 31
g object_9
v 13.897842407226562 14 -7.005012035369873
v 13.897842407226562 12 -7.005012035369873
v 12.997842788696289 14 -7.005012035369873
v 12.997842788696289 12 -7.005012035369873
f 36 35 33 34
g object_10
v 10.703869819641113 14 -7.005012035369873
v 10.703869819641113 12 -7.005012035369873
v 11.603869438171387 14 -7.005012035369873
v 11.603869438171387 12 -7.005012035369873
f 40 38 37 39
g object_11
v 13.897842407226562 17 -7.005012035369873
v 13.897842407226562 15 -7.005012035369873
v 12.997842788696289 17 -7.005012035369873
v 12.997842788696289 15 -7.005012035369873
f 44 43 41 42
g object_12
v 10.703869819641113 17 -7.005012035369873
v 10.703869819641113 15 -7.005012035369873
v 11.603869438171387 17 -7.005012035369873
v 11.603869438171387 15 -7.005012035369873
f 48 46 45 47
g object_13
v 13.897842407226562 20 -7.005012035369873
v 13.897842407226562 18 -7.005012035369873
v 12.997842788696289 20 -7.005012035369873
v 12.997842788696289 18 -7.005012035369873
f 52 51 49 50
g object_14
v 10.703869819641113 20 -7.005012035369873
v 10.703869819641113 18 -7.005012035369873
v 11.603869438171387 20 -7.005012035369873
v 11.603869438171387 18 -7.005012035369873
f 56 54 53 55
g object_15
v 13.897842407226562 23 -7.005012035369873
v 13.897842407226562 21 -7.005012035369873
v 12.997842788696289 23 -7.005012035369873
v 12.997842788696289 21 -7.005012035369873
f 60 59 57 58
g object_16
v 10.703869819641113 23 -7.005012035369873
v 10.703869819641113 21 -7.005012035369873
v 11.603869438171387 23 -7.005012035369873
v 11.603869438171387 21 -7.005012035369873
f 64 62 61 63
g object_17
v 13.897842407226562 26 -7.005012035369873
v 13.897842407226562 24 -7.005012035369873
v 12.997842788696289 26 -7.005012035369873
v 12.997842788696289 24 -7.005012035369873
f 68 67 65 66
g object_18
v 10.703869819641113 26 -7.005012035369873
v 10.703869819641113 24 -7.005012035369873
v 11.603869438171387 26 -7.005012035369873
v 11.603869438171387 24 -7.005012035369873
f 72 70 69 71
