# Rhino

g Doors_entrance
v 32.834331512451172 23 -5.2767133712768555
v 32.834331512451172 21 -5.2767133712768555
v 33.734333038330078 23 -5.2767133712768555
v 33.734333038330078 21 -5.2767133712768555
f 4 2 1 3
g Doors_entrance
v 32.75 23 -5.5874991416931152
v 32.75 21 -5.5874991416931152
v 32.75 23 -6.4874992370605469
v 32.75 21 -6.4874992370605469
f 8 6 5 7
g Doors_entrance
v 40.963954925537109 23 -5.2767133712768555
v 40.963954925537109 21 -5.2767133712768555
v 40.063957214355469 23 -5.2767133712768555
v 40.063957214355469 21 -5.2767133712768555
f 12 11 9 10
g Doors_entrance
v 41.048286437988281 23 -5.5874991416931152
v 41.048286437988281 21 -5.5874991416931152
v 41.048286437988281 23 -6.4874992370605469
v 41.048286437988281 21 -6.4874992370605469
f 16 15 13 14
g Doors_entrance
v 32.834331512451172 20 -5.2767133712768555
v 32.834331512451172 18 -5.2767133712768555
v 33.734333038330078 20 -5.2767133712768555
v 33.734333038330078 18 -5.2767133712768555
f 20 18 17 19
g Doors_entrance
v 32.75 20 -5.5874991416931152
v 32.75 18 -5.5874991416931152
v 32.75 20 -6.4874992370605469
v 32.75 18 -6.4874992370605469
f 24 22 21 23
g Doors_entrance
v 40.963954925537109 20 -5.2767133712768555
v 40.963954925537109 18 -5.2767133712768555
v 40.063957214355469 20 -5.2767133712768555
v 40.063957214355469 18 -5.2767133712768555
f 28 27 25 26
g Doors_entrance
v 41.048286437988281 20 -5.5874991416931152
v 41.048286437988281 18 -5.5874991416931152
v 41.048286437988281 20 -6.4874992370605469
v 41.048286437988281 18 -6.4874992370605469
f 32 31 29 30
g Doors_entrance
v 32.834331512451172 17 -5.2767133712768555
v 32.834331512451172 15 -5.2767133712768555
v 33.734333038330078 17 -5.2767133712768555
v 33.734333038330078 15 -5.2767133712768555
f 36 34 33 35
g Doors_entrance
v 32.75 17 -5.5874991416931152
v 32.75 15 -5.5874991416931152
v 32.75 17 -6.4874992370605469
v 32.75 15 -6.4874992370605469
f 40 38 37 39
g Doors_entrance
v 40.963954925537109 17 -5.2767133712768555
v 40.963954925537109 15 -5.2767133712768555
v 40.063957214355469 17 -5.2767133712768555
v 40.063957214355469 15 -5.2767133712768555
f 44 43 41 42
g Doors_entrance
v 41.048286437988281 17 -5.5874991416931152
v 41.048286437988281 15 -5.5874991416931152
v 41.048286437988281 17 -6.4874992370605469
v 41.048286437988281 15 -6.4874992370605469
f 48 47 45 46
g Doors_entrance
v 32.834331512451172 14 -5.2767133712768555
v 32.834331512451172 12 -5.2767133712768555
v 33.734333038330078 14 -5.2767133712768555
v 33.734333038330078 12 -5.2767133712768555
f 52 50 49 51
g Doors_entrance
v 32.75 14 -5.5874991416931152
v 32.75 12 -5.5874991416931152
v 32.75 14 -6.4874992370605469
v 32.75 12 -6.4874992370605469
f 56 54 53 55
g Doors_entrance
v 40.963954925537109 14 -5.2767133712768555
v 40.963954925537109 12 -5.2767133712768555
v 40.063957214355469 14 -5.2767133712768555
v 40.063957214355469 12 -5.2767133712768555
f 60 59 57 58
g Doors_entrance
v 41.048286437988281 14 -5.5874991416931152
v 41.048286437988281 12 -5.5874991416931152
v 41.048286437988281 14 -6.4874992370605469
v 41.048286437988281 12 -6.4874992370605469
f 64 63 61 62
g Doors_entrance
v 32.834331512451172 11 -5.2767133712768555
v 32.834331512451172 9 -5.2767133712768555
v 33.734333038330078 11 -5.2767133712768555
v 33.734333038330078 9 -5.2767133712768555
f 68 66 65 67
g Doors_entrance
v 32.75 11 -5.5874991416931152
v 32.75 9 -5.5874991416931152
v 32.75 11 -6.4874992370605469
v 32.75 9 -6.4874992370605469
f 72 70 69 71
g Doors_entrance
v 40.963954925537109 11 -5.2767133712768555
v 40.963954925537109 9 -5.2767133712768555
v 40.063957214355469 11 -5.2767133712768555
v 40.063957214355469 9 -5.2767133712768555
f 76 75 73 74
g Doors_entrance
v 41.048286437988281 11 -5.5874991416931152
v 41.048286437988281 9 -5.5874991416931152
v 41.048286437988281 11 -6.4874992370605469
v 41.048286437988281 9 -6.4874992370605469
f 80 79 77 78
g Doors_entrance
v 32.834331512451172 8 -5.2767133712768555
v 32.834331512451172 6.0000004768371582 -5.2767133712768555
v 33.734333038330078 8 -5.2767133712768555
v 33.734333038330078 6.0000004768371582 -5.2767133712768555
f 84 82 81 83
g Doors_entrance
v 32.75 8 -5.5874991416931152
v 32.75 6.0000004768371582 -5.5874991416931152
v 32.75 8 -6.4874992370605469
v 32.75 6.0000004768371582 -6.4874992370605469
f 88 86 85 87
g Doors_entrance
v 40.963954925537109 8 -5.2767133712768555
v 40.963954925537109 6.0000004768371582 -5.2767133712768555
v 40.063957214355469 8 -5.2767133712768555
v 40.063957214355469 6.0000004768371582 -5.2767133712768555
f 92 91 89 90
g Doors_entrance
v 41.048286437988281 8 -5.5874991416931152
v 41.048286437988281 6.0000004768371582 -5.5874991416931152
v 41.048286437988281 8 -6.4874992370605469
v 41.048286437988281 6.0000004768371582 -6.4874992370605469
f 96 95 93 94
g Doors_entrance
v 32.834331512451172 5.0000004768371582 -5.2767133712768555
v 32.834331512451172 3.0000004768371582 -5.2767133712768555
v 33.734333038330078 5.0000004768371582 -5.2767133712768555
v 33.734333038330078 3.0000004768371582 -5.2767133712768555
f 100 98 97 99
g Doors_entrance
v 32.75 5.0000004768371582 -5.5874991416931152
v 32.75 3.0000004768371582 -5.5874991416931152
v 32.75 5.0000004768371582 -6.4874992370605469
v 32.75 3.0000004768371582 -6.4874992370605469
f 104 102 101 103
g Doors_entrance
v 40.963954925537109 5.0000004768371582 -5.2767133712768555
v 40.963954925537109 3.0000004768371582 -5.2767133712768555
v 40.063957214355469 5.0000004768371582 -5.2767133712768555
v 40.063957214355469 3.0000004768371582 -5.2767133712768555
f 108 107 105 106
g Doors_entrance
v 41.048286437988281 5.0000004768371582 -5.5874991416931152
v 41.048286437988281 3.0000004768371582 -5.5874991416931152
v 41.048286437988281 5.0000004768371582 -6.4874992370605469
v 41.048286437988281 3.0000004768371582 -6.4874992370605469
f 112 111 109 110
g Doors_entrance
v 32.834331512451172 26 -5.2767133712768555
v 32.834331512451172 24 -5.2767133712768555
v 33.734333038330078 26 -5.2767133712768555
v 33.734333038330078 24 -5.2767133712768555
f 116 114 113 115
g Doors_entrance
v 32.75 26 -5.5874991416931152
v 32.75 24 -5.5874991416931152
v 32.75 26 -6.4874992370605469
v 32.75 24 -6.4874992370605469
f 120 118 117 119
g Doors_entrance
v 40.963954925537109 26 -5.2767133712768555
v 40.963954925537109 24 -5.2767133712768555
v 40.063957214355469 26 -5.2767133712768555
v 40.063957214355469 24 -5.2767133712768555
f 124 123 121 122
g Doors_entrance
v 41.048286437988281 26 -5.5874991416931152
v 41.048286437988281 24 -5.5874991416931152
v 41.048286437988281 26 -6.4874992370605469
v 41.048286437988281 24 -6.4874992370605469
f 128 127 125 126
g Doors_entrance
v 41.048286437988281 2.0000004768371582 -5.5874991416931152
v 41.048286437988281 4.6387319230234425E-07 -5.5874991416931152
v 41.048286437988281 2.0000004768371582 -6.4874992370605469
v 41.048286437988281 4.6387319230234425E-07 -6.4874992370605469
f 132 131 129 130
g Doors_entrance
v 40.963954925537109 2.0000004768371582 -5.2767133712768555
v 40.963954925537109 4.6387319230234425E-07 -5.2767133712768555
v 40.063957214355469 2.0000004768371582 -5.2767133712768555
v 40.063957214355469 4.6387319230234425E-07 -5.2767133712768555
f 136 135 133 134
g Doors_entrance
v 32.75 2.0000004768371582 -5.5874991416931152
v 32.75 4.6387319230234425E-07 -5.5874991416931152
v 32.75 2.0000004768371582 -6.4874992370605469
v 32.75 4.6387319230234425E-07 -6.4874992370605469
f 140 138 137 139
g Doors_entrance
v 32.834331512451172 2.0000004768371582 -5.2767133712768555
v 32.834331512451172 4.6387319230234425E-07 -5.2767133712768555
v 33.734333038330078 2.0000004768371582 -5.2767133712768555
v 33.734333038330078 4.6387319230234425E-07 -5.2767133712768555
f 144 142 141 143
