# Rhino

g Doors_door
v 26.222827911376953 23 -5.4333896636962891
v 26.222827911376953 21 -5.4333896636962891
v 26.222827911376953 23 -6.3333897590637207
v 26.222827911376953 21 -6.3333897590637207
f 4 2 1 3
g Doors_door
v 26.222827911376953 23 -7.5467443466186523
v 26.222827911376953 21 -7.5467443466186523
v 26.222827911376953 23 -6.6467442512512207
v 26.222827911376953 21 -6.6467442512512207
f 8 7 5 6
g Doors_door
v 35.278884887695312 23 -2.8621084690093994
v 35.278884887695312 21 -2.8621084690093994
v 35.278884887695312 23 -3.7621085643768311
v 35.278884887695312 21 -3.7621085643768311
f 12 10 9 11
g Doors_door
v 35.278884887695312 23 -4.9754629135131836
v 35.278884887695312 21 -4.9754629135131836
v 35.278884887695312 23 -4.075462818145752
v 35.278884887695312 21 -4.075462818145752
f 16 15 13 14
g Doors_door
v 33.846572875976562 23 -5.1267132759094238
v 33.846572875976562 21 -5.1267132759094238
v 33.846572875976562 23 -4.2267131805419922
v 33.846572875976562 21 -4.2267131805419922
f 20 19 17 18
g Doors_door
v 30.422430038452148 23 -5.1267132759094238
v 30.422430038452148 21 -5.1267132759094238
v 30.422430038452148 23 -4.2267131805419922
v 30.422430038452148 21 -4.2267131805419922
f 24 23 21 22
g Doors_door
v 31.399997711181641 23 -4.0767130851745605
v 31.399997711181641 21 -4.0767130851745605
v 32.299999237060547 23 -4.0767130851745605
v 32.299999237060547 21 -4.0767130851745605
f 28 26 25 27
g Doors_door
v 31.787569046020508 23 -6.7982869148254395
v 31.787569046020508 21 -6.7982869148254395
v 32.687568664550781 23 -6.7982869148254395
v 32.687568664550781 21 -6.7982869148254395
f 32 30 29 31
g Doors_door
v 30.0418701171875 23 -6.7982869148254395
v 30.0418701171875 21 -6.7982869148254395
v 30.941869735717773 23 -6.7982869148254395
v 30.941869735717773 21 -6.7982869148254395
f 36 34 33 35
g Doors_door
v 26.282827377319336 23 -8.3084068298339844
v 26.282827377319336 21 -8.3084068298339844
v 27.182826995849609 23 -8.3084068298339844
v 27.182826995849609 21 -8.3084068298339844
f 40 38 37 39
g Doors_door
v 26.282827377319336 23 -5.2767128944396973
v 26.282827377319336 21 -5.2767128944396973
v 27.182826995849609 23 -5.2767128944396973
v 27.182826995849609 21 -5.2767128944396973
f 44 42 41 43
g Doors_door
v 32.949794769287109 23 -7.9967441558837891
v 32.949794769287109 21 -7.9967441558837891
v 32.949794769287109 23 -7.0967445373535156
v 32.949794769287109 21 -7.0967445373535156
f 48 47 45 46
g Doors_door
v 25.832828521728516 23 -1.2475488185882568
v 25.832828521728516 21 -1.2475488185882568
v 26.732828140258789 23 -1.2475488185882568
v 26.732828140258789 21 -1.2475488185882568
f 52 50 49 51
g Doors_door
v 28.947608947753906 23 -1.2475488185882568
v 28.947608947753906 21 -1.2475488185882568
v 29.84760856628418 23 -1.2475488185882568
v 29.84760856628418 21 -1.2475488185882568
f 56 54 53 55
g Doors_door
v 47.575458526611328 23 -5.4333896636962891
v 47.575458526611328 21 -5.4333896636962891
v 47.575458526611328 23 -6.3333897590637207
v 47.575458526611328 21 -6.3333897590637207
f 60 59 57 58
g Doors_door
v 47.575458526611328 23 -7.5467443466186523
v 47.575458526611328 21 -7.5467443466186523
v 47.575458526611328 23 -6.6467442512512207
v 47.575458526611328 21 -6.6467442512512207
f 64 62 61 63
g Doors_door
v 38.519401550292969 23 -2.8621084690093994
v 38.519401550292969 21 -2.8621084690093994
v 38.519401550292969 23 -3.7621085643768311
v 38.519401550292969 21 -3.7621085643768311
f 68 67 65 66
g Doors_door
v 38.519401550292969 23 -4.9754629135131836
v 38.519401550292969 21 -4.9754629135131836
v 38.519401550292969 23 -4.075462818145752
v 38.519401550292969 21 -4.075462818145752
f 72 70 69 71
g Doors_door
v 39.951713562011719 23 -5.1267132759094238
v 39.951713562011719 21 -5.1267132759094238
v 39.951713562011719 23 -4.2267131805419922
v 39.951713562011719 21 -4.2267131805419922
f 76 74 73 75
g Doors_door
v 43.375858306884766 23 -5.1267132759094238
v 43.375858306884766 21 -5.1267132759094238
v 43.375858306884766 23 -4.2267131805419922
v 43.375858306884766 21 -4.2267131805419922
f 80 78 77 79
g Doors_door
v 42.398288726806641 23 -4.0767130851745605
v 42.398288726806641 21 -4.0767130851745605
v 41.498291015625 23 -4.0767130851745605
v 41.498291015625 21 -4.0767130851745605
f 84 83 81 82
g Doors_door
v 42.010719299316406 23 -6.7982869148254395
v 42.010719299316406 21 -6.7982869148254395
v 41.1107177734375 23 -6.7982869148254395
v 41.1107177734375 21 -6.7982869148254395
f 88 87 85 86
g Doors_door
v 43.756416320800781 23 -6.7982869148254395
v 43.756416320800781 21 -6.7982869148254395
v 42.856418609619141 23 -6.7982869148254395
v 42.856418609619141 21 -6.7982869148254395
f 92 91 89 90
g Doors_door
v 47.515460968017578 23 -8.3084068298339844
v 47.515460968017578 21 -8.3084068298339844
v 46.615459442138672 23 -8.3084068298339844
v 46.615459442138672 21 -8.3084068298339844
f 96 95 93 94
g Doors_door
v 47.515460968017578 23 -5.2767128944396973
v 47.515460968017578 21 -5.2767128944396973
v 46.615459442138672 23 -5.2767128944396973
v 46.615459442138672 21 -5.2767128944396973
f 100 99 97 98
g Doors_door
v 40.848491668701172 23 -7.9967441558837891
v 40.848491668701172 21 -7.9967441558837891
v 40.848491668701172 23 -7.0967445373535156
v 40.848491668701172 21 -7.0967445373535156
f 104 102 101 103
g Doors_door
v 47.965457916259766 23 -1.2475488185882568
v 47.965457916259766 21 -1.2475488185882568
v 47.065460205078125 23 -1.2475488185882568
v 47.065460205078125 21 -1.2475488185882568
f 108 107 105 106
g Doors_door
v 44.850677490234375 23 -1.2475488185882568
v 44.850677490234375 21 -1.2475488185882568
v 43.950679779052734 23 -1.2475488185882568
v 43.950679779052734 21 -1.2475488185882568
f 112 111 109 110
g Doors_door
v 26.222827911376953 20 -5.4333896636962891
v 26.222827911376953 18 -5.4333896636962891
v 26.222827911376953 20 -6.3333897590637207
v 26.222827911376953 18 -6.3333897590637207
f 116 114 113 115
g Doors_door
v 26.222827911376953 20 -7.5467443466186523
v 26.222827911376953 18 -7.5467443466186523
v 26.222827911376953 20 -6.6467442512512207
v 26.222827911376953 18 -6.6467442512512207
f 120 119 117 118
g Doors_door
v 35.278884887695312 20 -2.8621084690093994
v 35.278884887695312 18 -2.8621084690093994
v 35.278884887695312 20 -3.7621085643768311
v 35.278884887695312 18 -3.7621085643768311
f 124 122 121 123
g Doors_door
v 35.278884887695312 20 -4.9754629135131836
v 35.278884887695312 18 -4.9754629135131836
v 35.278884887695312 20 -4.075462818145752
v 35.278884887695312 18 -4.075462818145752
f 128 127 125 126
g Doors_door
v 33.846572875976562 20 -5.1267132759094238
v 33.846572875976562 18 -5.1267132759094238
v 33.846572875976562 20 -4.2267131805419922
v 33.846572875976562 18 -4.2267131805419922
f 132 131 129 130
g Doors_door
v 30.422430038452148 20 -5.1267132759094238
v 30.422430038452148 18 -5.1267132759094238
v 30.422430038452148 20 -4.2267131805419922
v 30.422430038452148 18 -4.2267131805419922
f 136 135 133 134
g Doors_door
v 31.399997711181641 20 -4.0767130851745605
v 31.399997711181641 18 -4.0767130851745605
v 32.299999237060547 20 -4.0767130851745605
v 32.299999237060547 18 -4.0767130851745605
f 140 138 137 139
g Doors_door
v 31.787569046020508 20 -6.7982869148254395
v 31.787569046020508 18 -6.7982869148254395
v 32.687568664550781 20 -6.7982869148254395
v 32.687568664550781 18 -6.7982869148254395
f 144 142 141 143
g Doors_door
v 30.0418701171875 20 -6.7982869148254395
v 30.0418701171875 18 -6.7982869148254395
v 30.941869735717773 20 -6.7982869148254395
v 30.941869735717773 18 -6.7982869148254395
f 148 146 145 147
g Doors_door
v 26.282827377319336 20 -8.3084068298339844
v 26.282827377319336 18 -8.3084068298339844
v 27.182826995849609 20 -8.3084068298339844
v 27.182826995849609 18 -8.3084068298339844
f 152 150 149 151
g Doors_door
v 26.282827377319336 20 -5.2767128944396973
v 26.282827377319336 18 -5.2767128944396973
v 27.182826995849609 20 -5.2767128944396973
v 27.182826995849609 18 -5.2767128944396973
f 156 154 153 155
g Doors_door
v 32.949794769287109 20 -7.9967441558837891
v 32.949794769287109 18 -7.9967441558837891
v 32.949794769287109 20 -7.0967445373535156
v 32.949794769287109 18 -7.0967445373535156
f 160 159 157 158
g Doors_door
v 25.832828521728516 20 -1.2475488185882568
v 25.832828521728516 18 -1.2475488185882568
v 26.732828140258789 20 -1.2475488185882568
v 26.732828140258789 18 -1.2475488185882568
f 164 162 161 163
g Doors_door
v 28.947608947753906 20 -1.2475488185882568
v 28.947608947753906 18 -1.2475488185882568
v 29.84760856628418 20 -1.2475488185882568
v 29.84760856628418 18 -1.2475488185882568
f 168 166 165 167
g Doors_door
v 47.575458526611328 20 -5.4333896636962891
v 47.575458526611328 18 -5.4333896636962891
v 47.575458526611328 20 -6.3333897590637207
v 47.575458526611328 18 -6.3333897590637207
f 172 171 169 170
g Doors_door
v 47.575458526611328 20 -7.5467443466186523
v 47.575458526611328 18 -7.5467443466186523
v 47.575458526611328 20 -6.6467442512512207
v 47.575458526611328 18 -6.6467442512512207
f 176 174 173 175
g Doors_door
v 38.519401550292969 20 -2.8621084690093994
v 38.519401550292969 18 -2.8621084690093994
v 38.519401550292969 20 -3.7621085643768311
v 38.519401550292969 18 -3.7621085643768311
f 180 179 177 178
g Doors_door
v 38.519401550292969 20 -4.9754629135131836
v 38.519401550292969 18 -4.9754629135131836
v 38.519401550292969 20 -4.075462818145752
v 38.519401550292969 18 -4.075462818145752
f 184 182 181 183
g Doors_door
v 39.951713562011719 20 -5.1267132759094238
v 39.951713562011719 18 -5.1267132759094238
v 39.951713562011719 20 -4.2267131805419922
v 39.951713562011719 18 -4.2267131805419922
f 188 186 185 187
g Doors_door
v 43.375858306884766 20 -5.1267132759094238
v 43.375858306884766 18 -5.1267132759094238
v 43.375858306884766 20 -4.2267131805419922
v 43.375858306884766 18 -4.2267131805419922
f 192 190 189 191
g Doors_door
v 42.398288726806641 20 -4.0767130851745605
v 42.398288726806641 18 -4.0767130851745605
v 41.498291015625 20 -4.0767130851745605
v 41.498291015625 18 -4.0767130851745605
f 196 195 193 194
g Doors_door
v 42.010719299316406 20 -6.7982869148254395
v 42.010719299316406 18 -6.7982869148254395
v 41.1107177734375 20 -6.7982869148254395
v 41.1107177734375 18 -6.7982869148254395
f 200 199 197 198
g Doors_door
v 43.756416320800781 20 -6.7982869148254395
v 43.756416320800781 18 -6.7982869148254395
v 42.856418609619141 20 -6.7982869148254395
v 42.856418609619141 18 -6.7982869148254395
f 204 203 201 202
g Doors_door
v 47.515460968017578 20 -8.3084068298339844
v 47.515460968017578 18 -8.3084068298339844
v 46.615459442138672 20 -8.3084068298339844
v 46.615459442138672 18 -8.3084068298339844
f 208 207 205 206
g Doors_door
v 47.515460968017578 20 -5.2767128944396973
v 47.515460968017578 18 -5.2767128944396973
v 46.615459442138672 20 -5.2767128944396973
v 46.615459442138672 18 -5.2767128944396973
f 212 211 209 210
g Doors_door
v 40.848491668701172 20 -7.9967441558837891
v 40.848491668701172 18 -7.9967441558837891
v 40.848491668701172 20 -7.0967445373535156
v 40.848491668701172 18 -7.0967445373535156
f 216 214 213 215
g Doors_door
v 47.965457916259766 20 -1.2475488185882568
v 47.965457916259766 18 -1.2475488185882568
v 47.065460205078125 20 -1.2475488185882568
v 47.065460205078125 18 -1.2475488185882568
f 220 219 217 218
g Doors_door
v 44.850677490234375 20 -1.2475488185882568
v 44.850677490234375 18 -1.2475488185882568
v 43.950679779052734 20 -1.2475488185882568
v 43.950679779052734 18 -1.2475488185882568
f 224 223 221 222
g Doors_door
v 26.222827911376953 17 -5.4333896636962891
v 26.222827911376953 15 -5.4333896636962891
v 26.222827911376953 17 -6.3333897590637207
v 26.222827911376953 15 -6.3333897590637207
f 228 226 225 227
g Doors_door
v 26.222827911376953 17 -7.5467443466186523
v 26.222827911376953 15 -7.5467443466186523
v 26.222827911376953 17 -6.6467442512512207
v 26.222827911376953 15 -6.6467442512512207
f 232 231 229 230
g Doors_door
v 35.278884887695312 17 -2.8621084690093994
v 35.278884887695312 15 -2.8621084690093994
v 35.278884887695312 17 -3.7621085643768311
v 35.278884887695312 15 -3.7621085643768311
f 236 234 233 235
g Doors_door
v 35.278884887695312 17 -4.9754629135131836
v 35.278884887695312 15 -4.9754629135131836
v 35.278884887695312 17 -4.075462818145752
v 35.278884887695312 15 -4.075462818145752
f 240 239 237 238
g Doors_door
v 33.846572875976562 17 -5.1267132759094238
v 33.846572875976562 15 -5.1267132759094238
v 33.846572875976562 17 -4.2267131805419922
v 33.846572875976562 15 -4.2267131805419922
f 244 243 241 242
g Doors_door
v 30.422430038452148 17 -5.1267132759094238
v 30.422430038452148 15 -5.1267132759094238
v 30.422430038452148 17 -4.2267131805419922
v 30.422430038452148 15 -4.2267131805419922
f 248 247 245 246
g Doors_door
v 31.399997711181641 17 -4.0767130851745605
v 31.399997711181641 15 -4.0767130851745605
v 32.299999237060547 17 -4.0767130851745605
v 32.299999237060547 15 -4.0767130851745605
f 252 250 249 251
g Doors_door
v 31.787569046020508 17 -6.7982869148254395
v 31.787569046020508 15 -6.7982869148254395
v 32.687568664550781 17 -6.7982869148254395
v 32.687568664550781 15 -6.7982869148254395
f 256 254 253 255
g Doors_door
v 30.0418701171875 17 -6.7982869148254395
v 30.0418701171875 15 -6.7982869148254395
v 30.941869735717773 17 -6.7982869148254395
v 30.941869735717773 15 -6.7982869148254395
f 260 258 257 259
g Doors_door
v 26.282827377319336 17 -8.3084068298339844
v 26.282827377319336 15 -8.3084068298339844
v 27.182826995849609 17 -8.3084068298339844
v 27.182826995849609 15 -8.3084068298339844
f 264 262 261 263
g Doors_door
v 26.282827377319336 17 -5.2767128944396973
v 26.282827377319336 15 -5.2767128944396973
v 27.182826995849609 17 -5.2767128944396973
v 27.182826995849609 15 -5.2767128944396973
f 268 266 265 267
g Doors_door
v 32.949794769287109 17 -7.9967441558837891
v 32.949794769287109 15 -7.9967441558837891
v 32.949794769287109 17 -7.0967445373535156
v 32.949794769287109 15 -7.0967445373535156
f 272 271 269 270
g Doors_door
v 25.832828521728516 17 -1.2475488185882568
v 25.832828521728516 15 -1.2475488185882568
v 26.732828140258789 17 -1.2475488185882568
v 26.732828140258789 15 -1.2475488185882568
f 276 274 273 275
g Doors_door
v 28.947608947753906 17 -1.2475488185882568
v 28.947608947753906 15 -1.2475488185882568
v 29.84760856628418 17 -1.2475488185882568
v 29.84760856628418 15 -1.2475488185882568
f 280 278 277 279
g Doors_door
v 47.575458526611328 17 -5.4333896636962891
v 47.575458526611328 15 -5.4333896636962891
v 47.575458526611328 17 -6.3333897590637207
v 47.575458526611328 15 -6.3333897590637207
f 284 283 281 282
g Doors_door
v 47.575458526611328 17 -7.5467443466186523
v 47.575458526611328 15 -7.5467443466186523
v 47.575458526611328 17 -6.6467442512512207
v 47.575458526611328 15 -6.6467442512512207
f 288 286 285 287
g Doors_door
v 38.519401550292969 17 -2.8621084690093994
v 38.519401550292969 15 -2.8621084690093994
v 38.519401550292969 17 -3.7621085643768311
v 38.519401550292969 15 -3.7621085643768311
f 292 291 289 290
g Doors_door
v 38.519401550292969 17 -4.9754629135131836
v 38.519401550292969 15 -4.9754629135131836
v 38.519401550292969 17 -4.075462818145752
v 38.519401550292969 15 -4.075462818145752
f 296 294 293 295
g Doors_door
v 39.951713562011719 17 -5.1267132759094238
v 39.951713562011719 15 -5.1267132759094238
v 39.951713562011719 17 -4.2267131805419922
v 39.951713562011719 15 -4.2267131805419922
f 300 298 297 299
g Doors_door
v 43.375858306884766 17 -5.1267132759094238
v 43.375858306884766 15 -5.1267132759094238
v 43.375858306884766 17 -4.2267131805419922
v 43.375858306884766 15 -4.2267131805419922
f 304 302 301 303
g Doors_door
v 42.398288726806641 17 -4.0767130851745605
v 42.398288726806641 15 -4.0767130851745605
v 41.498291015625 17 -4.0767130851745605
v 41.498291015625 15 -4.0767130851745605
f 308 307 305 306
g Doors_door
v 42.010719299316406 17 -6.7982869148254395
v 42.010719299316406 15 -6.7982869148254395
v 41.1107177734375 17 -6.7982869148254395
v 41.1107177734375 15 -6.7982869148254395
f 312 311 309 310
g Doors_door
v 43.756416320800781 17 -6.7982869148254395
v 43.756416320800781 15 -6.7982869148254395
v 42.856418609619141 17 -6.7982869148254395
v 42.856418609619141 15 -6.7982869148254395
f 316 315 313 314
g Doors_door
v 47.515460968017578 17 -8.3084068298339844
v 47.515460968017578 15 -8.3084068298339844
v 46.615459442138672 17 -8.3084068298339844
v 46.615459442138672 15 -8.3084068298339844
f 320 319 317 318
g Doors_door
v 47.515460968017578 17 -5.2767128944396973
v 47.515460968017578 15 -5.2767128944396973
v 46.615459442138672 17 -5.2767128944396973
v 46.615459442138672 15 -5.2767128944396973
f 324 323 321 322
g Doors_door
v 40.848491668701172 17 -7.9967441558837891
v 40.848491668701172 15 -7.9967441558837891
v 40.848491668701172 17 -7.0967445373535156
v 40.848491668701172 15 -7.0967445373535156
f 328 326 325 327
g Doors_door
v 47.965457916259766 17 -1.2475488185882568
v 47.965457916259766 15 -1.2475488185882568
v 47.065460205078125 17 -1.2475488185882568
v 47.065460205078125 15 -1.2475488185882568
f 332 331 329 330
g Doors_door
v 44.850677490234375 17 -1.2475488185882568
v 44.850677490234375 15 -1.2475488185882568
v 43.950679779052734 17 -1.2475488185882568
v 43.950679779052734 15 -1.2475488185882568
f 336 335 333 334
g Doors_door
v 26.222827911376953 14 -5.4333896636962891
v 26.222827911376953 12 -5.4333896636962891
v 26.222827911376953 14 -6.3333897590637207
v 26.222827911376953 12 -6.3333897590637207
f 340 338 337 339
g Doors_door
v 26.222827911376953 14 -7.5467443466186523
v 26.222827911376953 12 -7.5467443466186523
v 26.222827911376953 14 -6.6467442512512207
v 26.222827911376953 12 -6.6467442512512207
f 344 343 341 342
g Doors_door
v 35.278884887695312 14 -2.8621084690093994
v 35.278884887695312 12 -2.8621084690093994
v 35.278884887695312 14 -3.7621085643768311
v 35.278884887695312 12 -3.7621085643768311
f 348 346 345 347
g Doors_door
v 35.278884887695312 14 -4.9754629135131836
v 35.278884887695312 12 -4.9754629135131836
v 35.278884887695312 14 -4.075462818145752
v 35.278884887695312 12 -4.075462818145752
f 352 351 349 350
g Doors_door
v 33.846572875976562 14 -5.1267132759094238
v 33.846572875976562 12 -5.1267132759094238
v 33.846572875976562 14 -4.2267131805419922
v 33.846572875976562 12 -4.2267131805419922
f 356 355 353 354
g Doors_door
v 30.422430038452148 14 -5.1267132759094238
v 30.422430038452148 12 -5.1267132759094238
v 30.422430038452148 14 -4.2267131805419922
v 30.422430038452148 12 -4.2267131805419922
f 360 359 357 358
g Doors_door
v 31.399997711181641 14 -4.0767130851745605
v 31.399997711181641 12 -4.0767130851745605
v 32.299999237060547 14 -4.0767130851745605
v 32.299999237060547 12 -4.0767130851745605
f 364 362 361 363
g Doors_door
v 31.787569046020508 14 -6.7982869148254395
v 31.787569046020508 12 -6.7982869148254395
v 32.687568664550781 14 -6.7982869148254395
v 32.687568664550781 12 -6.7982869148254395
f 368 366 365 367
g Doors_door
v 30.0418701171875 14 -6.7982869148254395
v 30.0418701171875 12 -6.7982869148254395
v 30.941869735717773 14 -6.7982869148254395
v 30.941869735717773 12 -6.7982869148254395
f 372 370 369 371
g Doors_door
v 26.282827377319336 14 -8.3084068298339844
v 26.282827377319336 12 -8.3084068298339844
v 27.182826995849609 14 -8.3084068298339844
v 27.182826995849609 12 -8.3084068298339844
f 376 374 373 375
g Doors_door
v 26.282827377319336 14 -5.2767128944396973
v 26.282827377319336 12 -5.2767128944396973
v 27.182826995849609 14 -5.2767128944396973
v 27.182826995849609 12 -5.2767128944396973
f 380 378 377 379
g Doors_door
v 32.949794769287109 14 -7.9967441558837891
v 32.949794769287109 12 -7.9967441558837891
v 32.949794769287109 14 -7.0967445373535156
v 32.949794769287109 12 -7.0967445373535156
f 384 383 381 382
g Doors_door
v 25.832828521728516 14 -1.2475488185882568
v 25.832828521728516 12 -1.2475488185882568
v 26.732828140258789 14 -1.2475488185882568
v 26.732828140258789 12 -1.2475488185882568
f 388 386 385 387
g Doors_door
v 28.947608947753906 14 -1.2475488185882568
v 28.947608947753906 12 -1.2475488185882568
v 29.84760856628418 14 -1.2475488185882568
v 29.84760856628418 12 -1.2475488185882568
f 392 390 389 391
g Doors_door
v 47.575458526611328 14 -5.4333896636962891
v 47.575458526611328 12 -5.4333896636962891
v 47.575458526611328 14 -6.3333897590637207
v 47.575458526611328 12 -6.3333897590637207
f 396 395 393 394
g Doors_door
v 47.575458526611328 14 -7.5467443466186523
v 47.575458526611328 12 -7.5467443466186523
v 47.575458526611328 14 -6.6467442512512207
v 47.575458526611328 12 -6.6467442512512207
f 400 398 397 399
g Doors_door
v 38.519401550292969 14 -2.8621084690093994
v 38.519401550292969 12 -2.8621084690093994
v 38.519401550292969 14 -3.7621085643768311
v 38.519401550292969 12 -3.7621085643768311
f 404 403 401 402
g Doors_door
v 38.519401550292969 14 -4.9754629135131836
v 38.519401550292969 12 -4.9754629135131836
v 38.519401550292969 14 -4.075462818145752
v 38.519401550292969 12 -4.075462818145752
f 408 406 405 407
g Doors_door
v 39.951713562011719 14 -5.1267132759094238
v 39.951713562011719 12 -5.1267132759094238
v 39.951713562011719 14 -4.2267131805419922
v 39.951713562011719 12 -4.2267131805419922
f 412 410 409 411
g Doors_door
v 43.375858306884766 14 -5.1267132759094238
v 43.375858306884766 12 -5.1267132759094238
v 43.375858306884766 14 -4.2267131805419922
v 43.375858306884766 12 -4.2267131805419922
f 416 414 413 415
g Doors_door
v 42.398288726806641 14 -4.0767130851745605
v 42.398288726806641 12 -4.0767130851745605
v 41.498291015625 14 -4.0767130851745605
v 41.498291015625 12 -4.0767130851745605
f 420 419 417 418
g Doors_door
v 42.010719299316406 14 -6.7982869148254395
v 42.010719299316406 12 -6.7982869148254395
v 41.1107177734375 14 -6.7982869148254395
v 41.1107177734375 12 -6.7982869148254395
f 424 423 421 422
g Doors_door
v 43.756416320800781 14 -6.7982869148254395
v 43.756416320800781 12 -6.7982869148254395
v 42.856418609619141 14 -6.7982869148254395
v 42.856418609619141 12 -6.7982869148254395
f 428 427 425 426
g Doors_door
v 47.515460968017578 14 -8.3084068298339844
v 47.515460968017578 12 -8.3084068298339844
v 46.615459442138672 14 -8.3084068298339844
v 46.615459442138672 12 -8.3084068298339844
f 432 431 429 430
g Doors_door
v 47.515460968017578 14 -5.2767128944396973
v 47.515460968017578 12 -5.2767128944396973
v 46.615459442138672 14 -5.2767128944396973
v 46.615459442138672 12 -5.2767128944396973
f 436 435 433 434
g Doors_door
v 40.848491668701172 14 -7.9967441558837891
v 40.848491668701172 12 -7.9967441558837891
v 40.848491668701172 14 -7.0967445373535156
v 40.848491668701172 12 -7.0967445373535156
f 440 438 437 439
g Doors_door
v 47.965457916259766 14 -1.2475488185882568
v 47.965457916259766 12 -1.2475488185882568
v 47.065460205078125 14 -1.2475488185882568
v 47.065460205078125 12 -1.2475488185882568
f 444 443 441 442
g Doors_door
v 44.850677490234375 14 -1.2475488185882568
v 44.850677490234375 12 -1.2475488185882568
v 43.950679779052734 14 -1.2475488185882568
v 43.950679779052734 12 -1.2475488185882568
f 448 447 445 446
g Doors_door
v 26.222827911376953 11 -5.4333896636962891
v 26.222827911376953 9 -5.4333896636962891
v 26.222827911376953 11 -6.3333897590637207
v 26.222827911376953 9 -6.3333897590637207
f 452 450 449 451
g Doors_door
v 26.222827911376953 11 -7.5467443466186523
v 26.222827911376953 9 -7.5467443466186523
v 26.222827911376953 11 -6.6467442512512207
v 26.222827911376953 9 -6.6467442512512207
f 456 455 453 454
g Doors_door
v 35.278884887695312 11 -2.8621084690093994
v 35.278884887695312 9 -2.8621084690093994
v 35.278884887695312 11 -3.7621085643768311
v 35.278884887695312 9 -3.7621085643768311
f 460 458 457 459
g Doors_door
v 35.278884887695312 11 -4.9754629135131836
v 35.278884887695312 9 -4.9754629135131836
v 35.278884887695312 11 -4.075462818145752
v 35.278884887695312 9 -4.075462818145752
f 464 463 461 462
g Doors_door
v 33.846572875976562 11 -5.1267132759094238
v 33.846572875976562 9 -5.1267132759094238
v 33.846572875976562 11 -4.2267131805419922
v 33.846572875976562 9 -4.2267131805419922
f 468 467 465 466
g Doors_door
v 30.422430038452148 11 -5.1267132759094238
v 30.422430038452148 9 -5.1267132759094238
v 30.422430038452148 11 -4.2267131805419922
v 30.422430038452148 9 -4.2267131805419922
f 472 471 469 470
g Doors_door
v 31.399997711181641 11 -4.0767130851745605
v 31.399997711181641 9 -4.0767130851745605
v 32.299999237060547 11 -4.0767130851745605
v 32.299999237060547 9 -4.0767130851745605
f 476 474 473 475
g Doors_door
v 31.787569046020508 11 -6.7982869148254395
v 31.787569046020508 9 -6.7982869148254395
v 32.687568664550781 11 -6.7982869148254395
v 32.687568664550781 9 -6.7982869148254395
f 480 478 477 479
g Doors_door
v 30.0418701171875 11 -6.7982869148254395
v 30.0418701171875 9 -6.7982869148254395
v 30.941869735717773 11 -6.7982869148254395
v 30.941869735717773 9 -6.7982869148254395
f 484 482 481 483
g Doors_door
v 26.282827377319336 11 -8.3084068298339844
v 26.282827377319336 9 -8.3084068298339844
v 27.182826995849609 11 -8.3084068298339844
v 27.182826995849609 9 -8.3084068298339844
f 488 486 485 487
g Doors_door
v 26.282827377319336 11 -5.2767128944396973
v 26.282827377319336 9 -5.2767128944396973
v 27.182826995849609 11 -5.2767128944396973
v 27.182826995849609 9 -5.2767128944396973
f 492 490 489 491
g Doors_door
v 32.949794769287109 11 -7.9967441558837891
v 32.949794769287109 9 -7.9967441558837891
v 32.949794769287109 11 -7.0967445373535156
v 32.949794769287109 9 -7.0967445373535156
f 496 495 493 494
g Doors_door
v 25.832828521728516 11 -1.2475488185882568
v 25.832828521728516 9 -1.2475488185882568
v 26.732828140258789 11 -1.2475488185882568
v 26.732828140258789 9 -1.2475488185882568
f 500 498 497 499
g Doors_door
v 28.947608947753906 11 -1.2475488185882568
v 28.947608947753906 9 -1.2475488185882568
v 29.84760856628418 11 -1.2475488185882568
v 29.84760856628418 9 -1.2475488185882568
f 504 502 501 503
g Doors_door
v 47.575458526611328 11 -5.4333896636962891
v 47.575458526611328 9 -5.4333896636962891
v 47.575458526611328 11 -6.3333897590637207
v 47.575458526611328 9 -6.3333897590637207
f 508 507 505 506
g Doors_door
v 47.575458526611328 11 -7.5467443466186523
v 47.575458526611328 9 -7.5467443466186523
v 47.575458526611328 11 -6.6467442512512207
v 47.575458526611328 9 -6.6467442512512207
f 512 510 509 511
g Doors_door
v 38.519401550292969 11 -2.8621084690093994
v 38.519401550292969 9 -2.8621084690093994
v 38.519401550292969 11 -3.7621085643768311
v 38.519401550292969 9 -3.7621085643768311
f 516 515 513 514
g Doors_door
v 38.519401550292969 11 -4.9754629135131836
v 38.519401550292969 9 -4.9754629135131836
v 38.519401550292969 11 -4.075462818145752
v 38.519401550292969 9 -4.075462818145752
f 520 518 517 519
g Doors_door
v 39.951713562011719 11 -5.1267132759094238
v 39.951713562011719 9 -5.1267132759094238
v 39.951713562011719 11 -4.2267131805419922
v 39.951713562011719 9 -4.2267131805419922
f 524 522 521 523
g Doors_door
v 43.375858306884766 11 -5.1267132759094238
v 43.375858306884766 9 -5.1267132759094238
v 43.375858306884766 11 -4.2267131805419922
v 43.375858306884766 9 -4.2267131805419922
f 528 526 525 527
g Doors_door
v 42.398288726806641 11 -4.0767130851745605
v 42.398288726806641 9 -4.0767130851745605
v 41.498291015625 11 -4.0767130851745605
v 41.498291015625 9 -4.0767130851745605
f 532 531 529 530
g Doors_door
v 42.010719299316406 11 -6.7982869148254395
v 42.010719299316406 9 -6.7982869148254395
v 41.1107177734375 11 -6.7982869148254395
v 41.1107177734375 9 -6.7982869148254395
f 536 535 533 534
g Doors_door
v 43.756416320800781 11 -6.7982869148254395
v 43.756416320800781 9 -6.7982869148254395
v 42.856418609619141 11 -6.7982869148254395
v 42.856418609619141 9 -6.7982869148254395
f 540 539 537 538
g Doors_door
v 47.515460968017578 11 -8.3084068298339844
v 47.515460968017578 9 -8.3084068298339844
v 46.615459442138672 11 -8.3084068298339844
v 46.615459442138672 9 -8.3084068298339844
f 544 543 541 542
g Doors_door
v 47.515460968017578 11 -5.2767128944396973
v 47.515460968017578 9 -5.2767128944396973
v 46.615459442138672 11 -5.2767128944396973
v 46.615459442138672 9 -5.2767128944396973
f 548 547 545 546
g Doors_door
v 40.848491668701172 11 -7.9967441558837891
v 40.848491668701172 9 -7.9967441558837891
v 40.848491668701172 11 -7.0967445373535156
v 40.848491668701172 9 -7.0967445373535156
f 552 550 549 551
g Doors_door
v 47.965457916259766 11 -1.2475488185882568
v 47.965457916259766 9 -1.2475488185882568
v 47.065460205078125 11 -1.2475488185882568
v 47.065460205078125 9 -1.2475488185882568
f 556 555 553 554
g Doors_door
v 44.850677490234375 11 -1.2475488185882568
v 44.850677490234375 9 -1.2475488185882568
v 43.950679779052734 11 -1.2475488185882568
v 43.950679779052734 9 -1.2475488185882568
f 560 559 557 558
g Doors_door
v 26.222827911376953 8 -5.4333896636962891
v 26.222827911376953 6.0000004768371582 -5.4333896636962891
v 26.222827911376953 8 -6.3333897590637207
v 26.222827911376953 6.0000004768371582 -6.3333897590637207
f 564 562 561 563
g Doors_door
v 26.222827911376953 8 -7.5467443466186523
v 26.222827911376953 6.0000004768371582 -7.5467443466186523
v 26.222827911376953 8 -6.6467442512512207
v 26.222827911376953 6.0000004768371582 -6.6467442512512207
f 568 567 565 566
g Doors_door
v 35.278884887695312 8 -2.8621084690093994
v 35.278884887695312 6.0000004768371582 -2.8621084690093994
v 35.278884887695312 8 -3.7621085643768311
v 35.278884887695312 6.0000004768371582 -3.7621085643768311
f 572 570 569 571
g Doors_door
v 35.278884887695312 8 -4.9754629135131836
v 35.278884887695312 6.0000004768371582 -4.9754629135131836
v 35.278884887695312 8 -4.075462818145752
v 35.278884887695312 6.0000004768371582 -4.075462818145752
f 576 575 573 574
g Doors_door
v 33.846572875976562 8 -5.1267132759094238
v 33.846572875976562 6.0000004768371582 -5.1267132759094238
v 33.846572875976562 8 -4.2267131805419922
v 33.846572875976562 6.0000004768371582 -4.2267131805419922
f 580 579 577 578
g Doors_door
v 30.422430038452148 8 -5.1267132759094238
v 30.422430038452148 6.0000004768371582 -5.1267132759094238
v 30.422430038452148 8 -4.2267131805419922
v 30.422430038452148 6.0000004768371582 -4.2267131805419922
f 584 583 581 582
g Doors_door
v 31.399997711181641 8 -4.0767130851745605
v 31.399997711181641 6.0000004768371582 -4.0767130851745605
v 32.299999237060547 8 -4.0767130851745605
v 32.299999237060547 6.0000004768371582 -4.0767130851745605
f 588 586 585 587
g Doors_door
v 31.787569046020508 8 -6.7982869148254395
v 31.787569046020508 6.0000004768371582 -6.7982869148254395
v 32.687568664550781 8 -6.7982869148254395
v 32.687568664550781 6.0000004768371582 -6.7982869148254395
f 592 590 589 591
g Doors_door
v 30.0418701171875 8 -6.7982869148254395
v 30.0418701171875 6.0000004768371582 -6.7982869148254395
v 30.941869735717773 8 -6.7982869148254395
v 30.941869735717773 6.0000004768371582 -6.7982869148254395
f 596 594 593 595
g Doors_door
v 26.282827377319336 8 -8.3084068298339844
v 26.282827377319336 6.0000004768371582 -8.3084068298339844
v 27.182826995849609 8 -8.3084068298339844
v 27.182826995849609 6.0000004768371582 -8.3084068298339844
f 600 598 597 599
g Doors_door
v 26.282827377319336 8 -5.2767128944396973
v 26.282827377319336 6.0000004768371582 -5.2767128944396973
v 27.182826995849609 8 -5.2767128944396973
v 27.182826995849609 6.0000004768371582 -5.2767128944396973
f 604 602 601 603
g Doors_door
v 32.949794769287109 8 -7.9967441558837891
v 32.949794769287109 6.0000004768371582 -7.9967441558837891
v 32.949794769287109 8 -7.0967445373535156
v 32.949794769287109 6.0000004768371582 -7.0967445373535156
f 608 607 605 606
g Doors_door
v 25.832828521728516 8 -1.2475488185882568
v 25.832828521728516 6.0000004768371582 -1.2475488185882568
v 26.732828140258789 8 -1.2475488185882568
v 26.732828140258789 6.0000004768371582 -1.2475488185882568
f 612 610 609 611
g Doors_door
v 28.947608947753906 8 -1.2475488185882568
v 28.947608947753906 6.0000004768371582 -1.2475488185882568
v 29.84760856628418 8 -1.2475488185882568
v 29.84760856628418 6.0000004768371582 -1.2475488185882568
f 616 614 613 615
g Doors_door
v 47.575458526611328 8 -5.4333896636962891
v 47.575458526611328 6.0000004768371582 -5.4333896636962891
v 47.575458526611328 8 -6.3333897590637207
v 47.575458526611328 6.0000004768371582 -6.3333897590637207
f 620 619 617 618
g Doors_door
v 47.575458526611328 8 -7.5467443466186523
v 47.575458526611328 6.0000004768371582 -7.5467443466186523
v 47.575458526611328 8 -6.6467442512512207
v 47.575458526611328 6.0000004768371582 -6.6467442512512207
f 624 622 621 623
g Doors_door
v 38.519401550292969 8 -2.8621084690093994
v 38.519401550292969 6.0000004768371582 -2.8621084690093994
v 38.519401550292969 8 -3.7621085643768311
v 38.519401550292969 6.0000004768371582 -3.7621085643768311
f 628 627 625 626
g Doors_door
v 38.519401550292969 8 -4.9754629135131836
v 38.519401550292969 6.0000004768371582 -4.9754629135131836
v 38.519401550292969 8 -4.075462818145752
v 38.519401550292969 6.0000004768371582 -4.075462818145752
f 632 630 629 631
g Doors_door
v 39.951713562011719 8 -5.1267132759094238
v 39.951713562011719 6.0000004768371582 -5.1267132759094238
v 39.951713562011719 8 -4.2267131805419922
v 39.951713562011719 6.0000004768371582 -4.2267131805419922
f 636 634 633 635
g Doors_door
v 43.375858306884766 8 -5.1267132759094238
v 43.375858306884766 6.0000004768371582 -5.1267132759094238
v 43.375858306884766 8 -4.2267131805419922
v 43.375858306884766 6.0000004768371582 -4.2267131805419922
f 640 638 637 639
g Doors_door
v 42.398288726806641 8 -4.0767130851745605
v 42.398288726806641 6.0000004768371582 -4.0767130851745605
v 41.498291015625 8 -4.0767130851745605
v 41.498291015625 6.0000004768371582 -4.0767130851745605
f 644 643 641 642
g Doors_door
v 42.010719299316406 8 -6.7982869148254395
v 42.010719299316406 6.0000004768371582 -6.7982869148254395
v 41.1107177734375 8 -6.7982869148254395
v 41.1107177734375 6.0000004768371582 -6.7982869148254395
f 648 647 645 646
g Doors_door
v 43.756416320800781 8 -6.7982869148254395
v 43.756416320800781 6.0000004768371582 -6.7982869148254395
v 42.856418609619141 8 -6.7982869148254395
v 42.856418609619141 6.0000004768371582 -6.7982869148254395
f 652 651 649 650
g Doors_door
v 47.515460968017578 8 -8.3084068298339844
v 47.515460968017578 6.0000004768371582 -8.3084068298339844
v 46.615459442138672 8 -8.3084068298339844
v 46.615459442138672 6.0000004768371582 -8.3084068298339844
f 656 655 653 654
g Doors_door
v 47.515460968017578 8 -5.2767128944396973
v 47.515460968017578 6.0000004768371582 -5.2767128944396973
v 46.615459442138672 8 -5.2767128944396973
v 46.615459442138672 6.0000004768371582 -5.2767128944396973
f 660 659 657 658
g Doors_door
v 40.848491668701172 8 -7.9967441558837891
v 40.848491668701172 6.0000004768371582 -7.9967441558837891
v 40.848491668701172 8 -7.0967445373535156
v 40.848491668701172 6.0000004768371582 -7.0967445373535156
f 664 662 661 663
g Doors_door
v 47.965457916259766 8 -1.2475488185882568
v 47.965457916259766 6.0000004768371582 -1.2475488185882568
v 47.065460205078125 8 -1.2475488185882568
v 47.065460205078125 6.0000004768371582 -1.2475488185882568
f 668 667 665 666
g Doors_door
v 44.850677490234375 8 -1.2475488185882568
v 44.850677490234375 6.0000004768371582 -1.2475488185882568
v 43.950679779052734 8 -1.2475488185882568
v 43.950679779052734 6.0000004768371582 -1.2475488185882568
f 672 671 669 670
g Doors_door
v 26.222827911376953 5.0000004768371582 -5.4333896636962891
v 26.222827911376953 3.0000004768371582 -5.4333896636962891
v 26.222827911376953 5.0000004768371582 -6.3333897590637207
v 26.222827911376953 3.0000004768371582 -6.3333897590637207
f 676 674 673 675
g Doors_door
v 26.222827911376953 5.0000004768371582 -7.5467443466186523
v 26.222827911376953 3.0000004768371582 -7.5467443466186523
v 26.222827911376953 5.0000004768371582 -6.6467442512512207
v 26.222827911376953 3.0000004768371582 -6.6467442512512207
f 680 679 677 678
g Doors_door
v 35.278884887695312 5.0000004768371582 -2.8621084690093994
v 35.278884887695312 3.0000004768371582 -2.8621084690093994
v 35.278884887695312 5.0000004768371582 -3.7621085643768311
v 35.278884887695312 3.0000004768371582 -3.7621085643768311
f 684 682 681 683
g Doors_door
v 35.278884887695312 5.0000004768371582 -4.9754629135131836
v 35.278884887695312 3.0000004768371582 -4.9754629135131836
v 35.278884887695312 5.0000004768371582 -4.075462818145752
v 35.278884887695312 3.0000004768371582 -4.075462818145752
f 688 687 685 686
g Doors_door
v 33.846572875976562 5.0000004768371582 -5.1267132759094238
v 33.846572875976562 3.0000004768371582 -5.1267132759094238
v 33.846572875976562 5.0000004768371582 -4.2267131805419922
v 33.846572875976562 3.0000004768371582 -4.2267131805419922
f 692 691 689 690
g Doors_door
v 30.422430038452148 5.0000004768371582 -5.1267132759094238
v 30.422430038452148 3.0000004768371582 -5.1267132759094238
v 30.422430038452148 5.0000004768371582 -4.2267131805419922
v 30.422430038452148 3.0000004768371582 -4.2267131805419922
f 696 695 693 694
g Doors_door
v 31.399997711181641 5.0000004768371582 -4.0767130851745605
v 31.399997711181641 3.0000004768371582 -4.0767130851745605
v 32.299999237060547 5.0000004768371582 -4.0767130851745605
v 32.299999237060547 3.0000004768371582 -4.0767130851745605
f 700 698 697 699
g Doors_door
v 31.787569046020508 5.0000004768371582 -6.7982869148254395
v 31.787569046020508 3.0000004768371582 -6.7982869148254395
v 32.687568664550781 5.0000004768371582 -6.7982869148254395
v 32.687568664550781 3.0000004768371582 -6.7982869148254395
f 704 702 701 703
g Doors_door
v 30.0418701171875 5.0000004768371582 -6.7982869148254395
v 30.0418701171875 3.0000004768371582 -6.7982869148254395
v 30.941869735717773 5.0000004768371582 -6.7982869148254395
v 30.941869735717773 3.0000004768371582 -6.7982869148254395
f 708 706 705 707
g Doors_door
v 26.282827377319336 5.0000004768371582 -8.3084068298339844
v 26.282827377319336 3.0000004768371582 -8.3084068298339844
v 27.182826995849609 5.0000004768371582 -8.3084068298339844
v 27.182826995849609 3.0000004768371582 -8.3084068298339844
f 712 710 709 711
g Doors_door
v 26.282827377319336 5.0000004768371582 -5.2767128944396973
v 26.282827377319336 3.0000004768371582 -5.2767128944396973
v 27.182826995849609 5.0000004768371582 -5.2767128944396973
v 27.182826995849609 3.0000004768371582 -5.2767128944396973
f 716 714 713 715
g Doors_door
v 32.949794769287109 5.0000004768371582 -7.9967441558837891
v 32.949794769287109 3.0000004768371582 -7.9967441558837891
v 32.949794769287109 5.0000004768371582 -7.0967445373535156
v 32.949794769287109 3.0000004768371582 -7.0967445373535156
f 720 719 717 718
g Doors_door
v 25.832828521728516 5.0000004768371582 -1.2475488185882568
v 25.832828521728516 3.0000004768371582 -1.2475488185882568
v 26.732828140258789 5.0000004768371582 -1.2475488185882568
v 26.732828140258789 3.0000004768371582 -1.2475488185882568
f 724 722 721 723
g Doors_door
v 28.947608947753906 5.0000004768371582 -1.2475488185882568
v 28.947608947753906 3.0000004768371582 -1.2475488185882568
v 29.84760856628418 5.0000004768371582 -1.2475488185882568
v 29.84760856628418 3.0000004768371582 -1.2475488185882568
f 728 726 725 727
g Doors_door
v 47.575458526611328 5.0000004768371582 -5.4333896636962891
v 47.575458526611328 3.0000004768371582 -5.4333896636962891
v 47.575458526611328 5.0000004768371582 -6.3333897590637207
v 47.575458526611328 3.0000004768371582 -6.3333897590637207
f 732 731 729 730
g Doors_door
v 47.575458526611328 5.0000004768371582 -7.5467443466186523
v 47.575458526611328 3.0000004768371582 -7.5467443466186523
v 47.575458526611328 5.0000004768371582 -6.6467442512512207
v 47.575458526611328 3.0000004768371582 -6.6467442512512207
f 736 734 733 735
g Doors_door
v 38.519401550292969 5.0000004768371582 -2.8621084690093994
v 38.519401550292969 3.0000004768371582 -2.8621084690093994
v 38.519401550292969 5.0000004768371582 -3.7621085643768311
v 38.519401550292969 3.0000004768371582 -3.7621085643768311
f 740 739 737 738
g Doors_door
v 38.519401550292969 5.0000004768371582 -4.9754629135131836
v 38.519401550292969 3.0000004768371582 -4.9754629135131836
v 38.519401550292969 5.0000004768371582 -4.075462818145752
v 38.519401550292969 3.0000004768371582 -4.075462818145752
f 744 742 741 743
g Doors_door
v 39.951713562011719 5.0000004768371582 -5.1267132759094238
v 39.951713562011719 3.0000004768371582 -5.1267132759094238
v 39.951713562011719 5.0000004768371582 -4.2267131805419922
v 39.951713562011719 3.0000004768371582 -4.2267131805419922
f 748 746 745 747
g Doors_door
v 43.375858306884766 5.0000004768371582 -5.1267132759094238
v 43.375858306884766 3.0000004768371582 -5.1267132759094238
v 43.375858306884766 5.0000004768371582 -4.2267131805419922
v 43.375858306884766 3.0000004768371582 -4.2267131805419922
f 752 750 749 751
g Doors_door
v 42.398288726806641 5.0000004768371582 -4.0767130851745605
v 42.398288726806641 3.0000004768371582 -4.0767130851745605
v 41.498291015625 5.0000004768371582 -4.0767130851745605
v 41.498291015625 3.0000004768371582 -4.0767130851745605
f 756 755 753 754
g Doors_door
v 42.010719299316406 5.0000004768371582 -6.7982869148254395
v 42.010719299316406 3.0000004768371582 -6.7982869148254395
v 41.1107177734375 5.0000004768371582 -6.7982869148254395
v 41.1107177734375 3.0000004768371582 -6.7982869148254395
f 760 759 757 758
g Doors_door
v 43.756416320800781 5.0000004768371582 -6.7982869148254395
v 43.756416320800781 3.0000004768371582 -6.7982869148254395
v 42.856418609619141 5.0000004768371582 -6.7982869148254395
v 42.856418609619141 3.0000004768371582 -6.7982869148254395
f 764 763 761 762
g Doors_door
v 47.515460968017578 5.0000004768371582 -8.3084068298339844
v 47.515460968017578 3.0000004768371582 -8.3084068298339844
v 46.615459442138672 5.0000004768371582 -8.3084068298339844
v 46.615459442138672 3.0000004768371582 -8.3084068298339844
f 768 767 765 766
g Doors_door
v 47.515460968017578 5.0000004768371582 -5.2767128944396973
v 47.515460968017578 3.0000004768371582 -5.2767128944396973
v 46.615459442138672 5.0000004768371582 -5.2767128944396973
v 46.615459442138672 3.0000004768371582 -5.2767128944396973
f 772 771 769 770
g Doors_door
v 40.848491668701172 5.0000004768371582 -7.9967441558837891
v 40.848491668701172 3.0000004768371582 -7.9967441558837891
v 40.848491668701172 5.0000004768371582 -7.0967445373535156
v 40.848491668701172 3.0000004768371582 -7.0967445373535156
f 776 774 773 775
g Doors_door
v 47.965457916259766 5.0000004768371582 -1.2475488185882568
v 47.965457916259766 3.0000004768371582 -1.2475488185882568
v 47.065460205078125 5.0000004768371582 -1.2475488185882568
v 47.065460205078125 3.0000004768371582 -1.2475488185882568
f 780 779 777 778
g Doors_door
v 44.850677490234375 5.0000004768371582 -1.2475488185882568
v 44.850677490234375 3.0000004768371582 -1.2475488185882568
v 43.950679779052734 5.0000004768371582 -1.2475488185882568
v 43.950679779052734 3.0000004768371582 -1.2475488185882568
f 784 783 781 782
g Doors_door
v 26.222827911376953 26 -5.4333896636962891
v 26.222827911376953 24 -5.4333896636962891
v 26.222827911376953 26 -6.3333897590637207
v 26.222827911376953 24 -6.3333897590637207
f 788 786 785 787
g Doors_door
v 26.222827911376953 26 -7.5467443466186523
v 26.222827911376953 24 -7.5467443466186523
v 26.222827911376953 26 -6.6467442512512207
v 26.222827911376953 24 -6.6467442512512207
f 792 791 789 790
g Doors_door
v 35.278884887695312 26 -2.8621084690093994
v 35.278884887695312 24 -2.8621084690093994
v 35.278884887695312 26 -3.7621085643768311
v 35.278884887695312 24 -3.7621085643768311
f 796 794 793 795
g Doors_door
v 35.278884887695312 26 -4.9754629135131836
v 35.278884887695312 24 -4.9754629135131836
v 35.278884887695312 26 -4.075462818145752
v 35.278884887695312 24 -4.075462818145752
f 800 799 797 798
g Doors_door
v 33.846572875976562 26 -5.1267132759094238
v 33.846572875976562 24 -5.1267132759094238
v 33.846572875976562 26 -4.2267131805419922
v 33.846572875976562 24 -4.2267131805419922
f 804 803 801 802
g Doors_door
v 30.422430038452148 26 -5.1267132759094238
v 30.422430038452148 24 -5.1267132759094238
v 30.422430038452148 26 -4.2267131805419922
v 30.422430038452148 24 -4.2267131805419922
f 808 807 805 806
g Doors_door
v 31.399997711181641 26 -4.0767130851745605
v 31.399997711181641 24 -4.0767130851745605
v 32.299999237060547 26 -4.0767130851745605
v 32.299999237060547 24 -4.0767130851745605
f 812 810 809 811
g Doors_door
v 31.787569046020508 26 -6.7982869148254395
v 31.787569046020508 24 -6.7982869148254395
v 32.687568664550781 26 -6.7982869148254395
v 32.687568664550781 24 -6.7982869148254395
f 816 814 813 815
g Doors_door
v 30.0418701171875 26 -6.7982869148254395
v 30.0418701171875 24 -6.7982869148254395
v 30.941869735717773 26 -6.7982869148254395
v 30.941869735717773 24 -6.7982869148254395
f 820 818 817 819
g Doors_door
v 26.282827377319336 26 -8.3084068298339844
v 26.282827377319336 24 -8.3084068298339844
v 27.182826995849609 26 -8.3084068298339844
v 27.182826995849609 24 -8.3084068298339844
f 824 822 821 823
g Doors_door
v 26.282827377319336 26 -5.2767128944396973
v 26.282827377319336 24 -5.2767128944396973
v 27.182826995849609 26 -5.2767128944396973
v 27.182826995849609 24 -5.2767128944396973
f 828 826 825 827
g Doors_door
v 32.949794769287109 26 -7.9967441558837891
v 32.949794769287109 24 -7.9967441558837891
v 32.949794769287109 26 -7.0967445373535156
v 32.949794769287109 24 -7.0967445373535156
f 832 831 829 830
g Doors_door
v 25.832828521728516 26 -1.2475488185882568
v 25.832828521728516 24 -1.2475488185882568
v 26.732828140258789 26 -1.2475488185882568
v 26.732828140258789 24 -1.2475488185882568
f 836 834 833 835
g Doors_door
v 28.947608947753906 26 -1.2475488185882568
v 28.947608947753906 24 -1.2475488185882568
v 29.84760856628418 26 -1.2475488185882568
v 29.84760856628418 24 -1.2475488185882568
f 840 838 837 839
g Doors_door
v 47.575458526611328 26 -5.4333896636962891
v 47.575458526611328 24 -5.4333896636962891
v 47.575458526611328 26 -6.3333897590637207
v 47.575458526611328 24 -6.3333897590637207
f 844 843 841 842
g Doors_door
v 47.575458526611328 26 -7.5467443466186523
v 47.575458526611328 24 -7.5467443466186523
v 47.575458526611328 26 -6.6467442512512207
v 47.575458526611328 24 -6.6467442512512207
f 848 846 845 847
g Doors_door
v 38.519401550292969 26 -2.8621084690093994
v 38.519401550292969 24 -2.8621084690093994
v 38.519401550292969 26 -3.7621085643768311
v 38.519401550292969 24 -3.7621085643768311
f 852 851 849 850
g Doors_door
v 38.519401550292969 26 -4.9754629135131836
v 38.519401550292969 24 -4.9754629135131836
v 38.519401550292969 26 -4.075462818145752
v 38.519401550292969 24 -4.075462818145752
f 856 854 853 855
g Doors_door
v 39.951713562011719 26 -5.1267132759094238
v 39.951713562011719 24 -5.1267132759094238
v 39.951713562011719 26 -4.2267131805419922
v 39.951713562011719 24 -4.2267131805419922
f 860 858 857 859
g Doors_door
v 43.375858306884766 26 -5.1267132759094238
v 43.375858306884766 24 -5.1267132759094238
v 43.375858306884766 26 -4.2267131805419922
v 43.375858306884766 24 -4.2267131805419922
f 864 862 861 863
g Doors_door
v 42.398288726806641 26 -4.0767130851745605
v 42.398288726806641 24 -4.0767130851745605
v 41.498291015625 26 -4.0767130851745605
v 41.498291015625 24 -4.0767130851745605
f 868 867 865 866
g Doors_door
v 42.010719299316406 26 -6.7982869148254395
v 42.010719299316406 24 -6.7982869148254395
v 41.1107177734375 26 -6.7982869148254395
v 41.1107177734375 24 -6.7982869148254395
f 872 871 869 870
g Doors_door
v 43.756416320800781 26 -6.7982869148254395
v 43.756416320800781 24 -6.7982869148254395
v 42.856418609619141 26 -6.7982869148254395
v 42.856418609619141 24 -6.7982869148254395
f 876 875 873 874
g Doors_door
v 47.515460968017578 26 -8.3084068298339844
v 47.515460968017578 24 -8.3084068298339844
v 46.615459442138672 26 -8.3084068298339844
v 46.615459442138672 24 -8.3084068298339844
f 880 879 877 878
g Doors_door
v 47.515460968017578 26 -5.2767128944396973
v 47.515460968017578 24 -5.2767128944396973
v 46.615459442138672 26 -5.2767128944396973
v 46.615459442138672 24 -5.2767128944396973
f 884 883 881 882
g Doors_door
v 40.848491668701172 26 -7.9967441558837891
v 40.848491668701172 24 -7.9967441558837891
v 40.848491668701172 26 -7.0967445373535156
v 40.848491668701172 24 -7.0967445373535156
f 888 886 885 887
g Doors_door
v 47.965457916259766 26 -1.2475488185882568
v 47.965457916259766 24 -1.2475488185882568
v 47.065460205078125 26 -1.2475488185882568
v 47.065460205078125 24 -1.2475488185882568
f 892 891 889 890
g Doors_door
v 44.850677490234375 26 -1.2475488185882568
v 44.850677490234375 24 -1.2475488185882568
v 43.950679779052734 26 -1.2475488185882568
v 43.950679779052734 24 -1.2475488185882568
f 896 895 893 894
g Doors_door
v 44.850677490234375 2.0000004768371582 -1.2475488185882568
v 44.850677490234375 4.6387319230234425E-07 -1.2475488185882568
v 43.950679779052734 2.0000004768371582 -1.2475488185882568
v 43.950679779052734 4.6387319230234425E-07 -1.2475488185882568
f 900 899 897 898
g Doors_door
v 47.965457916259766 2.0000004768371582 -1.2475488185882568
v 47.965457916259766 4.6387319230234425E-07 -1.2475488185882568
v 47.065460205078125 2.0000004768371582 -1.2475488185882568
v 47.065460205078125 4.6387319230234425E-07 -1.2475488185882568
f 904 903 901 902
g Doors_door
v 40.848491668701172 2.0000004768371582 -7.9967441558837891
v 40.848491668701172 4.6387319230234425E-07 -7.9967441558837891
v 40.848491668701172 2.0000004768371582 -7.0967445373535156
v 40.848491668701172 4.6387319230234425E-07 -7.0967445373535156
f 908 906 905 907
g Doors_door
v 47.515460968017578 2.0000004768371582 -5.2767128944396973
v 47.515460968017578 4.6387319230234425E-07 -5.2767128944396973
v 46.615459442138672 2.0000004768371582 -5.2767128944396973
v 46.615459442138672 4.6387319230234425E-07 -5.2767128944396973
f 912 911 909 910
g Doors_door
v 47.515460968017578 2.0000004768371582 -8.3084068298339844
v 47.515460968017578 4.6387319230234425E-07 -8.3084068298339844
v 46.615459442138672 2.0000004768371582 -8.3084068298339844
v 46.615459442138672 4.6387319230234425E-07 -8.3084068298339844
f 916 915 913 914
g Doors_door
v 43.756416320800781 2.0000004768371582 -6.7982869148254395
v 43.756416320800781 4.6387319230234425E-07 -6.7982869148254395
v 42.856418609619141 2.0000004768371582 -6.7982869148254395
v 42.856418609619141 4.6387319230234425E-07 -6.7982869148254395
f 920 919 917 918
g Doors_door
v 42.010719299316406 2.0000004768371582 -6.7982869148254395
v 42.010719299316406 4.6387319230234425E-07 -6.7982869148254395
v 41.1107177734375 2.0000004768371582 -6.7982869148254395
v 41.1107177734375 4.6387319230234425E-07 -6.7982869148254395
f 924 923 921 922
g Doors_door
v 42.398288726806641 2.0000004768371582 -4.0767130851745605
v 42.398288726806641 4.6387319230234425E-07 -4.0767130851745605
v 41.498291015625 2.0000004768371582 -4.0767130851745605
v 41.498291015625 4.6387319230234425E-07 -4.0767130851745605
f 928 927 925 926
g Doors_door
v 43.375858306884766 2.0000004768371582 -5.1267132759094238
v 43.375858306884766 4.6387319230234425E-07 -5.1267132759094238
v 43.375858306884766 2.0000004768371582 -4.2267131805419922
v 43.375858306884766 4.6387319230234425E-07 -4.2267131805419922
f 932 930 929 931
g Doors_door
v 39.951713562011719 2.0000004768371582 -5.1267132759094238
v 39.951713562011719 4.6387319230234425E-07 -5.1267132759094238
v 39.951713562011719 2.0000004768371582 -4.2267131805419922
v 39.951713562011719 4.6387319230234425E-07 -4.2267131805419922
f 936 934 933 935
g Doors_door
v 38.519401550292969 2.0000004768371582 -4.9754629135131836
v 38.519401550292969 4.6387319230234425E-07 -4.9754629135131836
v 38.519401550292969 2.0000004768371582 -4.075462818145752
v 38.519401550292969 4.6387319230234425E-07 -4.075462818145752
f 940 938 937 939
g Doors_door
v 38.519401550292969 2.0000004768371582 -2.8621084690093994
v 38.519401550292969 4.6387319230234425E-07 -2.8621084690093994
v 38.519401550292969 2.0000004768371582 -3.7621085643768311
v 38.519401550292969 4.6387319230234425E-07 -3.7621085643768311
f 944 943 941 942
g Doors_door
v 47.575458526611328 2.0000004768371582 -7.5467443466186523
v 47.575458526611328 4.6387319230234425E-07 -7.5467443466186523
v 47.575458526611328 2.0000004768371582 -6.6467442512512207
v 47.575458526611328 4.6387319230234425E-07 -6.6467442512512207
f 948 946 945 947
g Doors_door
v 47.575458526611328 2.0000004768371582 -5.4333896636962891
v 47.575458526611328 4.6387319230234425E-07 -5.4333896636962891
v 47.575458526611328 2.0000004768371582 -6.3333897590637207
v 47.575458526611328 4.6387319230234425E-07 -6.3333897590637207
f 952 951 949 950
g Doors_door
v 28.947608947753906 2.0000004768371582 -1.2475488185882568
v 28.947608947753906 4.6387319230234425E-07 -1.2475488185882568
v 29.84760856628418 2.0000004768371582 -1.2475488185882568
v 29.84760856628418 4.6387319230234425E-07 -1.2475488185882568
f 956 954 953 955
g Doors_door
v 25.832828521728516 2.0000004768371582 -1.2475488185882568
v 25.832828521728516 4.6387319230234425E-07 -1.2475488185882568
v 26.732828140258789 2.0000004768371582 -1.2475488185882568
v 26.732828140258789 4.6387319230234425E-07 -1.2475488185882568
f 960 958 957 959
g Doors_door
v 32.949794769287109 2.0000004768371582 -7.9967441558837891
v 32.949794769287109 4.6387319230234425E-07 -7.9967441558837891
v 32.949794769287109 2.0000004768371582 -7.0967445373535156
v 32.949794769287109 4.6387319230234425E-07 -7.0967445373535156
f 964 963 961 962
g Doors_door
v 26.282827377319336 2.0000004768371582 -5.2767128944396973
v 26.282827377319336 4.6387319230234425E-07 -5.2767128944396973
v 27.182826995849609 2.0000004768371582 -5.2767128944396973
v 27.182826995849609 4.6387319230234425E-07 -5.2767128944396973
f 968 966 965 967
g Doors_door
v 26.282827377319336 2.0000004768371582 -8.3084068298339844
v 26.282827377319336 4.6387319230234425E-07 -8.3084068298339844
v 27.182826995849609 2.0000004768371582 -8.3084068298339844
v 27.182826995849609 4.6387319230234425E-07 -8.3084068298339844
f 972 970 969 971
g Doors_door
v 30.0418701171875 2.0000004768371582 -6.7982869148254395
v 30.0418701171875 4.6387319230234425E-07 -6.7982869148254395
v 30.941869735717773 2.0000004768371582 -6.7982869148254395
v 30.941869735717773 4.6387319230234425E-07 -6.7982869148254395
f 976 974 973 975
g Doors_door
v 31.787569046020508 2.0000004768371582 -6.7982869148254395
v 31.787569046020508 4.6387319230234425E-07 -6.7982869148254395
v 32.687568664550781 2.0000004768371582 -6.7982869148254395
v 32.687568664550781 4.6387319230234425E-07 -6.7982869148254395
f 980 978 977 979
g Doors_door
v 31.399997711181641 2.0000004768371582 -4.0767130851745605
v 31.399997711181641 4.6387319230234425E-07 -4.0767130851745605
v 32.299999237060547 2.0000004768371582 -4.0767130851745605
v 32.299999237060547 4.6387319230234425E-07 -4.0767130851745605
f 984 982 981 983
g Doors_door
v 30.422430038452148 2.0000004768371582 -5.1267132759094238
v 30.422430038452148 4.6387319230234425E-07 -5.1267132759094238
v 30.422430038452148 2.0000004768371582 -4.2267131805419922
v 30.422430038452148 4.6387319230234425E-07 -4.2267131805419922
f 988 987 985 986
g Doors_door
v 33.846572875976562 2.0000004768371582 -5.1267132759094238
v 33.846572875976562 4.6387319230234425E-07 -5.1267132759094238
v 33.846572875976562 2.0000004768371582 -4.2267131805419922
v 33.846572875976562 4.6387319230234425E-07 -4.2267131805419922
f 992 991 989 990
g Doors_door
v 35.278884887695312 2.0000004768371582 -4.9754629135131836
v 35.278884887695312 4.6387319230234425E-07 -4.9754629135131836
v 35.278884887695312 2.0000004768371582 -4.075462818145752
v 35.278884887695312 4.6387319230234425E-07 -4.075462818145752
f 996 995 993 994
g Doors_door
v 35.278884887695312 2.0000004768371582 -2.8621084690093994
v 35.278884887695312 4.6387319230234425E-07 -2.8621084690093994
v 35.278884887695312 2.0000004768371582 -3.7621085643768311
v 35.278884887695312 4.6387319230234425E-07 -3.7621085643768311
f 1000 998 997 999
g Doors_door
v 26.222827911376953 2.0000004768371582 -7.5467443466186523
v 26.222827911376953 4.6387319230234425E-07 -7.5467443466186523
v 26.222827911376953 2.0000004768371582 -6.6467442512512207
v 26.222827911376953 4.6387319230234425E-07 -6.6467442512512207
f 1004 1003 1001 1002
g Doors_door
v 26.222827911376953 2.0000004768371582 -5.4333896636962891
v 26.222827911376953 4.6387319230234425E-07 -5.4333896636962891
v 26.222827911376953 2.0000004768371582 -6.3333897590637207
v 26.222827911376953 4.6387319230234425E-07 -6.3333897590637207
f 1008 1006 1005 1007
