# Rhino

g object_1
v 8.2360439300537109 2.0000004768371582 -5.2767133712768555
v 8.2360439300537109 4.6387319230234425E-07 -5.2767133712768555
v 9.1360435485839844 2.0000004768371582 -5.2767133712768555
v 9.1360435485839844 4.6387319230234425E-07 -5.2767133712768555
f 4 2 1 3
g object_2
v 8.1517124176025391 2.0000004768371582 -5.5874991416931152
v 8.1517124176025391 4.6387319230234425E-07 -5.5874991416931152
v 8.1517124176025391 2.0000004768371582 -6.4874992370605469
v 8.1517124176025391 4.6387319230234425E-07 -6.4874992370605469
f 8 6 5 7
g object_3
v 16.365667343139648 2.0000004768371582 -5.2767133712768555
v 16.365667343139648 4.6387319230234425E-07 -5.2767133712768555
v 15.465667724609375 2.0000004768371582 -5.2767133712768555
v 15.465667724609375 4.6387319230234425E-07 -5.2767133712768555
f 12 11 9 10
g object_4
v 16.44999885559082 2.0000004768371582 -5.5874991416931152
v 16.44999885559082 4.6387319230234425E-07 -5.5874991416931152
v 16.44999885559082 2.0000004768371582 -6.4874992370605469
v 16.44999885559082 4.6387319230234425E-07 -6.4874992370605469
f 16 15 13 14
g object_5
v 8.2360439300537109 5.0000004768371582 -5.2767133712768555
v 8.2360439300537109 3.0000004768371582 -5.2767133712768555
v 9.1360435485839844 5.0000004768371582 -5.2767133712768555
v 9.1360435485839844 3.0000004768371582 -5.2767133712768555
f 20 18 17 19
g object_6
v 8.1517124176025391 5.0000004768371582 -5.5874991416931152
v 8.1517124176025391 3.0000004768371582 -5.5874991416931152
v 8.1517124176025391 5.0000004768371582 -6.4874992370605469
v 8.1517124176025391 3.0000004768371582 -6.4874992370605469
f 24 22 21 23
g object_7
v 16.365667343139648 5.0000004768371582 -5.2767133712768555
v 16.365667343139648 3.0000004768371582 -5.2767133712768555
v 15.465667724609375 5.0000004768371582 -5.2767133712768555
v 15.465667724609375 3.0000004768371582 -5.2767133712768555
f 28 27 25 26
g object_8
v 16.44999885559082 5.0000004768371582 -5.5874991416931152
v 16.44999885559082 3.0000004768371582 -5.5874991416931152
v 16.44999885559082 5.0000004768371582 -6.4874992370605469
v 16.44999885559082 3.0000004768371582 -6.4874992370605469
f 32 31 29 30
g object_9
v 8.2360439300537109 8 -5.2767133712768555
v 8.2360439300537109 6.0000004768371582 -5.2767133712768555
v 9.1360435485839844 8 -5.2767133712768555
v 9.1360435485839844 6.0000004768371582 -5.2767133712768555
f 36 34 33 35
g object_10
v 8.1517124176025391 8 -5.5874991416931152
v 8.1517124176025391 6.0000004768371582 -5.5874991416931152
v 8.1517124176025391 8 -6.4874992370605469
v 8.1517124176025391 6.0000004768371582 -6.4874992370605469
f 40 38 37 39
g object_11
v 16.365667343139648 8 -5.2767133712768555
v 16.365667343139648 6.0000004768371582 -5.2767133712768555
v 15.465667724609375 8 -5.2767133712768555
v 15.465667724609375 6.0000004768371582 -5.2767133712768555
f 44 43 41 42
g object_12
v 16.44999885559082 8 -5.5874991416931152
v 16.44999885559082 6.0000004768371582 -5.5874991416931152
v 16.44999885559082 8 -6.4874992370605469
v 16.44999885559082 6.0000004768371582 -6.4874992370605469
f 48 47 45 46
g object_13
v 8.2360439300537109 11 -5.2767133712768555
v 8.2360439300537109 9 -5.2767133712768555
v 9.1360435485839844 11 -5.2767133712768555
v 9.1360435485839844 9 -5.2767133712768555
f 52 50 49 51
g object_14
v 8.1517124176025391 11 -5.5874991416931152
v 8.1517124176025391 9 -5.5874991416931152
v 8.1517124176025391 11 -6.4874992370605469
v 8.1517124176025391 9 -6.4874992370605469
f 56 54 53 55
g object_15
v 16.365667343139648 11 -5.2767133712768555
v 16.365667343139648 9 -5.2767133712768555
v 15.465667724609375 11 -5.2767133712768555
v 15.465667724609375 9 -5.2767133712768555
f 60 59 57 58
g object_16
v 16.44999885559082 11 -5.5874991416931152
v 16.44999885559082 9 -5.5874991416931152
v 16.44999885559082 11 -6.4874992370605469
v 16.44999885559082 9 -6.4874992370605469
f 64 63 61 62
g object_17
v 8.2360439300537109 14 -5.2767133712768555
v 8.2360439300537109 12 -5.2767133712768555
v 9.1360435485839844 14 -5.2767133712768555
v 9.1360435485839844 12 -5.2767133712768555
f 68 66 65 67
g object_18
v 8.1517124176025391 14 -5.5874991416931152
v 8.1517124176025391 12 -5.5874991416931152
v 8.1517124176025391 14 -6.4874992370605469
v 8.1517124176025391 12 -6.4874992370605469
f 72 70 69 71
g object_19
v 16.365667343139648 14 -5.2767133712768555
v 16.365667343139648 12 -5.2767133712768555
v 15.465667724609375 14 -5.2767133712768555
v 15.465667724609375 12 -5.2767133712768555
f 76 75 73 74
g object_20
v 16.44999885559082 14 -5.5874991416931152
v 16.44999885559082 12 -5.5874991416931152
v 16.44999885559082 14 -6.4874992370605469
v 16.44999885559082 12 -6.4874992370605469
f 80 79 77 78
g object_21
v 8.2360439300537109 17 -5.2767133712768555
v 8.2360439300537109 15 -5.2767133712768555
v 9.1360435485839844 17 -5.2767133712768555
v 9.1360435485839844 15 -5.2767133712768555
f 84 82 81 83
g object_22
v 8.1517124176025391 17 -5.5874991416931152
v 8.1517124176025391 15 -5.5874991416931152
v 8.1517124176025391 17 -6.4874992370605469
v 8.1517124176025391 15 -6.4874992370605469
f 88 86 85 87
g object_23
v 16.365667343139648 17 -5.2767133712768555
v 16.365667343139648 15 -5.2767133712768555
v 15.465667724609375 17 -5.2767133712768555
v 15.465667724609375 15 -5.2767133712768555
f 92 91 89 90
g object_24
v 16.44999885559082 17 -5.5874991416931152
v 16.44999885559082 15 -5.5874991416931152
v 16.44999885559082 17 -6.4874992370605469
v 16.44999885559082 15 -6.4874992370605469
f 96 95 93 94
g object_25
v 8.2360439300537109 20 -5.2767133712768555
v 8.2360439300537109 18 -5.2767133712768555
v 9.1360435485839844 20 -5.2767133712768555
v 9.1360435485839844 18 -5.2767133712768555
f 100 98 97 99
g object_26
v 8.1517124176025391 20 -5.5874991416931152
v 8.1517124176025391 18 -5.5874991416931152
v 8.1517124176025391 20 -6.4874992370605469
v 8.1517124176025391 18 -6.4874992370605469
f 104 102 101 103
g object_27
v 16.365667343139648 20 -5.2767133712768555
v 16.365667343139648 18 -5.2767133712768555
v 15.465667724609375 20 -5.2767133712768555
v 15.465667724609375 18 -5.2767133712768555
f 108 107 105 106
g object_28
v 16.44999885559082 20 -5.5874991416931152
v 16.44999885559082 18 -5.5874991416931152
v 16.44999885559082 20 -6.4874992370605469
v 16.44999885559082 18 -6.4874992370605469
f 112 111 109 110
g object_29
v 8.2360439300537109 23 -5.2767133712768555
v 8.2360439300537109 21 -5.2767133712768555
v 9.1360435485839844 23 -5.2767133712768555
v 9.1360435485839844 21 -5.2767133712768555
f 116 114 113 115
g object_30
v 8.1517124176025391 23 -5.5874991416931152
v 8.1517124176025391 21 -5.5874991416931152
v 8.1517124176025391 23 -6.4874992370605469
v 8.1517124176025391 21 -6.4874992370605469
f 120 118 117 119
g object_31
v 16.365667343139648 23 -5.2767133712768555
v 16.365667343139648 21 -5.2767133712768555
v 15.465667724609375 23 -5.2767133712768555
v 15.465667724609375 21 -5.2767133712768555
f 124 123 121 122
g object_32
v 16.44999885559082 23 -5.5874991416931152
v 16.44999885559082 21 -5.5874991416931152
v 16.44999885559082 23 -6.4874992370605469
v 16.44999885559082 21 -6.4874992370605469
f 128 127 125 126
g object_33
v 8.2360439300537109 26 -5.2767133712768555
v 8.2360439300537109 24 -5.2767133712768555
v 9.1360435485839844 26 -5.2767133712768555
v 9.1360435485839844 24 -5.2767133712768555
f 132 130 129 131
g object_34
v 8.1517124176025391 26 -5.5874991416931152
v 8.1517124176025391 24 -5.5874991416931152
v 8.1517124176025391 26 -6.4874992370605469
v 8.1517124176025391 24 -6.4874992370605469
f 136 134 133 135
g object_35
v 16.365667343139648 26 -5.2767133712768555
v 16.365667343139648 24 -5.2767133712768555
v 15.465667724609375 26 -5.2767133712768555
v 15.465667724609375 24 -5.2767133712768555
f 140 139 137 138
g object_36
v 16.44999885559082 26 -5.5874991416931152
v 16.44999885559082 24 -5.5874991416931152
v 16.44999885559082 26 -6.4874992370605469
v 16.44999885559082 24 -6.4874992370605469
f 144 143 141 142
