# Rhino

g Doors_passage
v 38.496131896972656 23 -7.005012035369873
v 38.496131896972656 21 -7.005012035369873
v 37.59613037109375 23 -7.005012035369873
v 37.59613037109375 21 -7.005012035369873
f 4 3 1 2
g Doors_passage
v 35.302158355712891 23 -7.005012035369873
v 35.302158355712891 21 -7.005012035369873
v 36.202156066894531 23 -7.005012035369873
v 36.202156066894531 21 -7.005012035369873
f 8 6 5 7
g Doors_passage
v 38.496131896972656 20 -7.005012035369873
v 38.496131896972656 18 -7.005012035369873
v 37.59613037109375 20 -7.005012035369873
v 37.59613037109375 18 -7.005012035369873
f 12 11 9 10
g Doors_passage
v 35.302158355712891 20 -7.005012035369873
v 35.302158355712891 18 -7.005012035369873
v 36.202156066894531 20 -7.005012035369873
v 36.202156066894531 18 -7.005012035369873
f 16 14 13 15
g Doors_passage
v 38.496131896972656 17 -7.005012035369873
v 38.496131896972656 15 -7.005012035369873
v 37.59613037109375 17 -7.005012035369873
v 37.59613037109375 15 -7.005012035369873
f 20 19 17 18
g Doors_passage
v 35.302158355712891 17 -7.005012035369873
v 35.302158355712891 15 -7.005012035369873
v 36.202156066894531 17 -7.005012035369873
v 36.202156066894531 15 -7.005012035369873
f 24 22 21 23
g Doors_passage
v 38.496131896972656 14 -7.005012035369873
v 38.496131896972656 12 -7.005012035369873
v 37.59613037109375 14 -7.005012035369873
v 37.59613037109375 12 -7.005012035369873
f 28 27 25 26
g Doors_passage
v 35.302158355712891 14 -7.005012035369873
v 35.302158355712891 12 -7.005012035369873
v 36.202156066894531 14 -7.005012035369873
v 36.202156066894531 12 -7.005012035369873
f 32 30 29 31
g Doors_passage
v 38.496131896972656 11 -7.005012035369873
v 38.496131896972656 9 -7.005012035369873
v 37.59613037109375 11 -7.005012035369873
v 37.59613037109375 9 -7.005012035369873
f 36 35 33 34
g Doors_passage
v 35.302158355712891 11 -7.005012035369873
v 35.302158355712891 9 -7.005012035369873
v 36.202156066894531 11 -7.005012035369873
v 36.202156066894531 9 -7.005012035369873
f 40 38 37 39
g Doors_passage
v 38.496131896972656 8 -7.005012035369873
v 38.496131896972656 6.0000004768371582 -7.005012035369873
v 37.59613037109375 8 -7.005012035369873
v 37.59613037109375 6.0000004768371582 -7.005012035369873
f 44 43 41 42
g Doors_passage
v 35.302158355712891 8 -7.005012035369873
v 35.302158355712891 6.0000004768371582 -7.005012035369873
v 36.202156066894531 8 -7.005012035369873
v 36.202156066894531 6.0000004768371582 -7.005012035369873
f 48 46 45 47
g Doors_passage
v 38.496131896972656 5.0000004768371582 -7.005012035369873
v 38.496131896972656 3.0000004768371582 -7.005012035369873
v 37.59613037109375 5.0000004768371582 -7.005012035369873
v 37.59613037109375 3.0000004768371582 -7.005012035369873
f 52 51 49 50
g Doors_passage
v 35.302158355712891 5.0000004768371582 -7.005012035369873
v 35.302158355712891 3.0000004768371582 -7.005012035369873
v 36.202156066894531 5.0000004768371582 -7.005012035369873
v 36.202156066894531 3.0000004768371582 -7.005012035369873
f 56 54 53 55
g Doors_passage
v 38.496131896972656 26 -7.005012035369873
v 38.496131896972656 24 -7.005012035369873
v 37.59613037109375 26 -7.005012035369873
v 37.59613037109375 24 -7.005012035369873
f 60 59 57 58
g Doors_passage
v 35.302158355712891 26 -7.005012035369873
v 35.302158355712891 24 -7.005012035369873
v 36.202156066894531 26 -7.005012035369873
v 36.202156066894531 24 -7.005012035369873
f 64 62 61 63
g Doors_passage
v 35.302158355712891 2.0000004768371582 -7.005012035369873
v 35.302158355712891 4.6387319230234425E-07 -7.005012035369873
v 36.202156066894531 2.0000004768371582 -7.005012035369873
v 36.202156066894531 4.6387319230234425E-07 -7.005012035369873
f 68 66 65 67
g Doors_passage
v 38.496131896972656 2.0000004768371582 -7.005012035369873
v 38.496131896972656 4.6387319230234425E-07 -7.005012035369873
v 37.59613037109375 2.0000004768371582 -7.005012035369873
v 37.59613037109375 4.6387319230234425E-07 -7.005012035369873
f 72 71 69 70
