# Rhino

g object_1
v 4.5 3.7999999523162842 -1
v 4.5 5 -1
v 5.5 3.7999999523162842 -1
v 5.5 5 -1
f 4 2 1 3
g object_2
v 4.3000001907348633 3.7999999523162842 -9
v 4.3000001907348633 5 -9
v 5.6999998092651367 3.7999999523162842 -9
v 5.6999998092651367 5 -9
f 8 6 5 7
g object_3
v 0.86601781845092773 3.7999999523162842 -9
v 0.86601781845092773 5 -9
v 3.1339821815490723 3.7999999523162842 -9
v 3.1339821815490723 5 -9
f 12 10 9 11
g object_4
v 6.6160178184509277 3.7999999523162842 -11
v 6.6160178184509277 5 -11
v 8.3839826583862305 3.7999999523162842 -11
v 8.3839826583862305 5 -11
f 16 14 13 15
g object_5
v 0.61601781845092773 3.7999999523162842 0
v 0.61601781845092773 5 0
v 3.3839821815490723 3.7999999523162842 0
v 3.3839821815490723 5 0
f 20 18 17 19
g object_6
v 6.6160178184509277 0.80000001192092896 0
v 6.6160178184509277 2.4000000953674316 0
v 8.3839826583862305 0.80000001192092896 0
v 8.3839826583862305 2.4000000953674316 0
f 24 22 21 23
g object_7
v 0.61601781845092773 0.80000001192092896 0
v 0.61601781845092773 2.4000000953674316 0
v 3.3839821815490723 0.80000001192092896 0
v 3.3839821815490723 2.4000000953674316 0
f 28 26 25 27
g object_8
v 6.6160178184509277 3.7999999523162842 0
v 6.6160178184509277 5 0
v 8.3839826583862305 3.7999999523162842 0
v 8.3839826583862305 5 0
f 32 30 29 31
g object_9
v 6.3660178184509277 0.80000001192092896 -14.100000381469727
v 6.3660178184509277 2 -14.100000381469727
v 8.6339826583862305 0.80000001192092896 -14.100000381469727
v 8.6339826583862305 2 -14.100000381469727
f 36 34 33 35
